<?xml version="1.0" encoding="UTF-8" standalone="no"?>
<svg width="434px" height="434px" viewBox="0 0 434 434" version="1.1" xmlns="http://www.w3.org/2000/svg" xmlns:xlink="http://www.w3.org/1999/xlink" xmlns:sketch="http://www.bohemiancoding.com/sketch/ns">
    <!-- Generator: Sketch 3.3.2 (12043) - http://www.bohemiancoding.com/sketch -->
    <title>back</title>
    <desc>Created with Sketch.</desc>
    <defs></defs>
    <g id="Page-1" stroke="none" stroke-width="1" fill="none" fill-rule="evenodd" sketch:type="MSPage">
        <g id="back" sketch:type="MSLayerGroup" fill="#000000">
            <path d="M216.956,433.395 C159.099,433.395 104.706,410.865 63.796,369.954 C22.886,329.044 0.356,274.652 0.356,216.798 C0.356,158.942 22.886,104.548 63.796,63.639 C104.706,22.729 159.099,0.199 216.956,0.199 C274.811,0.199 329.204,22.729 370.113,63.639 C411.023,104.548 433.552,158.942 433.552,216.798 C433.552,274.652 411.022,329.044 370.113,369.954 C329.204,410.864 274.811,433.395 216.956,433.395 L216.956,433.395 Z M216.956,8.197 C101.934,8.197 8.356,101.774 8.356,216.797 C8.356,331.819 101.934,425.395 216.956,425.395 C331.976,425.395 425.553,331.819 425.553,216.797 C425.553,101.774 331.977,8.197 216.956,8.197 L216.956,8.197 Z" id="Shape" sketch:type="MSShapeGroup"></path>
            <path d="M216.956,371.119 C215.806,371.119 214.713,370.625 213.953,369.762 C195.12,348.365 178.869,317.473 165.652,277.947 C146.038,227.976 138.647,158.28 137.101,141.579 L100.135,141.579 C98.365,141.579 96.806,140.416 96.301,138.719 C95.797,137.023 96.467,135.196 97.95,134.229 L214.77,58.043 C216.099,57.178 217.812,57.178 219.14,58.043 L335.957,134.229 C337.44,135.196 338.11,137.023 337.606,138.719 C337.102,140.416 335.542,141.579 333.772,141.579 L296.806,141.579 C295.261,158.281 287.868,227.981 268.254,277.957 C255.034,317.482 238.784,348.371 219.957,369.763 C219.199,370.625 218.106,371.119 216.956,371.119 L216.956,371.119 Z M113.592,133.578 L140.768,133.578 C142.859,133.578 144.597,135.188 144.756,137.273 C144.818,138.088 151.236,219.392 173.136,275.117 C173.161,275.181 173.185,275.247 173.207,275.312 C185.374,311.725 200.08,340.505 216.956,360.952 C233.827,340.511 248.532,311.733 260.702,275.322 C260.723,275.256 260.747,275.191 260.773,275.127 C282.683,219.372 289.091,138.088 289.154,137.273 C289.313,135.188 291.051,133.578 293.142,133.578 L320.318,133.578 L216.956,66.167 L113.592,133.578 L113.592,133.578 Z" id="Shape" sketch:type="MSShapeGroup"></path>
        </g>
    </g>
</svg>