<?xml version="1.0" encoding="UTF-8" standalone="no"?>
<svg width="494px" height="373px" viewBox="0 0 494 373" version="1.1" xmlns="http://www.w3.org/2000/svg" xmlns:xlink="http://www.w3.org/1999/xlink" xmlns:sketch="http://www.bohemiancoding.com/sketch/ns">
    <!-- Generator: Sketch 3.3.2 (12043) - http://www.bohemiancoding.com/sketch -->
    <title>cash003</title>
    <desc>Created with Sketch.</desc>
    <defs>
        <path id="path-1" d="M344.845,372.062 C344.845,372.062 242.192,354.515 181.136,252.06 C120.081,149.605 0.614,119.735 0.614,119.735 L149.496,0.21 C149.496,0.21 268.963,30.082 330.019,132.537 C391.074,234.992 493.728,252.539 493.728,252.539 L344.845,372.062 L344.845,372.062 Z"></path>
    </defs>
    <g id="Page-1" stroke="none" stroke-width="1" fill="none" fill-rule="evenodd" sketch:type="MSPage">
        <g id="cash003" sketch:type="MSLayerGroup">
            <g id="Shape">
                <mask id="mask-2" sketch:name="Mask" fill="white">
                    <use xlink:href="#path-1"></use>
                </mask>
                <use id="Mask" fill="#E5A1B9" sketch:type="MSShapeGroup" xlink:href="#path-1"></use>
                <circle id="Oval" fill="#FFD100" sketch:type="MSShapeGroup" mask="url(#mask-2)" cx="251.767" cy="179.864" r="76.329"></circle>
                <path d="M177.992,193.272 C177.858,193.267 177.723,193.263 177.589,193.258 L177.587,193.257 C168.859,192.968 159.968,195.43 152.302,200.884 C133.716,214.107 129.369,239.892 142.593,258.476 C155.816,277.061 181.601,281.408 200.185,268.185 C207.851,262.73 213.092,255.139 215.679,246.798 L215.679,246.798 L215.681,246.797 C215.72,246.667 215.76,246.539 215.799,246.412 C216.53,244.149 220.869,232.41 234.296,223.492 C235.069,223.059 235.827,222.582 236.566,222.056 C238.757,220.756 240.127,219.45 240.865,218.164 C248.256,209.718 249.186,197.014 242.395,187.469 C235.605,177.926 223.298,174.639 212.896,178.853 C211.44,179.128 209.757,179.995 207.81,181.638 C207.072,182.163 206.372,182.723 205.71,183.311 C192.881,193.071 180.369,193.321 177.992,193.272 L177.992,193.272 Z" fill="#1C75BC" sketch:type="MSShapeGroup" mask="url(#mask-2)"></path>
            </g>
            <g id="Group" transform="translate(241.000000, 121.000000)" sketch:type="MSShapeGroup">
                <g id="Shape">
                    <path d="M10.111,40.164 C8.433,41.349 6.111,40.947 4.926,39.268 L4.926,39.268 C3.741,37.588 4.143,35.267 5.822,34.083 L19.062,24.742 C20.743,23.558 23.063,23.958 24.248,25.638 L24.248,25.638 C25.431,27.317 25.032,29.638 23.352,30.822 L10.111,40.164 L10.111,40.164 Z" fill="#BE1E2D"></path>
                    <path d="M26.271,66.794 C20.671,70.745 12.929,69.407 8.98,63.809 L3.226,55.652 C-0.724,50.053 0.614,42.311 6.212,38.362 L20.257,28.454 C25.856,24.504 33.598,25.843 37.547,31.442 L43.302,39.597 C47.251,45.196 45.913,52.938 40.314,56.888 L26.271,66.794 L26.271,66.794 Z" fill="#FFFFFF"></path>
                    <path d="M41.345,25.889 L23.26,0.251 C23.26,0.251 11.969,12.199 24.233,29.835 L42.319,55.473 C42.318,55.473 53.61,43.525 41.345,25.889 L41.345,25.889 Z" fill="#BE1E2D"></path>
                    <path d="M30.17,68.598 C28.49,69.783 26.168,69.381 24.985,67.702 L24.985,67.702 C23.8,66.023 24.201,63.702 25.88,62.517 L39.121,53.176 C40.802,51.992 43.121,52.393 44.308,54.072 L44.308,54.072 C45.491,55.751 45.091,58.072 43.412,59.257 L30.17,68.598 L30.17,68.598 Z" fill="#BE1E2D"></path>
                </g>
            </g>
            <path d="M64.458,107.703 C64.623,105.494 64.382,103.856 63.121,102.277 C61.661,100.447 59.977,100.117 58.273,101.478 C54.428,104.544 62.539,113.499 55.593,119.04 C52.215,121.736 48.195,121.848 44.667,118.827 L41.072,121.696 L38.623,118.628 L42.096,115.858 C40.66,113.552 39.717,110.398 39.894,107.567 L44.571,107.133 C44.6,109.903 45.134,112.163 46.545,113.93 C48.276,116.101 50.029,116.326 51.797,114.915 C55.981,111.576 48.09,102.45 54.568,97.279 C57.949,94.583 61.879,94.742 65.097,97.503 L68.694,94.634 L71.142,97.702 L67.608,100.522 C69.079,103.001 69.225,105.474 68.893,107.919 L64.458,107.703 L64.458,107.703 Z" id="Shape" fill="#FFFFFF" sketch:type="MSShapeGroup"></path>
        </g>
    </g>
</svg>