<?xml version="1.0" encoding="UTF-8" standalone="no"?>
<svg width="494px" height="373px" viewBox="0 0 494 373" version="1.1" xmlns="http://www.w3.org/2000/svg" xmlns:xlink="http://www.w3.org/1999/xlink" xmlns:sketch="http://www.bohemiancoding.com/sketch/ns">
    <!-- Generator: Sketch 3.3.2 (12043) - http://www.bohemiancoding.com/sketch -->
    <title>cash001</title>
    <desc>Created with Sketch.</desc>
    <defs>
        <path id="path-1" d="M344.769,372.509 C344.769,372.509 242.116,354.963 181.06,252.507 C120.005,150.052 0.538,120.182 0.538,120.182 L149.42,0.657 C149.42,0.657 268.887,30.529 329.943,132.984 C390.998,235.439 493.652,252.985 493.652,252.985 L344.769,372.509 L344.769,372.509 Z"></path>
    </defs>
    <g id="Page-1" stroke="none" stroke-width="1" fill="none" fill-rule="evenodd" sketch:type="MSPage">
        <g id="cash001" sketch:type="MSLayerGroup">
            <mask id="mask-2" sketch:name="Mask" fill="white">
                <use xlink:href="#path-1"></use>
            </mask>
            <use id="Mask" fill="#FFD100" sketch:type="MSShapeGroup" xlink:href="#path-1"></use>
            <circle id="Oval" fill="#8DC63F" sketch:type="MSShapeGroup" mask="url(#mask-2)" cx="251.691" cy="180.311" r="76.329"></circle>
            <path d="M177.916,193.719 C177.782,193.714 177.647,193.71 177.513,193.705 L177.511,193.704 C168.783,193.415 159.892,195.877 152.226,201.331 C133.64,214.554 129.293,240.339 142.517,258.923 C155.74,277.508 181.525,281.855 200.109,268.633 C207.775,263.178 213.016,255.587 215.603,247.246 L215.603,247.246 L215.605,247.244 C215.644,247.114 215.684,246.986 215.723,246.859 C216.454,244.596 220.793,232.858 234.22,223.939 C234.993,223.506 235.751,223.029 236.49,222.503 C238.681,221.203 240.051,219.897 240.789,218.611 C248.18,210.165 249.11,197.461 242.319,187.916 C235.529,178.372 223.222,175.086 212.82,179.3 C211.364,179.575 209.681,180.442 207.734,182.085 C206.996,182.61 206.296,183.17 205.634,183.758 C192.805,193.518 180.293,193.768 177.916,193.719 L177.916,193.719 Z" id="Shape" fill="#DD7575" sketch:type="MSShapeGroup" mask="url(#mask-2)"></path>
            <g id="Group" mask="url(#mask-2)" sketch:type="MSShapeGroup">
                <g transform="translate(240.000000, 139.000000)" id="Shape">
                    <path d="M30.837,49.626 L49.46,36.375 C58.409,30.009 60.502,17.592 54.136,8.643 C47.769,-0.306 35.353,-2.399 26.404,3.968 C26.086,4.195 25.778,4.431 25.479,4.672 L7.802,17.249 C7.802,17.249 -0.43,22.02 1.213,29.387 L2.855,31.695 C2.81,29.591 3.431,27.521 4.714,25.514 C4.868,25.267 5.197,25.195 5.444,25.352 C5.69,25.509 5.762,25.836 5.604,26.083 C4.069,28.486 3.574,30.98 4.135,33.495 L4.135,33.495 L5.928,36.015 C5.883,33.911 6.502,31.841 7.785,29.833 C7.943,29.587 8.269,29.515 8.515,29.672 C8.763,29.829 8.835,30.157 8.677,30.404 C7.142,32.808 6.646,35.301 7.208,37.816 L7.208,37.816 L9,40.334 C8.955,38.231 9.575,36.159 10.858,34.153 C11.014,33.907 11.342,33.834 11.588,33.992 C11.835,34.149 11.907,34.477 11.751,34.724 C10.214,37.128 9.72,39.621 10.28,42.135 L10.279,42.135 L12.072,44.655 C12.027,42.552 12.648,40.48 13.931,38.473 C14.088,38.227 14.415,38.156 14.661,38.312 C14.907,38.469 14.979,38.797 14.821,39.042 C13.286,41.446 12.792,43.939 13.352,46.454 L13.354,46.455 L15.145,48.974 C15.1,46.87 15.72,44.799 17.004,42.794 C17.16,42.546 17.487,42.474 17.734,42.632 C17.98,42.789 18.051,43.116 17.894,43.362 C16.358,45.767 15.865,48.261 16.425,50.775 L16.425,50.775 L18.218,53.294 C18.173,51.191 18.794,49.12 20.075,47.113 C20.231,46.866 20.559,46.796 20.807,46.953 C21.052,47.11 21.123,47.436 20.968,47.684 C19.431,50.086 18.936,52.58 19.498,55.094 L19.498,55.094 L21.291,57.614 C21.245,55.512 21.866,53.44 23.147,51.433 C23.305,51.187 23.631,51.114 23.878,51.272 C24.126,51.429 24.197,51.757 24.04,52.003 C22.504,54.407 22.009,56.899 22.569,59.413 C22.569,59.413 22.569,59.413 22.571,59.414 L24.24,61.761 C22.604,54.397 30.837,49.626 30.837,49.626 L30.837,49.626 Z" fill="#27AAE1"></path>
                    <path d="M29.569,9.849 L23.343,14.28 L24.793,29.522 L38.717,35.887 L44.953,31.45 C50.919,27.204 52.315,18.928 48.07,12.96 C43.826,6.994 35.547,5.597 29.58,9.842 C29.577,9.844 29.574,9.848 29.569,9.849 L29.569,9.849 Z" fill="#FFFFFF"></path>
                </g>
            </g>
            <path d="M64.382,108.15 C64.547,105.94 64.306,104.303 63.045,102.724 C61.585,100.894 59.901,100.564 58.197,101.925 C54.352,104.991 62.463,113.946 55.517,119.487 C52.139,122.183 48.119,122.295 44.591,119.274 L40.996,122.143 L38.547,119.075 L42.02,116.306 C40.584,114 39.641,110.845 39.818,108.015 L44.495,107.581 C44.524,110.351 45.058,112.611 46.469,114.378 C48.2,116.549 49.953,116.774 51.721,115.363 C55.905,112.024 48.014,102.898 54.492,97.727 C57.873,95.031 61.803,95.19 65.021,97.951 L68.618,95.082 L71.066,98.15 L67.532,100.97 C69.003,103.448 69.149,105.922 68.817,108.367 L64.382,108.15 L64.382,108.15 Z" id="Shape" fill="#FFFFFF" sketch:type="MSShapeGroup" mask="url(#mask-2)"></path>
        </g>
    </g>
</svg>