<?xml version="1.0" encoding="UTF-8" standalone="no"?>
<svg width="368px" height="234px" viewBox="0 0 368 234" version="1.1" xmlns="http://www.w3.org/2000/svg" xmlns:xlink="http://www.w3.org/1999/xlink" xmlns:sketch="http://www.bohemiancoding.com/sketch/ns">
    <!-- Generator: Sketch 3.3.2 (12043) - http://www.bohemiancoding.com/sketch -->
    <title>cash002</title>
    <desc>Created with Sketch.</desc>
    <defs>
        <path id="path-1" d="M367.581,141.85 C337.63,117.82 297.149,96.992 255.769,88.509 C170.39,71.006 114.644,0.695 114.644,0.695 L0.131,92.627 C0.131,92.627 55.876,162.939 141.257,180.442 C182.637,188.924 223.117,209.752 253.068,233.784 L367.581,141.85 Z"></path>
    </defs>
    <g id="Page-1" stroke="none" stroke-width="1" fill="none" fill-rule="evenodd" sketch:type="MSPage">
        <g id="cash002" sketch:type="MSLayerGroup">
            <g id="Shape">
                <mask id="mask-2" sketch:name="Mask" fill="white">
                    <use xlink:href="#path-1"></use>
                </mask>
                <use id="Mask" fill="#1C75BC" sketch:type="MSShapeGroup" xlink:href="#path-1"></use>
                <circle id="Oval" fill="#E5A1B9" sketch:type="MSShapeGroup" mask="url(#mask-2)" cx="178.16" cy="125.01" r="52.294"></circle>
                <path d="M110.91,150.404 C110.797,150.408 110.683,150.414 110.569,150.422 L110.567,150.422 C103.168,150.826 95.838,153.566 89.765,158.747 C75.043,171.305 73.286,193.419 85.844,208.141 C98.401,222.864 120.516,224.62 135.239,212.062 C141.313,206.883 145.176,200.078 146.741,192.836 L146.741,192.836 L146.742,192.834 C146.766,192.722 146.792,192.611 146.813,192.498 C147.264,190.533 150.057,180.29 160.741,171.753 C161.361,171.33 161.967,170.871 162.552,170.372 C164.307,169.109 165.367,167.903 165.896,166.763 C171.514,159.075 171.357,148.27 164.908,140.708 C158.459,133.147 147.814,131.288 139.336,135.623 C138.126,135.963 136.768,136.821 135.244,138.354 C134.66,138.853 134.11,139.379 133.595,139.924 C123.479,149.126 112.922,150.268 110.91,150.404 L110.91,150.404 Z" fill="#6E5CA8" sketch:type="MSShapeGroup" mask="url(#mask-2)"></path>
            </g>
            <path d="M52.863,90.211 C52.95,87.996 52.655,86.368 51.341,84.833 C49.82,83.054 48.124,82.783 46.468,84.2 C42.731,87.397 51.141,96.067 44.392,101.844 C41.107,104.654 37.094,104.904 33.466,102.007 L29.972,104.997 L27.418,102.013 L30.793,99.126 C29.28,96.872 28.229,93.752 28.309,90.918 L32.969,90.324 C33.091,93.09 33.704,95.332 35.174,97.048 C36.979,99.158 38.738,99.324 40.454,97.853 C44.522,94.372 36.321,85.521 42.621,80.132 C45.905,77.323 49.842,77.348 53.152,79.995 L56.646,77.004 L59.199,79.987 L55.763,82.926 C57.318,85.353 57.549,87.819 57.301,90.274 L52.863,90.211 L52.863,90.211 Z" id="Shape" fill="#FFFFFF" sketch:type="MSShapeGroup"></path>
            <g id="Group" transform="translate(166.000000, 102.000000)" sketch:type="MSShapeGroup">
                <g>
                    <path d="M20.878,33.778 L25.166,28.917 L21.03,16.605 L8.3,14.029 L4.003,18.898 C-0.107,23.556 0.335,30.664 4.992,34.776 C9.65,38.886 16.759,38.443 20.869,33.786 C20.872,33.783 20.874,33.78 20.878,33.778 L20.878,33.778 Z" id="Shape" fill="#FFD100"></path>
                    <g transform="translate(5.000000, 0.000000)" id="Oval" fill="#FFFFFF">
                        <circle cx="10.321" cy="9.6" r="9.441"></circle>
                        <circle cx="23.759" cy="21.802" r="9.44"></circle>
                    </g>
                    <circle id="Oval" fill="#FFFFFF" cx="27.142" cy="10.08" r="9.941"></circle>
                    <g transform="translate(0.000000, 10.000000)" id="Shape" fill="#FFFFFF">
                        <path d="M21.035,27.248 C20.386,27.962 19.278,28.016 18.564,27.367 L18.564,27.367 C17.849,26.718 17.794,25.61 18.444,24.896 L25.051,17.62 C25.7,16.905 26.807,16.852 27.522,17.502 L27.522,17.502 C28.239,18.15 28.291,19.257 27.642,19.973 L21.035,27.248 L21.035,27.248 Z"></path>
                        <path d="M3.278,11.125 C2.629,11.839 1.522,11.893 0.806,11.243 L0.806,11.243 C0.091,10.593 0.037,9.487 0.689,8.771 L7.294,1.496 C7.941,0.781 9.049,0.727 9.765,1.376 L9.765,1.376 C10.481,2.028 10.534,3.132 9.883,3.847 L3.278,11.125 L3.278,11.125 Z"></path>
                    </g>
                </g>
            </g>
        </g>
    </g>
</svg>