<?xml version="1.0" encoding="UTF-8" standalone="no"?>
<svg width="538px" height="437px" viewBox="0 0 538 437" version="1.1" xmlns="http://www.w3.org/2000/svg" xmlns:xlink="http://www.w3.org/1999/xlink" xmlns:sketch="http://www.bohemiancoding.com/sketch/ns">
    <!-- Generator: Sketch 3.3.2 (12043) - http://www.bohemiancoding.com/sketch -->
    <title>catalog</title>
    <desc>Created with Sketch.</desc>
    <defs></defs>
    <g id="Page-1" stroke="none" stroke-width="1" fill="none" fill-rule="evenodd" sketch:type="MSPage">
        <g id="catalog" sketch:type="MSLayerGroup" fill="#000000">
            <path d="M361.297,433.981 L335.341,408.025 L340.997,402.369 L361.297,422.667 L525.825,258.139 L279.541,11.854 L256.172,35.223 L250.516,29.566 L279.541,0.54 L282.369,3.369 L537.14,258.139 L361.297,433.981 Z" id="Shape" sketch:type="MSShapeGroup"></path>
            <path d="M311.971,437.052 L282.054,407.133 L287.71,401.477 L311.971,425.737 L476.499,261.203 L230.213,14.921 L205.948,39.184 L200.292,33.527 L230.213,3.606 L233.041,6.435 L487.813,261.203 L311.971,437.052 Z" id="Shape" sketch:type="MSShapeGroup"></path>
            <path d="M257.787,437.052 L254.959,434.223 L0.185,179.444 L176.028,3.607 L178.856,6.436 L433.63,261.204 L257.787,437.052 L257.787,437.052 Z M11.499,179.443 L257.787,425.737 L422.315,261.203 L176.027,14.921 L11.499,179.443 L11.499,179.443 Z" id="Shape" sketch:type="MSShapeGroup"></path>
            <path d="M73.19,250.68 C72.656,250.68 72.117,250.573 71.606,250.353 C70.101,249.704 69.145,248.202 69.193,246.563 L73.314,106.032 C73.361,104.436 74.352,103.021 75.835,102.431 C77.319,101.844 79.011,102.192 80.14,103.321 L148.343,171.524 C149.905,173.086 149.905,175.619 148.343,177.18 L76.019,249.508 C75.254,250.273 74.23,250.68 73.19,250.68 L73.19,250.68 Z M81.039,115.532 L77.485,236.728 L139.858,174.351 L81.039,115.532 L81.039,115.532 Z" id="Shape" sketch:type="MSShapeGroup"></path>
        </g>
    </g>
</svg>