<?xml version="1.0" encoding="UTF-8" standalone="no"?>
<svg width="600px" height="434px" viewBox="0 0 600 434" version="1.1" xmlns="http://www.w3.org/2000/svg" xmlns:xlink="http://www.w3.org/1999/xlink" xmlns:sketch="http://www.bohemiancoding.com/sketch/ns">
    <!-- Generator: Sketch 3.3.2 (12043) - http://www.bohemiancoding.com/sketch -->
    <title>company</title>
    <desc>Created with Sketch.</desc>
    <defs></defs>
    <g id="Page-1" stroke="none" stroke-width="1" fill="none" fill-rule="evenodd" sketch:type="MSPage">
        <g id="company" sketch:type="MSLayerGroup" fill="#000000">
            <g id="Group" transform="translate(110.000000, 104.000000)" sketch:type="MSShapeGroup">
                <g transform="translate(0.000000, 48.000000)" id="Shape">
                    <path d="M338.991,90.584 C342.9,86.498 346.398,81.717 348.355,76.408 C354.754,59.035 349.269,53.049 345.886,50.068 C342.501,47.088 334.357,46.013 325.074,59.547 C315.797,73.08 320.225,85.865 320.225,85.865 C320.133,85.945 320.045,86.023 319.957,86.103 C314.535,90.847 310.618,92.412 307.799,92.318 C299.682,90.13 301.431,79.267 301.878,77.033 C308.145,49.17 326.054,47.756 329.606,47.756 C329.606,47.756 332.311,43.547 343.081,43.002 L342.728,42.246 C334.379,25.225 315.972,33.558 315.972,33.558 C302.256,37.886 294.11,48.124 289.279,58.29 C288.903,59.11 278.9,81.065 287.846,97.062 C299.241,113.546 319.041,105.55 319.041,105.55 C319.041,105.55 324.219,102.886 330.339,98.23 C335.425,101.638 342.803,104.13 353.301,102.976 C353.303,102.977 346.072,100.873 338.991,90.584 L338.991,90.584 Z M333.935,77.168 L332.597,78.322 C332.597,78.322 332.227,63.289 338.754,65.836 C345.286,68.383 333.935,77.168 333.935,77.168 L333.935,77.168 Z"></path>
                    <path d="M484.414,54.068 C481.048,51.164 472.953,50.119 463.728,63.298 C456.851,73.122 457.548,82.536 458.35,86.696 L458.346,86.696 L458.352,86.718 C458.397,86.954 458.442,87.15 458.487,87.351 C458.57,87.744 458.679,88.314 458.807,89.017 C458.749,89.064 458.691,89.115 458.64,89.162 C451.301,95.455 446.742,95.998 443.921,94.545 L443.919,94.543 C439.318,91.143 440.053,83.766 440.224,82.438 C440.704,80.003 441.282,77.778 441.928,75.713 C452.474,41.387 425.047,42.764 425.047,42.764 C425.047,42.764 427.116,56.752 423.335,67.483 C423.265,67.661 423.2,67.838 423.138,68.016 C423.05,68.245 422.968,68.475 422.876,68.7 C422.364,69.958 422.056,71.042 421.892,71.987 C420.294,78.155 420.096,84.323 421.255,89.901 C421.248,89.903 421.244,89.903 421.237,89.905 C414.192,92.421 414.135,88.688 414.323,87.343 C414.35,87.189 414.372,87.04 414.407,86.88 C416.956,76.857 418.985,66.962 418.216,52.946 C412.331,25.801 380.893,40.794 380.893,40.794 C379.718,41.591 378.626,42.444 377.615,43.335 C377.786,42.749 377.955,42.163 378.119,41.585 C380.693,25.733 363.353,28.987 363.353,28.987 L363.351,28.981 C362.941,31.749 362.423,34.745 361.749,37.985 C357.825,56.854 351.809,68.862 353.64,92.592 C354.515,103.907 361.509,108.391 369.839,108.69 C368.08,100.061 368.343,89.274 368.778,82.463 C368.788,80.475 368.994,78.246 369.348,75.84 L369.35,75.832 C370.012,71.377 371.193,66.315 372.58,61.068 C374.062,63.373 375.946,64.64 375.946,64.64 C375.946,64.64 377.625,59.273 383.306,55.23 C383.401,55.185 402.618,46.023 402.634,65.044 C402.249,68.364 401.518,72.095 400.589,76.034 L400.591,76.034 C400.591,76.034 397.808,88.886 399.54,96.384 C401.521,100.575 405.419,104.847 413.108,105.417 C413.108,105.417 418.616,105.974 426.649,101.839 C426.653,101.837 426.657,101.835 426.661,101.833 C427.873,103.362 429.244,104.765 430.808,105.983 C438.954,112.325 449.983,112.54 460.147,107.708 C460.047,109.196 459.885,110.671 459.637,112.089 C459.563,112.464 459.483,112.839 459.4,113.216 C427.667,126.255 421.254,134.63 421.254,134.63 L421.268,134.63 C416.745,139.101 412.532,145.194 411.436,151.97 C410.143,159.97 415.248,164.355 419.178,166.499 C419.201,166.626 419.237,166.749 419.262,166.876 C420.473,167.401 421.754,167.831 423.092,168.169 C423.24,168.214 423.343,168.243 423.343,168.243 L423.354,168.225 C432.583,170.461 444.437,168.25 455.151,160.432 C462.544,155.037 469.346,144.649 474.204,132.512 C474.249,132.393 474.329,132.157 474.434,131.832 C474.44,131.816 474.446,131.801 474.451,131.787 C474.782,130.773 475.365,128.851 475.959,126.176 C478.495,113.028 476.648,94.426 476.648,94.426 C480.897,90.256 484.77,85.289 486.866,79.719 C493.23,62.801 487.774,56.971 484.414,54.068 L484.414,54.068 Z M434.549,152.453 C434.549,152.453 416.943,144.588 456.425,124.502 C451.512,140.279 443.479,155.332 434.549,152.453 L434.549,152.453 Z M472.53,80.459 L472.35,80.615 C472.333,80.535 472.32,80.467 472.307,80.39 C472.123,79.37 471.49,75.068 472.996,71.212 L472.996,71.21 C473.906,69.571 475.268,68.638 477.325,69.425 C483.812,71.904 472.53,80.459 472.53,80.459 L472.53,80.459 Z"></path>
                    <path d="M257.021,36.178 C256.841,36.178 256.666,36.19 256.488,36.194 C252.668,35.887 249.201,36.208 246.017,37.005 L246.032,36.97 C235.093,38.706 227.1,47.384 221.36,59.427 C218.408,44.796 215.696,36.179 215.696,36.179 C214.129,30.638 201.25,37.368 201.25,37.368 C201.25,37.368 207.243,58.598 212.905,85.858 C212.157,89.42 211.509,93.046 210.96,96.682 C209.862,97.744 208.415,98.911 206.492,100.086 C203.269,102.057 201.411,101.133 200.348,99.682 C200.315,99.645 200.288,99.598 200.257,99.555 C200.153,99.403 200.053,99.243 199.963,99.082 C199.046,97.256 199.372,94.014 199.608,92.453 C201.719,80.156 204.896,65.678 203.784,54.85 C202.707,44.35 196.692,41.452 190.761,41.262 C183.816,40.883 177.789,43.285 174.916,44.688 L174.039,44.885 C169.285,38.639 160.508,40.037 155.438,41.545 C153.696,31.315 139.475,33.865 139.475,33.865 L139.473,33.859 C139.033,36.705 138.474,39.783 137.75,43.113 C135.876,51.73 133.564,58.957 131.739,66.465 L131.739,66.461 C128.898,71.137 125.959,73.416 123.236,74.33 C134.438,41.076 103.858,32.312 97.99,51.834 C91.879,72.154 102.69,83.135 102.69,83.135 C101.437,90.018 82.479,106.897 81.541,80.022 C80.599,53.145 95.953,46.262 95.953,46.262 C100.809,37.905 108.173,36.92 108.173,36.92 C102.691,29.709 94.23,31.676 94.23,31.676 C63.054,40.197 63.208,76.088 63.208,76.088 C63.208,76.088 63.11,78.83 63.638,82.768 C49.525,94.385 36.89,91.493 36.89,91.493 C4.458,82.97 29.996,16.436 47.072,17.093 C64.151,17.747 49.738,43.804 49.738,43.804 C49.738,43.804 66.657,48.066 71.514,35.775 C76.37,23.484 76.213,-1.59 51.618,0.213 C27.019,2.016 1.953,25.451 0.855,78.057 C-0.226,129.973 57.739,108.467 68.595,97.973 C71.857,103.516 77.077,108.411 85.457,110.176 C105.599,114.418 114.654,96.711 116.761,91.77 C120.282,92.547 124.309,92.504 128.683,90.809 C128.693,93.463 128.803,96.26 129.044,99.237 C129.981,110.866 137.493,115.475 146.439,115.78 C144.553,106.915 144.833,95.829 145.303,88.829 C145.312,86.784 145.534,84.495 145.915,82.022 L145.915,82.014 C147.309,73.047 150.818,61.7 154.012,51.192 C154.409,50.204 155.598,48.491 158.829,50.325 C158.843,50.333 158.853,50.341 158.866,50.348 C159.178,50.567 161.479,52.481 162.227,62.332 C162.301,68.238 161.584,76.17 159.662,86.789 C159.662,86.789 155.825,103.187 160.358,111.131 L160.345,111.127 C160.345,111.127 160.558,111.559 161.033,112.176 C161.077,112.235 161.124,112.289 161.166,112.346 C161.288,112.496 161.424,112.655 161.577,112.823 C161.681,112.936 161.788,113.05 161.901,113.157 C163.892,115.147 168.007,117.651 175.353,115.942 C164.287,112.139 179.383,75.594 177.153,53.862 C177.103,53.366 177.038,52.893 176.964,52.432 L176.97,52.438 C176.97,52.438 180.637,49.63 184.071,50.333 C184.071,50.333 187.383,51.505 188.799,61.317 C189.083,67.397 188.444,75.909 186.294,87.782 C186.294,87.782 185.874,89.579 185.476,92.262 L185.478,92.262 L185.476,92.266 C185.401,92.776 185.327,93.317 185.256,93.885 C185.05,96.119 185.045,100.285 187.069,103.959 L187.062,103.955 C187.062,103.955 189.694,111.266 200.708,111.902 C201.911,112.033 203.171,112.043 204.477,111.884 L204.478,111.884 C206.035,111.698 207.651,111.261 209.292,110.517 C208.31,121.294 208.062,131.621 208.3,140.162 C209.004,165.408 216.61,170.607 220.647,171.578 C221.115,171.715 221.404,171.73 221.404,171.73 C221.993,171.925 222.578,171.896 223.134,171.73 C240.422,170.127 226.607,93.601 226.607,93.601 L226.607,93.607 C226.34,91.117 226.055,88.687 225.755,86.32 C227.715,79.191 230.241,71.881 233.478,64.519 C235.614,60.035 241.457,50.228 251.976,49.341 C259.401,49.507 267.137,53.226 265.029,68.9 C263.015,83.886 254.727,89.847 247.232,93.418 C240.093,96.674 229.656,98.387 229.656,98.387 L231.151,107.547 L233.21,107.694 L236.166,107.635 C298.275,100.676 280.404,36.178 257.021,36.178 L257.021,36.178 Z M113.844,66.418 C112.913,69.639 111.698,71.127 111.698,71.127 C111.698,71.127 108.329,68.385 108.802,62.815 C108.802,59.827 110.099,57.405 111.698,57.405 C113.299,57.405 114.596,59.827 114.596,62.815 C114.596,64.203 114.307,65.461 113.844,66.418 L113.844,66.418 Z M222.265,149.24 C222.265,149.824 221.814,150.297 221.256,150.297 C220.877,150.297 220.563,150.07 220.39,149.748 C219.753,143.09 219.348,134.613 219.766,124.92 C220.912,133.24 221.797,141.488 222.302,149.346 L222.265,149.24 L222.265,149.24 Z"></path>
                </g>
                <g transform="translate(101.000000, 0.000000)" id="Shape">
                    <path d="M88.069,55.443 C90.286,53.269 92.266,50.728 93.374,47.904 C96.997,38.662 93.89,35.478 91.976,33.892 C90.06,32.308 85.447,31.736 80.197,38.935 C74.943,46.134 77.451,52.933 77.451,52.933 C77.4,52.976 77.351,53.017 77.299,53.06 C74.231,55.583 72.016,56.415 70.416,56.367 C65.824,55.203 66.812,49.424 67.068,48.236 C70.615,33.416 80.752,32.664 82.763,32.664 C82.763,32.664 84.29,30.424 90.388,30.135 L90.189,29.731 C85.464,20.68 75.044,25.112 75.044,25.112 C67.28,27.415 62.667,32.86 59.935,38.266 C59.722,38.704 54.058,50.381 59.123,58.891 C65.574,67.659 76.781,63.407 76.781,63.407 C76.781,63.407 79.713,61.989 83.177,59.512 C86.054,61.324 90.23,62.651 96.177,62.035 C96.177,62.035 92.081,60.918 88.069,55.443 L88.069,55.443 Z M87.937,42.279 C91.636,43.634 85.212,48.306 85.212,48.306 L84.452,48.921 C84.452,48.922 84.243,40.926 87.937,42.279 L87.937,42.279 Z"></path>
                    <path d="M157.198,62.811 C157.198,62.811 153.106,61.692 149.096,56.219 C151.311,54.045 153.289,51.502 154.399,48.678 C158.02,39.436 154.919,36.252 153.003,34.668 C151.085,33.082 146.476,32.51 141.224,39.709 C135.97,46.908 138.476,53.709 138.476,53.709 C138.423,53.75 138.376,53.793 138.326,53.834 C135.256,56.359 133.041,57.189 131.445,57.139 C126.849,55.977 127.84,50.2 128.093,49.01 C131.636,34.19 141.777,33.438 143.786,33.438 C143.786,33.438 145.319,31.2 151.415,30.909 L151.216,30.507 C146.491,21.454 136.07,25.886 136.07,25.886 C128.306,28.189 123.695,33.634 120.963,39.042 C120.83,39.308 118.682,43.749 118.164,49.104 C116.424,49.95 114.246,50.596 111.514,50.772 C104.549,51.221 107.147,40.381 110.573,29.276 C110.721,29.278 110.858,29.284 111.011,29.284 C128.613,29.419 122.241,17.249 122.241,17.249 C119.313,19.304 116.143,20.603 113.059,21.405 C113.899,18.723 114.664,16.192 115.203,13.993 C117.268,5.571 115.17,2.042 112.908,0.831 C110.533,-0.788 108.107,0.485 107.297,0.831 C106.485,1.181 104.473,1.495 104.473,1.495 L105.311,1.429 C104.799,1.478 104.473,1.495 104.473,1.495 C104.473,1.495 105.145,8.03 102.629,19.093 C102.358,20.288 102.07,21.429 101.777,22.544 C98.449,22.413 96.259,21.942 96.259,21.942 L96.259,23.268 C96.259,23.268 94.839,26.215 100.255,27.985 C98.3,34.827 96.603,41.241 97.433,51.108 C98.386,62.389 110.689,62.096 119.24,57.829 C119.498,58.452 119.793,59.067 120.15,59.665 C126.599,68.435 137.808,64.181 137.808,64.181 C137.808,64.181 140.738,62.763 144.202,60.286 C147.081,62.098 151.257,63.424 157.198,62.811 L157.198,62.811 Z M148.966,43.055 C152.661,44.409 146.236,49.082 146.236,49.082 L145.48,49.695 C145.479,49.695 145.269,41.699 148.966,43.055 L148.966,43.055 Z"></path>
                    <path d="M5.903,4.994 C5.903,4.994 7.122,11.258 15.282,12.127 C17.589,12.373 20.852,12.316 24.458,12.385 C24.417,12.442 24.37,12.492 24.329,12.551 C23.143,14.285 21.981,16.229 20.854,18.297 L20.854,18.293 C20.747,18.49 20.641,18.691 20.536,18.891 C20.354,19.227 20.177,19.565 19.999,19.907 C19.864,20.171 19.728,20.434 19.593,20.698 C19.468,20.944 19.343,21.19 19.222,21.438 C19.093,21.688 18.972,21.936 18.847,22.188 C18.665,22.563 18.48,22.938 18.302,23.317 C18.169,23.588 18.042,23.858 17.911,24.129 C17.792,24.391 17.669,24.65 17.548,24.91 C17.437,25.158 17.321,25.406 17.208,25.652 C17.036,26.029 16.868,26.408 16.696,26.789 C16.565,27.082 16.436,27.375 16.307,27.668 C16.19,27.932 16.075,28.193 15.965,28.455 C15.852,28.707 15.746,28.959 15.639,29.209 C15.494,29.537 15.36,29.865 15.219,30.193 C15.073,30.543 14.926,30.89 14.783,31.238 C14.676,31.492 14.574,31.746 14.471,32 C14.364,32.262 14.256,32.523 14.153,32.785 C14.055,33.023 13.958,33.262 13.866,33.5 C13.692,33.93 13.524,34.355 13.356,34.781 C13.262,35.015 13.172,35.25 13.081,35.484 C12.977,35.754 12.87,36.023 12.77,36.291 C12.682,36.512 12.6,36.73 12.518,36.949 C12.352,37.379 12.19,37.804 12.032,38.224 C11.962,38.421 11.886,38.615 11.813,38.808 C11.706,39.105 11.596,39.4 11.489,39.689 C11.423,39.875 11.354,40.06 11.288,40.242 C11.134,40.666 10.979,41.082 10.831,41.494 C10.778,41.646 10.726,41.793 10.673,41.943 C10.562,42.257 10.45,42.568 10.341,42.877 C10.29,43.022 10.236,43.17 10.185,43.315 C10.042,43.725 9.9,44.129 9.763,44.524 C9.73,44.622 9.699,44.713 9.665,44.811 C9.55,45.141 9.44,45.463 9.333,45.778 C9.294,45.891 9.257,46.003 9.22,46.112 C9.089,46.495 8.964,46.87 8.841,47.229 C8.827,47.276 8.814,47.321 8.796,47.37 C8.685,47.706 8.577,48.03 8.472,48.345 C8.451,48.417 8.423,48.488 8.402,48.558 C8.17,49.257 7.964,49.9 7.777,50.476 C7.763,50.521 7.748,50.568 7.734,50.613 C4.796,59.281 0.175,56.631 0.175,56.631 C0.175,56.631 3.007,61.176 8.81,61.104 C9.253,61.118 9.712,61.118 10.205,61.088 C10.402,61.041 10.601,60.971 10.797,60.916 C10.832,60.908 10.867,60.908 10.901,60.9 L10.895,60.886 C12.473,60.425 14.043,59.714 15.469,58.589 L15.469,58.591 C19.258,56.304 21.219,51.146 22.203,47.179 C22.205,47.179 22.207,47.177 22.209,47.175 C22.211,47.163 22.213,47.15 22.215,47.136 C22.93,44.238 23.121,41.986 23.121,41.986 L23.121,41.986 C25.445,31.103 30.775,17.177 37.205,14.24 C37.205,14.236 37.209,14.23 37.213,14.224 C40.119,15.226 42.924,16.736 45.133,18.968 C46.092,20.05 49.498,24.419 48.916,31.368 C48.238,36.095 46.264,43.585 40.531,48.913 C38.91,50.126 37.263,50.901 35.736,51.075 C30.654,50.764 31.625,46.345 31.625,46.345 C23.475,47.04 24.492,54.247 24.492,54.247 C25.433,57.468 28.09,61.839 35.592,61.009 C35.608,61.007 35.615,61.009 35.629,61.007 C45.576,59.575 56.568,53.152 57.317,31.958 C58.706,-7.266 5.903,4.994 5.903,4.994 L5.903,4.994 Z"></path>
                </g>
            </g>
            <path d="M258.286,433.806 L255.458,430.977 L0.684,176.197 L176.526,0.36 L248.358,72.191 L242.702,77.848 L176.526,11.675 L11.998,176.197 L258.286,422.491 L329.521,351.254 L335.177,356.91 L258.286,433.806 Z" id="Shape" sketch:type="MSShapeGroup"></path>
        </g>
    </g>
</svg>