<?xml version="1.0" encoding="UTF-8" standalone="no"?>
<svg width="435px" height="397px" viewBox="0 0 435 397" version="1.1" xmlns="http://www.w3.org/2000/svg" xmlns:xlink="http://www.w3.org/1999/xlink" xmlns:sketch="http://www.bohemiancoding.com/sketch/ns">
    <!-- Generator: Sketch 3.3.2 (12043) - http://www.bohemiancoding.com/sketch -->
    <title>contact</title>
    <desc>Created with Sketch.</desc>
    <defs></defs>
    <g id="Page-1" stroke="none" stroke-width="1" fill="none" fill-rule="evenodd" sketch:type="MSPage">
        <g id="contact" sketch:type="MSLayerGroup" fill="#000000">
            <path d="M26.571,361.592 C25.75,361.592 24.929,361.34 24.232,360.837 C22.876,359.859 22.271,358.142 22.714,356.53 L41.952,286.629 L22.625,286.629 C10.655,286.629 0.917,276.891 0.917,264.92 L0.917,22.455 C0.917,10.488 10.655,0.752 22.625,0.752 L374.807,0.752 C386.779,0.752 396.518,10.488 396.518,22.455 L396.518,138.69 C396.518,140.899 394.727,142.69 392.518,142.69 C390.309,142.69 388.518,140.899 388.518,138.69 L388.518,22.455 C388.518,14.899 382.368,8.752 374.807,8.752 L22.625,8.752 C15.066,8.752 8.917,14.899 8.917,22.455 L8.917,264.92 C8.917,272.48 15.066,278.629 22.625,278.629 L47.202,278.629 C48.45,278.629 49.627,279.212 50.384,280.205 C51.141,281.197 51.39,282.486 51.059,283.69 L33.283,348.278 L136.207,279.305 C136.865,278.864 137.641,278.628 138.434,278.628 L220.72,278.628 C222.929,278.628 224.72,280.419 224.72,282.628 C224.72,284.837 222.929,286.628 220.72,286.628 L139.65,286.628 L28.798,360.914 C28.124,361.366 27.347,361.592 26.571,361.592 L26.571,361.592 Z" id="Shape" sketch:type="MSShapeGroup"></path>
            <path d="M430.115,396.84 C429.339,396.84 428.562,396.615 427.888,396.163 L341.168,338.047 L238.43,338.047 C226.459,338.047 216.721,328.31 216.721,316.34 L216.721,156.396 C216.721,144.426 226.459,134.689 238.43,134.689 L410.489,134.689 C422.459,134.689 432.196,144.426 432.196,156.396 L432.196,316.34 C432.196,325.266 426.736,333.136 418.736,336.418 L433.972,391.778 C434.415,393.389 433.81,395.107 432.454,396.085 C431.757,396.588 430.937,396.84 430.115,396.84 L430.115,396.84 Z M238.43,142.69 C230.87,142.69 224.721,148.839 224.721,156.397 L224.721,316.34 C224.721,323.898 230.87,330.047 238.43,330.047 L342.386,330.047 C343.179,330.047 343.954,330.282 344.613,330.724 L423.404,383.527 L409.988,334.783 C409.692,333.707 409.858,332.556 410.448,331.609 C411.037,330.661 411.996,330.003 413.092,329.793 C419.527,328.56 424.196,322.902 424.196,316.341 L424.196,156.396 C424.196,148.838 418.047,142.689 410.489,142.689 L238.43,142.689 L238.43,142.69 Z" id="Shape" sketch:type="MSShapeGroup"></path>
            <path d="M90.005,109.012 C73.781,109.012 60.582,95.815 60.582,79.594 C60.582,63.369 73.781,50.17 90.005,50.17 C106.23,50.17 119.429,63.369 119.429,79.594 C119.429,95.815 106.229,109.012 90.005,109.012 L90.005,109.012 Z M90.005,58.17 C78.193,58.17 68.582,67.78 68.582,79.594 C68.582,91.404 78.192,101.012 90.005,101.012 C101.818,101.012 111.429,91.404 111.429,79.594 C111.429,67.78 101.818,58.17 90.005,58.17 L90.005,58.17 Z" id="Shape" sketch:type="MSShapeGroup"></path>
            <path d="M356.932,252.902 C345.429,252.902 336.072,243.542 336.072,232.037 C336.072,220.534 345.429,211.176 356.932,211.176 C368.435,211.176 377.793,220.534 377.793,232.037 C377.793,243.542 368.435,252.902 356.932,252.902 L356.932,252.902 Z M356.932,219.176 C349.841,219.176 344.072,224.946 344.072,232.037 C344.072,239.131 349.842,244.902 356.932,244.902 C364.024,244.902 369.793,239.131 369.793,232.037 C369.793,224.945 364.023,219.176 356.932,219.176 L356.932,219.176 Z" id="Shape" sketch:type="MSShapeGroup"></path>
            <path d="M299.993,109.012 C283.77,109.012 270.572,95.815 270.572,79.594 C270.572,63.369 283.77,50.17 299.993,50.17 C316.218,50.17 329.418,63.369 329.418,79.594 C329.418,95.815 316.218,109.012 299.993,109.012 L299.993,109.012 Z M299.993,58.17 C288.181,58.17 278.572,67.78 278.572,79.594 C278.572,91.404 288.181,101.012 299.993,101.012 C311.806,101.012 321.418,91.404 321.418,79.594 C321.418,67.78 311.807,58.17 299.993,58.17 L299.993,58.17 Z" id="Shape" sketch:type="MSShapeGroup"></path>
            <path d="M195,109.012 C178.777,109.012 165.579,95.815 165.579,79.594 C165.579,63.369 178.777,50.17 195,50.17 C211.226,50.17 224.426,63.369 224.426,79.594 C224.426,95.815 211.226,109.012 195,109.012 L195,109.012 Z M195,58.17 C183.188,58.17 173.579,67.78 173.579,79.594 C173.579,91.404 183.188,101.012 195,101.012 C206.814,101.012 216.426,91.404 216.426,79.594 C216.426,67.78 206.814,58.17 195,58.17 L195,58.17 Z" id="Shape" sketch:type="MSShapeGroup"></path>
            <path d="M293.907,252.902 C282.406,252.902 273.049,243.542 273.049,232.037 C273.049,220.534 282.406,211.176 293.907,211.176 C305.408,211.176 314.765,220.534 314.765,232.037 C314.766,243.542 305.408,252.902 293.907,252.902 L293.907,252.902 Z M293.907,219.176 C286.817,219.176 281.049,224.946 281.049,232.037 C281.049,239.131 286.818,244.902 293.907,244.902 C300.996,244.902 306.765,239.131 306.765,232.037 C306.766,224.945 300.997,219.176 293.907,219.176 L293.907,219.176 Z" id="Shape" sketch:type="MSShapeGroup"></path>
        </g>
    </g>
</svg>