<?xml version="1.0" encoding="UTF-8" standalone="no"?>
<svg width="434px" height="434px" viewBox="0 0 434 434" version="1.1" xmlns="http://www.w3.org/2000/svg" xmlns:xlink="http://www.w3.org/1999/xlink" xmlns:sketch="http://www.bohemiancoding.com/sketch/ns">
    <!-- Generator: Sketch 3.3.2 (12043) - http://www.bohemiancoding.com/sketch -->
    <title>download</title>
    <desc>Created with Sketch.</desc>
    <defs></defs>
    <g id="Page-1" stroke="none" stroke-width="1" fill="none" fill-rule="evenodd" sketch:type="MSPage">
        <g id="download" sketch:type="MSLayerGroup" fill="#000000">
            <path d="M203.604,406.604 C191.711,406.604 179.764,405.561 167.875,403.46 C126.754,396.194 89.355,376.691 59.722,347.059 C21.345,308.682 0.209,257.658 0.209,203.384 C0.209,149.111 21.345,98.086 59.722,59.709 C98.099,21.33 149.125,0.194 203.399,0.194 C257.673,0.194 308.697,21.33 347.072,59.709 C376.707,89.342 396.211,126.739 403.476,167.86 C410.577,208.053 405.592,248.927 389.061,286.066 L381.752,282.812 C414.384,209.505 398.173,122.12 341.415,65.365 C304.55,28.498 255.535,8.194 203.398,8.194 C151.261,8.194 102.245,28.498 65.378,65.365 C28.511,102.231 8.208,151.247 8.208,203.384 C8.208,255.521 28.511,304.536 65.378,341.402 C122.135,398.157 209.519,414.367 282.825,381.74 L286.078,389.049 C259.928,400.689 231.921,406.604 203.604,406.604 L203.604,406.604 Z" id="Shape" sketch:type="MSShapeGroup"></path>
            <path d="M162.46,269.048 L137.735,244.32 L244.339,137.721 L269.063,162.443 L162.46,269.048 L162.46,269.048 Z M149.048,244.32 L162.46,257.733 L257.749,162.443 L244.339,149.034 L149.048,244.32 L149.048,244.32 Z" id="Shape" sketch:type="MSShapeGroup"></path>
            <path d="M274.618,433.398 C273.173,433.398 271.811,432.612 271.102,431.303 C270.259,429.746 270.539,427.822 271.79,426.57 L295.883,402.474 L179.821,286.415 C178.259,284.853 178.259,282.32 179.821,280.759 L280.77,179.804 C281.52,179.054 282.538,178.632 283.599,178.632 C284.66,178.632 285.677,179.054 286.428,179.804 L402.489,295.869 L426.579,271.782 C427.831,270.529 429.758,270.25 431.312,271.094 C432.869,271.937 433.686,273.702 433.321,275.435 L406.403,403.298 C406.077,404.849 404.865,406.062 403.313,406.388 L275.444,433.312 C275.168,433.371 274.892,433.398 274.618,433.398 L274.618,433.398 Z M188.306,283.588 L304.368,399.647 C305.93,401.209 305.93,403.742 304.368,405.303 L286.961,422.712 L399.111,399.098 L422.72,286.953 L405.316,304.355 C403.755,305.917 401.22,305.917 399.66,304.355 L283.599,188.29 L188.306,283.588 L188.306,283.588 Z" id="Shape" sketch:type="MSShapeGroup"></path>
            <path d="M124.323,230.91 L99.6,206.19 L206.204,99.583 L230.93,124.31 L124.323,230.91 L124.323,230.91 Z M110.914,206.19 L124.324,219.598 L219.617,124.311 L206.204,110.898 L110.914,206.19 L110.914,206.19 Z" id="Shape" sketch:type="MSShapeGroup"></path>
            <path d="M86.347,192.937 L61.624,168.205 L168.226,61.603 L192.95,86.331 L86.347,192.937 L86.347,192.937 Z M72.937,168.206 L86.349,181.622 L181.637,86.33 L168.226,72.917 L72.937,168.206 L72.937,168.206 Z" id="Shape" sketch:type="MSShapeGroup"></path>
        </g>
    </g>
</svg>