<?xml version="1.0" encoding="UTF-8" standalone="no"?>
<svg width="401px" height="565px" viewBox="0 0 401 565" version="1.1" xmlns="http://www.w3.org/2000/svg" xmlns:xlink="http://www.w3.org/1999/xlink" xmlns:sketch="http://www.bohemiancoding.com/sketch/ns">
    <!-- Generator: Sketch 3.3.2 (12043) - http://www.bohemiancoding.com/sketch -->
    <title>house_all</title>
    <desc>Created with Sketch.</desc>
    <defs></defs>
    <g id="Page-1" stroke="none" stroke-width="1" fill="none" fill-rule="evenodd" sketch:type="MSPage">
        <g id="house_all" sketch:type="MSLayerGroup">
            <g id="Group" sketch:type="MSShapeGroup">
                <path d="M26.78,0.589 C42.741,10.148 53.429,27.608 53.429,47.566 C53.429,67.525 42.741,84.985 26.78,94.544 C10.818,104.104 0.132,121.564 0.132,141.522 C0.132,161.481 10.819,178.941 26.78,188.5 L26.78,188.998 C42.741,198.558 53.429,216.017 53.429,235.976 C53.429,255.935 42.741,273.396 26.78,282.954 C10.818,292.514 0.132,309.974 0.132,329.931 C0.132,349.892 10.819,367.351 26.78,376.91 C42.741,386.468 53.429,403.929 53.429,423.888 C53.429,443.846 42.741,461.306 26.78,470.865 C10.818,480.425 0.132,497.885 0.132,517.844 C0.132,537.802 10.819,555.263 26.78,564.821 L298.742,564.821 C282.78,555.263 272.094,537.803 272.094,517.844 C272.094,497.885 282.781,480.425 298.742,470.865 C314.703,461.305 325.39,443.846 325.39,423.888 C325.39,403.93 314.702,386.469 298.742,376.91 C282.78,367.35 272.094,349.891 272.094,329.932 C272.094,309.974 282.781,292.513 298.742,282.954 C314.703,273.396 325.39,255.935 325.39,235.976 C325.39,216.017 314.702,198.557 298.742,188.998 L298.742,188.5 C282.78,178.941 272.094,161.481 272.094,141.522 C272.094,121.564 282.781,104.104 298.742,94.544 C314.703,84.985 325.39,67.525 325.39,47.566 C325.39,27.608 314.702,10.148 298.742,0.589 L26.78,0.589 L26.78,0.589 Z" id="Shape" fill="#E5A1B9"></path>
                <g transform="translate(25.000000, 132.000000)" id="Shape" fill="#DD7575">
                    <path d="M41.384,43.342 C28.872,33.391 20.816,18.078 20.698,0.877 L0.014,0.877 C0.131,18.078 8.186,33.391 20.698,43.342 L41.384,43.342 L41.384,43.342 Z"></path>
                    <path d="M89.628,43.342 C77.117,33.391 69.063,18.078 68.944,0.877 L48.258,0.877 C48.376,18.078 56.431,33.391 68.944,43.342 L89.628,43.342 L89.628,43.342 Z"></path>
                    <path d="M137.874,43.342 C125.361,33.391 117.307,18.078 117.189,0.877 L96.504,0.877 C96.62,18.078 104.676,33.391 117.189,43.342 L137.874,43.342 L137.874,43.342 Z"></path>
                </g>
            </g>
            <path d="M99.053,483.445 L334.499,433.95 L345.468,386.227 L76.386,392.199 L99.053,483.445 Z" id="Shape" fill="#FFD100" sketch:type="MSShapeGroup"></path>
            <path d="M107.261,414.835 L113.581,446.722 L159.545,441.551 L156.386,414.835 L107.261,414.835 Z" id="Shape" fill="#FFFFFF" sketch:type="MSShapeGroup"></path>
            <g id="Group" transform="translate(104.000000, 427.000000)" fill="#FFD100" sketch:type="MSShapeGroup">
                <path d="M0.243,6.132 L61.188,1.767" id="Shape"></path>
                <rect id="Rectangle-path" transform="translate(30.730801, 3.995095) rotate(85.934385) translate(-30.730801, -3.995095) " x="29.7532853" y="-26.5554096" width="1.95503232" height="61.10101"></rect>
            </g>
            <g id="Group" transform="translate(132.000000, 412.000000)" fill="#FFD100" sketch:type="MSShapeGroup">
                <path d="M1.193,0.947 L4.239,38.7" id="Shape"></path>
                <rect id="Rectangle-path" transform="translate(2.565261, 19.904320) rotate(85.388614) translate(-2.565261, -19.904320) " x="-16.371943" y="18.9267834" width="37.8744088" height="1.95507272"></rect>
            </g>
            <g id="Group" transform="translate(130.000000, 411.000000)" fill="#FFD100" sketch:type="MSShapeGroup">
                <path d="M1.67,0.232 L4.716,37.983" id="Shape"></path>
                <rect id="Rectangle-path" transform="translate(3.243900, 19.233239) rotate(85.382903) translate(-3.243900, -19.233239) " x="-15.6939568" y="18.2556951" width="37.8757136" height="1.95508845"></rect>
            </g>
            <g id="Group" transform="translate(101.000000, 429.000000)" fill="#FFD100" sketch:type="MSShapeGroup">
                <path d="M0.746,6.087 L61.69,1.722" id="Shape"></path>
                <rect id="Rectangle-path" transform="translate(31.226606, 3.797395) rotate(85.899687) translate(-31.226606, -3.797395) " x="30.2496459" y="-26.7523677" width="1.95392087" height="61.0995256"></rect>
            </g>
            <path d="M56.229,564.821 L399.161,564.821 L335.581,432.046 L97.909,478.946 L56.229,564.821 Z" id="Shape" fill="#27AAE1" sketch:type="MSShapeGroup"></path>
            <path d="M73.982,393.292 C73.503,393.292 73.045,393.097 72.714,392.751 L50.954,370.009 C50.475,369.508 50.336,368.772 50.598,368.131 C50.861,367.49 51.477,367.064 52.168,367.043 L191.957,362.839 C192.936,362.807 193.734,363.571 193.764,364.539 C193.792,365.508 193.031,366.316 192.063,366.345 L56.213,370.43 L74.725,389.777 L162.889,389.067 L162.904,389.067 C163.866,389.067 164.65,389.843 164.658,390.807 C164.666,391.776 163.887,392.567 162.918,392.575 L73.996,393.291 C73.991,393.292 73.987,393.292 73.982,393.292 L73.982,393.292 Z" id="Shape" fill="#BE1E2D" sketch:type="MSShapeGroup"></path>
            <path d="M300.9,516.8 C300.9,516.8 303.634,513.941 306.122,515.936 C308.609,517.929 306.951,520.307 303.511,520.397 C300.072,520.488 298.376,520.188 300.724,517.064 L300.9,516.8 L300.9,516.8 Z" id="Shape" fill="#FFFFFF" sketch:type="MSShapeGroup"></path>
            <path d="M297.233,523.71 L297.23,523.711 C296.964,523.202 296.533,522.688 295.913,522.19 C292.471,519.43 288.684,523.387 288.684,523.387 L288.441,523.754 C285.193,528.077 287.538,528.492 292.299,528.366 L298.352,528.385 C298.352,528.385 301.885,528.489 297.233,523.71 L297.233,523.71 Z" id="Shape" fill="#FFFFFF" sketch:type="MSShapeGroup"></path>
            <path d="M308.252,523.578 C308.252,524.498 307.507,525.244 306.587,525.244 L302.803,525.244 C301.883,525.244 301.139,524.498 301.139,523.578 L301.139,523.578 C301.139,522.659 301.883,521.913 302.803,521.913 L306.587,521.913 C307.507,521.913 308.252,522.659 308.252,523.578 L308.252,523.578 L308.252,523.578 Z" id="Shape" fill="#FFFFFF" sketch:type="MSShapeGroup"></path>
            <path d="M87.224,554.093 C87.224,555.308 86.24,556.293 85.025,556.293 L79.65,556.293 C78.435,556.293 77.451,555.309 77.451,554.093 L77.451,554.093 C77.451,552.878 78.435,551.894 79.65,551.894 L85.025,551.894 C86.239,551.894 87.224,552.878 87.224,554.093 L87.224,554.093 L87.224,554.093 Z" id="Shape" fill="#FFFFFF" sketch:type="MSShapeGroup"></path>
            <path d="M103.107,556.292 C103.107,557.238 102.342,558.002 101.396,558.002 L90.889,558.002 C89.944,558.002 89.179,557.238 89.179,556.292 L89.179,556.292 C89.179,555.348 89.944,554.581 90.889,554.581 L101.396,554.581 C102.343,554.581 103.107,555.348 103.107,556.292 L103.107,556.292 L103.107,556.292 Z" id="Shape" fill="#FFFFFF" sketch:type="MSShapeGroup"></path>
            <path d="M90.89,551.824 C90.89,551.824 90.646,548.646 95.535,547.425 C100.422,546.203 101.398,551.824 101.398,551.824 L90.89,551.824 L90.89,551.824 Z" id="Shape" fill="#FFFFFF" sketch:type="MSShapeGroup"></path>
            <path d="M311.028,528.385 C311.028,529.056 310.485,529.6 309.814,529.6 L302.351,529.6 C301.681,529.6 301.138,529.056 301.138,528.385 L301.138,528.385 C301.138,527.714 301.681,527.17 302.351,527.17 L309.814,527.17 C310.485,527.17 311.028,527.714 311.028,528.385 L311.028,528.385 L311.028,528.385 Z" id="Shape" fill="#FFFFFF" sketch:type="MSShapeGroup"></path>
            <path d="M345.347,541.442 C345.347,541.442 347.173,539.533 348.834,540.864 C350.495,542.195 349.388,543.782 347.092,543.843 C344.794,543.903 343.662,543.703 345.229,541.619 L345.347,541.442 L345.347,541.442 Z" id="Shape" fill="#FFFFFF" sketch:type="MSShapeGroup"></path>
            <path d="M359.28,544.13 L359.28,544.13 C359.102,543.79 358.814,543.446 358.4,543.115 C356.101,541.273 353.574,543.914 353.574,543.914 L353.41,544.158 C351.242,547.044 352.807,547.321 355.986,547.238 L360.028,547.248 C360.028,547.25 362.387,547.321 359.28,544.13 L359.28,544.13 Z" id="Shape" fill="#FFFFFF" sketch:type="MSShapeGroup"></path>
            <path d="M350.256,545.968 C350.256,546.583 349.758,547.08 349.145,547.08 L346.618,547.08 C346.005,547.08 345.507,546.583 345.507,545.968 L345.507,545.968 C345.507,545.355 346.005,544.856 346.618,544.856 L349.145,544.856 C349.758,544.856 350.256,545.355 350.256,545.968 L350.256,545.968 L350.256,545.968 Z" id="Shape" fill="#FFFFFF" sketch:type="MSShapeGroup"></path>
            <path d="M343.439,545.968 C343.439,546.416 343.076,546.78 342.627,546.78 L337.646,546.78 C337.199,546.78 336.834,546.416 336.834,545.968 L336.834,545.968 C336.834,545.52 337.198,545.157 337.646,545.157 L342.627,545.157 C343.076,545.158 343.439,545.521 343.439,545.968 L343.439,545.968 L343.439,545.968 Z" id="Shape" fill="#FFFFFF" sketch:type="MSShapeGroup"></path>
            <path d="M137.073,564.821 L159.555,500.823 L204.272,494.2 L214.291,564.821" id="Shape" fill="#FFFFFF" sketch:type="MSShapeGroup"></path>
            <path d="M160.993,392.361 L227.776,291.579 L373.772,285.17 L345.987,388.3 L160.993,392.361 Z" id="Shape" fill="#1C75BC" sketch:type="MSShapeGroup"></path>
            <path d="M84.625,393.206 C84.028,393.206 83.446,392.901 83.118,392.352 L69.232,369.14 C68.735,368.309 69.005,367.231 69.836,366.734 C70.668,366.236 71.745,366.507 72.242,367.339 L86.128,390.551 C86.625,391.382 86.355,392.46 85.524,392.957 C85.241,393.126 84.932,393.206 84.625,393.206 L84.625,393.206 Z" id="Shape" fill="#BE1E2D" sketch:type="MSShapeGroup"></path>
            <path d="M94.353,393.129 C93.585,393.129 92.88,392.621 92.664,391.845 L86.06,368.142 C85.8,367.209 86.346,366.241 87.28,365.981 C88.216,365.722 89.18,366.267 89.441,367.2 L96.044,390.903 C96.305,391.836 95.758,392.803 94.825,393.064 C94.667,393.107 94.508,393.129 94.353,393.129 L94.353,393.129 Z" id="Shape" fill="#BE1E2D" sketch:type="MSShapeGroup"></path>
            <path d="M103.729,393.053 C102.811,393.053 102.04,392.34 101.981,391.411 L100.441,367.407 C100.379,366.44 101.113,365.606 102.08,365.544 C103.04,365.481 103.88,366.215 103.942,367.182 L105.481,391.187 C105.543,392.154 104.81,392.988 103.843,393.05 C103.806,393.052 103.768,393.053 103.729,393.053 L103.729,393.053 Z" id="Shape" fill="#BE1E2D" sketch:type="MSShapeGroup"></path>
            <path d="M115.544,392.437 C115.493,392.437 115.441,392.435 115.39,392.431 C114.425,392.346 113.71,391.496 113.794,390.531 L115.88,366.677 C115.964,365.712 116.813,364.997 117.78,365.082 C118.745,365.167 119.459,366.018 119.374,366.982 L117.29,390.836 C117.21,391.749 116.443,392.437 115.544,392.437 L115.544,392.437 Z" id="Shape" fill="#BE1E2D" sketch:type="MSShapeGroup"></path>
            <path d="M127.354,392.667 C127.177,392.667 127,392.64 126.823,392.584 C125.9,392.291 125.388,391.305 125.681,390.381 L133.482,365.771 C133.775,364.847 134.761,364.336 135.685,364.629 C136.608,364.922 137.12,365.908 136.827,366.832 L129.025,391.442 C128.788,392.19 128.097,392.667 127.354,392.667 L127.354,392.667 Z" id="Shape" fill="#BE1E2D" sketch:type="MSShapeGroup"></path>
            <path d="M138.469,392.764 C138.213,392.764 137.953,392.708 137.708,392.589 C136.835,392.168 136.47,391.119 136.89,390.247 L149.041,365.074 C149.462,364.201 150.511,363.835 151.384,364.257 C152.256,364.678 152.622,365.727 152.2,366.599 L140.05,391.773 C139.747,392.399 139.121,392.764 138.469,392.764 L138.469,392.764 Z" id="Shape" fill="#BE1E2D" sketch:type="MSShapeGroup"></path>
            <path d="M152.365,392.661 C151.997,392.661 151.627,392.546 151.31,392.308 C150.537,391.725 150.381,390.625 150.965,389.851 L170.345,364.146 C170.928,363.372 172.028,363.218 172.802,363.801 C173.575,364.384 173.73,365.484 173.147,366.258 L153.766,391.963 C153.423,392.42 152.897,392.661 152.365,392.661 L152.365,392.661 Z" id="Shape" fill="#BE1E2D" sketch:type="MSShapeGroup"></path>
            <path d="M216.692,476.266 C216.692,477.637 215.581,478.748 214.211,478.748 L207.587,478.748 C206.217,478.748 205.106,477.637 205.106,476.266 L205.106,476.266 C205.106,474.897 206.217,473.786 207.587,473.786 L214.211,473.786 C215.581,473.785 216.692,474.896 216.692,476.266 L216.692,476.266 L216.692,476.266 Z" id="Shape" fill="#FFFFFF" sketch:type="MSShapeGroup"></path>
            <path d="M212.997,469.855 C212.997,470.904 212.147,471.755 211.098,471.755 L210.756,471.755 C209.707,471.755 208.855,470.904 208.855,469.855 L208.855,469.855 C208.855,468.806 209.708,467.956 210.756,467.956 L211.098,467.956 C212.147,467.956 212.997,468.806 212.997,469.855 L212.997,469.855 L212.997,469.855 Z" id="Shape" fill="#FFFFFF" sketch:type="MSShapeGroup"></path>
            <path d="M215.554,469.017 C215.554,469.017 218.289,466.159 220.777,468.152 C223.265,470.147 221.606,472.522 218.166,472.613 C214.726,472.705 213.032,472.405 215.378,469.282 L215.554,469.017 L215.554,469.017 Z" id="Shape" fill="#FFFFFF" sketch:type="MSShapeGroup"></path>
            <path d="M400.729,286.747 C388.625,287.989 371.628,250.416 371.628,250.416 L234.013,250.416 C234.013,250.416 217.603,290.798 192.011,295.829 L400.729,286.747 L400.729,286.747 Z" id="Shape" fill="#FFD100" sketch:type="MSShapeGroup"></path>
            <path d="M254.156,293.418 C258.569,291.552 262.572,250.416 262.572,250.416 L250.477,250.416 C250.477,250.416 233.008,292.587 221.216,294.852 L254.156,293.418 L254.156,293.418 Z" id="Shape" fill="#FCB316" sketch:type="MSShapeGroup"></path>
            <path d="M214.573,199.022 L233.237,250.829 L372.993,250.829 L359.722,185.153 L214.573,199.022 Z" id="Shape" fill="#DD7575" sketch:type="MSShapeGroup"></path>
            <path d="M372.993,252.583 L233.237,252.583 C232.897,252.583 232.563,252.484 232.278,252.298 L206.303,235.348 C205.657,234.928 205.363,234.136 205.574,233.396 C205.786,232.656 206.455,232.141 207.225,232.125 L385.44,228.469 C386.06,228.446 386.675,228.792 386.996,229.347 C387.315,229.901 387.308,230.585 386.977,231.133 L374.493,251.739 C374.175,252.263 373.606,252.583 372.993,252.583 L372.993,252.583 Z M233.759,249.075 L372.005,249.075 L382.325,232.042 L212.98,235.516 L233.759,249.075 L233.759,249.075 Z" id="Shape" fill="#BE1E2D" sketch:type="MSShapeGroup"></path>
            <path d="M233.237,252.583 C232.518,252.583 231.843,252.138 231.587,251.423 L225.336,234.069 C225.007,233.157 225.48,232.152 226.391,231.824 C227.302,231.495 228.308,231.968 228.636,232.88 L234.888,250.234 C235.216,251.146 234.743,252.15 233.831,252.479 C233.636,252.55 233.435,252.583 233.237,252.583 L233.237,252.583 Z" id="Shape" fill="#BE1E2D" sketch:type="MSShapeGroup"></path>
            <path d="M372.991,252.583 C372.175,252.583 371.444,252.01 371.274,251.179 L367.138,230.914 C366.946,229.965 367.558,229.038 368.506,228.845 C369.456,228.65 370.382,229.264 370.575,230.213 L374.711,250.478 C374.904,251.427 374.292,252.354 373.343,252.547 C373.226,252.572 373.107,252.583 372.991,252.583 L372.991,252.583 Z" id="Shape" fill="#BE1E2D" sketch:type="MSShapeGroup"></path>
            <path d="M241.787,252.583 C240.94,252.583 240.194,251.968 240.057,251.104 L237.256,233.503 C237.104,232.546 237.755,231.647 238.712,231.495 C239.669,231.343 240.568,231.995 240.721,232.952 L243.523,250.554 C243.675,251.511 243.023,252.409 242.066,252.562 C241.972,252.576 241.879,252.583 241.787,252.583 L241.787,252.583 Z" id="Shape" fill="#BE1E2D" sketch:type="MSShapeGroup"></path>
            <path d="M253.512,252.583 C252.668,252.583 251.924,251.972 251.783,251.111 L248.867,233.273 C248.711,232.317 249.359,231.415 250.315,231.259 C251.271,231.106 252.173,231.752 252.33,232.707 L255.246,250.545 C255.401,251.501 254.754,252.403 253.797,252.559 C253.702,252.576 253.605,252.583 253.512,252.583 L253.512,252.583 Z" id="Shape" fill="#BE1E2D" sketch:type="MSShapeGroup"></path>
            <path d="M263.117,252.825 C262.269,252.825 261.523,252.21 261.387,251.346 L258.584,233.747 C258.432,232.79 259.084,231.891 260.041,231.738 C260.998,231.586 261.897,232.238 262.049,233.195 L264.852,250.795 C265.004,251.752 264.352,252.65 263.395,252.803 C263.301,252.817 263.208,252.825 263.117,252.825 L263.117,252.825 Z" id="Shape" fill="#BE1E2D" sketch:type="MSShapeGroup"></path>
            <path d="M274.84,252.56 C273.997,252.56 273.254,251.951 273.112,251.093 L270.197,233.52 C270.039,232.564 270.685,231.661 271.64,231.503 C272.598,231.341 273.499,231.991 273.658,232.946 L276.572,250.519 C276.731,251.475 276.085,252.378 275.129,252.536 C275.031,252.552 274.936,252.56 274.84,252.56 L274.84,252.56 Z" id="Shape" fill="#BE1E2D" sketch:type="MSShapeGroup"></path>
            <path d="M286.153,252.583 C285.183,252.583 284.398,251.797 284.398,250.829 L284.398,232.991 C284.398,232.022 285.183,231.237 286.153,231.237 C287.121,231.237 287.907,232.023 287.907,232.991 L287.907,250.829 C287.907,251.797 287.121,252.583 286.153,252.583 L286.153,252.583 Z" id="Shape" fill="#BE1E2D" sketch:type="MSShapeGroup"></path>
            <path d="M354.88,251.066 C354.788,251.066 354.695,251.059 354.603,251.044 C353.646,250.892 352.994,249.992 353.146,249.036 L355.948,231.436 C356.1,230.479 357.003,229.827 357.957,229.979 C358.914,230.131 359.565,231.03 359.413,231.987 L356.611,249.587 C356.473,250.451 355.728,251.066 354.88,251.066 L354.88,251.066 Z" id="Shape" fill="#BE1E2D" sketch:type="MSShapeGroup"></path>
            <path d="M343.156,251.066 C343.062,251.066 342.967,251.058 342.871,251.043 C341.914,250.886 341.267,249.984 341.422,249.028 L344.338,231.19 C344.494,230.234 345.394,229.586 346.352,229.741 C347.308,229.898 347.956,230.799 347.8,231.755 L344.885,249.593 C344.744,250.455 344,251.066 343.156,251.066 L343.156,251.066 Z" id="Shape" fill="#BE1E2D" sketch:type="MSShapeGroup"></path>
            <path d="M333.552,251.309 C333.459,251.309 333.366,251.302 333.273,251.288 C332.317,251.135 331.665,250.236 331.817,249.279 L334.619,231.678 C334.772,230.721 335.673,230.07 336.628,230.221 C337.584,230.374 338.236,231.273 338.084,232.229 L335.282,249.831 C335.144,250.694 334.398,251.309 333.552,251.309 L333.552,251.309 Z" id="Shape" fill="#BE1E2D" sketch:type="MSShapeGroup"></path>
            <path d="M321.828,251.042 C321.732,251.042 321.637,251.035 321.539,251.018 C320.583,250.86 319.937,249.957 320.096,249.001 L323.01,231.429 C323.169,230.473 324.072,229.825 325.028,229.986 C325.984,230.144 326.63,231.048 326.472,232.003 L323.557,249.575 C323.414,250.434 322.671,251.042 321.828,251.042 L321.828,251.042 Z" id="Shape" fill="#BE1E2D" sketch:type="MSShapeGroup"></path>
            <path d="M310.516,251.066 C309.547,251.066 308.761,250.281 308.761,249.312 L308.761,231.953 C308.761,230.985 309.547,230.199 310.516,230.199 C311.485,230.199 312.27,230.985 312.27,231.953 L312.27,249.312 C312.27,250.281 311.484,251.066 310.516,251.066 L310.516,251.066 Z" id="Shape" fill="#BE1E2D" sketch:type="MSShapeGroup"></path>
            <path d="M297.576,252.583 C296.607,252.583 295.821,251.797 295.821,250.829 L295.821,232.991 C295.821,232.022 296.607,231.237 297.576,231.237 C298.545,231.237 299.33,232.023 299.33,232.991 L299.33,250.829 C299.33,251.797 298.545,252.583 297.576,252.583 L297.576,252.583 Z" id="Shape" fill="#BE1E2D" sketch:type="MSShapeGroup"></path>
            <path d="M257.307,153.422 C257.307,156.285 254.987,158.605 252.125,158.605 L246.4,158.605 C243.54,158.605 241.218,156.285 241.218,153.422 L241.218,95.37 C241.218,92.508 243.539,90.187 246.4,90.187 L252.125,90.187 C254.986,90.187 257.307,92.507 257.307,95.37 L257.307,153.422 L257.307,153.422 Z" id="Shape" fill="#27AAE1" sketch:type="MSShapeGroup"></path>
            <path d="M265.35,159.724 C265.35,162.586 263.03,164.907 260.167,164.907 L254.445,164.907 C251.582,164.907 249.262,162.587 249.262,159.724 L249.262,112.622 C249.262,109.76 251.581,107.44 254.445,107.44 L260.167,107.44 C263.029,107.44 265.35,109.76 265.35,112.622 L265.35,159.724 L265.35,159.724 Z" id="Shape" fill="#1C75BC" sketch:type="MSShapeGroup"></path>
            <path d="M385.478,185.093 C368.402,181.242 356.831,139.733 356.831,139.733 L227.689,144.517 C227.689,144.517 216.418,200.977 195.254,202.485 L385.478,185.093 L385.478,185.093 Z" id="Shape" fill="#38B2C0" sketch:type="MSShapeGroup"></path>
            <path d="M360.625,187.365 C350.782,182.828 334.911,140.545 334.911,140.545 L319.512,141.115 C319.512,141.115 322.377,166.149 331.577,190.021 L360.625,187.365 L360.625,187.365 Z" id="Shape" fill="#8DC63F" sketch:type="MSShapeGroup"></path>
        </g>
    </g>
</svg>