<?xml version="1.0" encoding="UTF-8" standalone="no"?>
<svg width="521px" height="434px" viewBox="0 0 521 434" version="1.1" xmlns="http://www.w3.org/2000/svg" xmlns:xlink="http://www.w3.org/1999/xlink" xmlns:sketch="http://www.bohemiancoding.com/sketch/ns">
    <!-- Generator: Sketch 3.3.2 (12043) - http://www.bohemiancoding.com/sketch -->
    <title>person</title>
    <desc>Created with Sketch.</desc>
    <defs></defs>
    <g id="Page-1" stroke="none" stroke-width="1" fill="none" fill-rule="evenodd" sketch:type="MSPage">
        <g id="person" sketch:type="MSLayerGroup" fill="#000000">
            <g id="Group" transform="translate(143.000000, 123.000000)" sketch:type="MSShapeGroup">
                <path d="M75.733,3.381 C75.491,3.381 75.254,3.399 75.014,3.402 C69.844,3.006 65.155,3.42 60.848,4.451 L60.869,4.404 C46.07,6.65 35.258,17.873 27.494,33.445 C23.502,14.525 19.832,3.381 19.832,3.381 C17.711,-3.783 0.287,4.922 0.287,4.922 C0.287,4.922 8.396,32.375 16.055,67.629 C10.709,91.941 9.26,118.453 9.825,137.854 C10.776,170.504 21.067,177.223 26.528,178.483 C27.161,178.659 27.551,178.676 27.551,178.676 C28.348,178.93 29.139,178.893 29.891,178.676 C53.28,176.604 34.59,77.641 34.59,77.641 L34.59,77.649 C34.229,74.428 33.844,71.284 33.438,68.225 C36.092,59.006 39.508,49.551 43.883,40.032 C46.776,34.233 54.678,21.55 68.91,20.405 C78.949,20.62 89.416,25.426 86.566,45.698 C83.841,65.077 72.628,72.788 62.488,77.405 C52.832,81.616 38.713,83.831 38.713,83.831 L40.736,95.675 L43.519,95.865 L47.519,95.789 C131.542,86.791 107.368,3.381 75.733,3.381 L75.733,3.381 Z M28.769,149.732 L28.72,149.597 C28.72,150.351 28.109,150.962 27.355,150.962 C26.843,150.962 26.416,150.669 26.183,150.251 C25.324,141.64 24.773,130.679 25.339,118.143 C26.89,128.906 28.085,139.57 28.769,149.732 L28.769,149.732 Z" id="Shape"></path>
                <path d="M375.06,145.619 C386.781,108.344 357.275,107.721 357.275,107.721 L357.345,107.869 C346.181,106.848 334.474,111.943 334.474,111.943 C333.162,112.757 331.939,113.631 330.812,114.541 C331,113.947 331.191,113.34 331.376,112.754 C334.251,96.551 314.878,99.875 314.878,99.875 L314.876,99.869 C314.415,102.699 313.837,105.76 313.083,109.072 C308.7,128.359 301.983,140.631 304.024,164.886 C305.001,176.451 312.817,181.034 322.124,181.339 C320.157,172.521 320.448,161.495 320.938,154.534 C320.948,152.501 321.178,150.223 321.577,147.763 L321.579,147.757 C322.317,143.206 323.643,138.03 325.192,132.673 C326.846,135.025 328.95,136.316 328.95,136.316 C328.95,136.316 330.823,130.832 337.173,126.701 C337.278,126.654 358.747,117.287 358.767,136.73 C357.898,143.58 355.474,152.127 352.804,160.707 L352.806,160.707 C352.806,160.707 352.8,160.723 352.796,160.73 C352.796,160.74 352.788,160.747 352.788,160.755 C352.772,160.802 352.745,160.892 352.708,161.011 L352.708,161.019 L352.708,161.025 C352.626,161.291 352.515,161.718 352.403,162.277 C352.399,162.293 352.397,162.304 352.393,162.32 C352.336,162.601 352.28,162.914 352.235,163.254 L352.235,163.268 C351.987,165.006 351.911,167.438 352.665,169.965 L352.665,169.977 C354.19,175.079 359.124,180.539 373.03,181.34 C373.03,181.34 366.876,178.047 370.632,163.606 L370.628,163.606 C372.335,157.629 373.972,151.909 375.058,145.618 L375.06,145.619 L375.06,145.619 Z" id="Shape"></path>
                <path d="M182.968,110.551 C182.947,110.561 182.921,110.569 182.898,110.578 C177.365,101.029 162.548,97.986 147.968,104.168 C148.265,91.594 131.825,94.412 131.825,94.412 L131.823,94.404 C131.384,97.129 130.825,100.072 130.098,103.258 C127.096,116.477 122.965,126.289 121.543,139.268 C101.557,164.364 89.449,155.586 89.449,155.586 C71.015,140.852 86.42,102.24 96.119,111.94 C105.82,121.639 84.902,137.698 84.902,137.698 C83.992,144.362 89.449,150.085 89.449,150.085 C127.947,133.368 122.795,83.144 91.875,95.269 C60.959,107.392 63.988,137.699 63.988,137.699 C63.988,137.699 64.076,140.347 64.836,144.209 C64.836,144.209 64.967,144.795 65.205,145.734 C65.205,145.734 65.451,148.216 67.332,152.822 C68.053,154.836 68.889,156.793 69.789,158.172 C69.914,158.395 70.059,158.61 70.187,158.83 C70.246,158.943 70.298,159.051 70.361,159.164 C70.672,159.734 70.947,160.164 71.199,160.482 C74.422,165.374 79.074,169.767 85.814,172.074 C101.697,177.51 115.996,166.211 121.96,160.457 C124.054,169.004 130.855,172.512 138.792,172.771 C137.841,168.494 137.44,163.677 137.337,159.095 C138.194,143.111 140.921,134.822 141.343,133.626 C145.991,122.63 152.316,114.034 159.206,116.163 C163.599,117.52 165.677,119.97 166.435,122.774 C166.435,122.774 167.281,129.596 165.197,133.456 C165.197,133.456 180.168,136.456 184.088,124.026 C185.899,116.812 184.114,112.443 182.968,110.551 L182.968,110.551 Z" id="Shape"></path>
                <path d="M201.901,102.978 C193.973,108.527 186.84,120.632 182.909,133.861 C182.909,133.861 200.255,135.826 211.694,140.826 C211.694,140.826 219.893,143.572 222.366,150.027 C222.7,150.8 222.958,151.683 223.014,152.638 L223.014,152.64 C223.016,152.65 223.014,152.658 223.014,152.667 C223.026,152.886 223.034,153.106 223.024,153.331 C223.022,153.343 223.02,153.354 223.02,153.364 C222.979,154.141 222.801,154.952 222.413,155.776 C220.724,159.352 213.12,160.299 209.89,160.544 C204.193,161.384 199.124,156.067 199.124,156.067 C191.104,148.469 178.608,156.067 178.608,156.067 C178.608,156.067 182.061,166.005 193.477,172.21 C193.415,172.233 193.36,172.261 193.297,172.286 C193.791,172.491 194.27,172.682 194.738,172.868 C200.25,175.587 207.472,177.415 216.863,177.018 L216.765,176.788 C219.404,176.47 222.064,175.813 224.718,174.737 C226.109,174.172 227.378,173.485 228.556,172.71 C248.642,160.769 237.064,142.45 237.064,142.45 L237.06,142.454 C236.482,141.477 235.818,140.579 235.085,139.753 L235.085,139.751 C234.864,139.505 234.64,139.265 234.411,139.032 C234.397,139.018 234.388,139.005 234.374,138.991 C234.145,138.764 233.919,138.546 233.686,138.329 C233.666,138.313 233.647,138.296 233.629,138.278 C233.399,138.067 233.162,137.862 232.928,137.661 C232.905,137.641 232.883,137.624 232.858,137.604 C232.62,137.409 232.381,137.215 232.133,137.028 C232.113,137.01 232.09,136.993 232.065,136.977 C231.92,136.862 231.772,136.747 231.624,136.637 C231.618,136.637 231.616,136.639 231.608,136.639 C231.129,136.291 230.643,135.963 230.147,135.655 C230.151,135.653 230.153,135.653 230.153,135.649 C230.059,135.59 229.964,135.54 229.866,135.481 C229.598,135.319 229.327,135.161 229.063,135.008 C228.856,134.893 228.657,134.783 228.452,134.674 C228.2,134.537 227.944,134.408 227.694,134.279 C227.526,134.197 227.362,134.115 227.198,134.037 C226.87,133.879 226.544,133.728 226.218,133.584 C226.048,133.51 225.876,133.439 225.712,133.367 C225.48,133.271 225.255,133.179 225.032,133.09 C224.805,133 224.587,132.914 224.362,132.83 C224.126,132.74 223.889,132.656 223.661,132.57 C223.485,132.513 223.321,132.453 223.157,132.396 C222.868,132.3 222.591,132.208 222.319,132.121 C222.159,132.072 222.012,132.027 221.852,131.982 C221.655,131.92 221.459,131.861 221.27,131.808 C221.143,131.771 221.012,131.736 220.891,131.701 C220.61,131.623 220.344,131.553 220.084,131.488 C220.045,131.478 219.998,131.465 219.959,131.455 L219.957,131.455 C218.002,130.967 216.715,130.799 216.715,130.799 C208.725,129.875 201.676,129.444 201.676,129.444 L201.674,129.446 C205.842,117.692 212.19,107.237 219.203,109.407 C230.617,112.934 224.441,124.803 222.162,128.528 C222.162,128.528 228.617,129.776 232.318,132.29 C234.242,130.944 237.101,128.204 239.504,122.821 C239.885,122.02 240.238,121.151 240.563,120.202 C240.575,120.169 240.584,120.142 240.598,120.106 L240.588,120.112 C240.908,119.172 241.205,118.171 241.463,117.071 C246.163,97.045 221.681,89.129 201.901,102.978 L201.901,102.978 Z" id="Shape"></path>
                <path d="M303.612,130.27 C302.727,112.989 295.503,110.163 291.321,109.022 C287.135,107.881 279.403,110.29 276.235,125.498 C273.069,140.709 281.94,149.709 281.94,149.709 C281.891,149.81 281.838,149.916 281.786,150.016 C276.3,161.166 271.259,161.696 267.872,159.995 C264.231,158.114 262.684,152.597 262.206,150.44 C256.95,124.79 271.397,115.838 275.376,113.895 C275.376,113.895 277.978,107.428 286.146,104.235 L285.492,103.7 C271.476,92.716 258.115,107.249 258.115,107.249 C241.308,121.788 242.506,143.087 244.904,154.997 C244.904,154.997 246.554,164.27 253.056,169.597 C271.173,184.152 288.404,166.82 288.404,166.82 C288.404,166.82 304.503,147.555 303.612,130.27 L303.612,130.27 Z M290.94,136.779 L290.178,138.301 C290.178,138.301 284.096,125.752 290.94,125.246 C297.786,124.738 290.94,136.779 290.94,136.779 L290.94,136.779 Z" id="Shape"></path>
                <g transform="translate(123.000000, 7.000000)" id="Shape">
                    <path d="M88.64,55.896 C90.857,53.722 92.837,51.181 93.945,48.357 C97.568,39.115 94.461,35.931 92.547,34.347 C90.631,32.761 86.018,32.189 80.768,39.388 C75.514,46.587 78.022,53.388 78.022,53.388 C77.971,53.431 77.922,53.472 77.87,53.513 C74.802,56.038 72.587,56.868 70.987,56.82 C66.395,55.656 67.383,49.879 67.639,48.689 C71.186,33.869 81.323,33.117 83.334,33.117 C83.334,33.117 84.861,30.877 90.959,30.588 L90.76,30.186 C86.035,21.133 75.615,25.565 75.615,25.565 C67.851,27.868 63.238,33.315 60.506,38.721 C60.293,39.157 54.629,50.834 59.694,59.344 C66.145,68.114 77.352,63.86 77.352,63.86 C77.352,63.86 80.284,62.442 83.748,59.965 C86.625,61.779 90.801,63.104 96.748,62.49 C96.747,62.49 92.651,61.371 88.64,55.896 L88.64,55.896 Z M88.507,42.734 C92.206,44.088 85.782,48.761 85.782,48.761 L85.022,49.374 C85.022,49.375 84.813,41.379 88.507,42.734 L88.507,42.734 Z"></path>
                    <path d="M157.769,63.264 C157.769,63.264 153.677,62.145 149.667,56.672 C151.882,54.498 153.86,51.955 154.97,49.131 C158.591,39.891 155.49,36.705 153.574,35.121 C151.656,33.535 147.047,32.965 141.795,40.164 C136.541,47.361 139.047,54.162 139.047,54.162 C138.994,54.205 138.947,54.246 138.897,54.287 C135.827,56.812 133.612,57.644 132.016,57.594 C127.42,56.432 128.411,50.653 128.664,49.465 C132.207,34.643 142.348,33.891 144.357,33.891 C144.357,33.891 145.89,31.653 151.986,31.362 L151.787,30.962 C147.062,21.907 136.641,26.339 136.641,26.339 C128.877,28.642 124.266,34.087 121.534,39.497 C121.401,39.761 119.253,44.204 118.735,49.558 C116.995,50.406 114.817,51.05 112.085,51.226 C105.12,51.677 107.718,40.837 111.144,29.732 C111.292,29.732 111.429,29.738 111.582,29.738 C129.184,29.873 122.812,17.703 122.812,17.703 C119.884,19.76 116.714,21.057 113.63,21.859 C114.47,19.177 115.235,16.646 115.775,14.447 C117.839,6.025 115.742,2.496 113.48,1.285 C111.105,-0.334 108.679,0.939 107.869,1.285 C107.057,1.635 105.045,1.949 105.045,1.949 L105.883,1.883 C105.371,1.932 105.045,1.949 105.045,1.949 C105.045,1.949 105.717,8.484 103.201,19.549 C102.93,20.744 102.642,21.883 102.349,23 C99.021,22.867 96.831,22.396 96.831,22.396 L96.831,23.722 C96.831,23.722 95.411,26.669 100.827,28.439 C98.872,35.281 97.175,41.695 98.005,51.562 C98.958,62.843 111.261,62.55 119.812,58.285 C120.07,58.908 120.365,59.521 120.722,60.119 C127.171,68.888 138.38,64.635 138.38,64.635 C138.38,64.635 141.31,63.217 144.775,60.74 C147.651,62.553 151.827,63.877 157.769,63.264 L157.769,63.264 Z M149.536,43.508 C153.231,44.862 146.806,49.535 146.806,49.535 L146.05,50.15 C146.05,50.15 145.839,42.154 149.536,43.508 L149.536,43.508 Z"></path>
                    <path d="M6.474,5.447 C6.474,5.447 7.693,11.713 15.853,12.58 C18.16,12.826 21.423,12.771 25.029,12.838 C24.988,12.895 24.941,12.945 24.9,13.006 C23.714,14.738 22.552,16.682 21.425,18.752 L21.425,18.746 C21.318,18.943 21.212,19.144 21.107,19.344 C20.925,19.68 20.748,20.02 20.57,20.36 C20.435,20.624 20.299,20.887 20.164,21.151 C20.039,21.397 19.914,21.643 19.793,21.891 C19.664,22.141 19.543,22.389 19.418,22.641 C19.236,23.016 19.051,23.391 18.873,23.772 C18.74,24.042 18.613,24.311 18.482,24.584 C18.363,24.844 18.24,25.104 18.119,25.365 C18.008,25.611 17.892,25.859 17.779,26.105 C17.607,26.482 17.439,26.863 17.267,27.244 C17.136,27.535 17.007,27.828 16.878,28.121 C16.761,28.385 16.646,28.646 16.536,28.908 C16.423,29.16 16.317,29.412 16.21,29.662 C16.065,29.992 15.931,30.32 15.79,30.646 C15.644,30.996 15.497,31.343 15.354,31.693 C15.247,31.945 15.145,32.199 15.042,32.453 C14.935,32.715 14.827,32.976 14.724,33.238 C14.626,33.478 14.529,33.715 14.437,33.953 C14.263,34.383 14.095,34.81 13.927,35.234 C13.833,35.47 13.743,35.705 13.652,35.937 C13.548,36.208 13.441,36.478 13.341,36.746 C13.253,36.965 13.171,37.185 13.089,37.404 C12.923,37.832 12.761,38.258 12.603,38.679 C12.533,38.876 12.457,39.068 12.384,39.261 C12.277,39.56 12.167,39.853 12.06,40.144 C11.994,40.328 11.925,40.513 11.859,40.695 C11.705,41.119 11.55,41.537 11.402,41.949 C11.349,42.099 11.297,42.246 11.244,42.396 C11.133,42.712 11.021,43.021 10.912,43.33 C10.861,43.476 10.807,43.623 10.756,43.768 C10.613,44.178 10.471,44.582 10.334,44.977 C10.301,45.075 10.27,45.168 10.236,45.264 C10.121,45.594 10.011,45.916 9.904,46.233 C9.865,46.344 9.828,46.456 9.791,46.565 C9.66,46.95 9.535,47.325 9.412,47.682 C9.398,47.731 9.385,47.774 9.367,47.823 C9.256,48.159 9.148,48.483 9.043,48.8 C9.022,48.87 8.994,48.941 8.973,49.011 C8.741,49.71 8.535,50.353 8.348,50.929 C8.334,50.976 8.319,51.021 8.305,51.066 C5.367,59.736 0.746,57.084 0.746,57.084 C0.746,57.084 3.578,61.629 9.381,61.557 C9.824,61.571 10.283,61.571 10.776,61.541 C10.973,61.494 11.172,61.426 11.368,61.369 C11.403,61.363 11.438,61.361 11.472,61.355 L11.466,61.339 C13.044,60.88 14.614,60.167 16.04,59.042 L16.04,59.044 C19.829,56.759 21.79,51.601 22.774,47.634 C22.774,47.634 22.778,47.63 22.78,47.628 C22.782,47.616 22.784,47.603 22.786,47.589 C23.501,44.691 23.692,42.439 23.692,42.439 L23.692,42.441 C26.016,31.556 31.346,17.63 37.776,14.693 C37.776,14.689 37.78,14.683 37.784,14.677 C40.69,15.681 43.495,17.189 45.704,19.423 C46.663,20.503 50.069,24.872 49.487,31.821 C48.809,36.55 46.835,44.038 41.102,49.368 C39.481,50.579 37.834,51.354 36.307,51.528 C31.225,51.219 32.196,46.799 32.196,46.799 C24.046,47.492 25.063,54.699 25.063,54.699 C26.004,57.92 28.661,62.291 36.163,61.461 C36.179,61.459 36.186,61.461 36.2,61.459 C46.147,60.027 57.139,53.604 57.888,32.412 C59.276,-6.812 6.474,5.447 6.474,5.447 L6.474,5.447 Z"></path>
                </g>
            </g>
            <path d="M257.946,433.806 L255.118,430.977 L0.344,176.197 L176.187,0.36 L248.019,72.191 L242.362,77.848 L176.187,11.675 L11.658,176.197 L257.946,422.491 L329.181,351.254 L334.837,356.91 L257.946,433.806 Z" id="Shape" sketch:type="MSShapeGroup"></path>
            <rect id="Rectangle-path" sketch:type="MSShapeGroup" transform="translate(226.724814, 56.605613) rotate(45.000000) translate(-226.724814, -56.605613) " x="155.192" y="52.6061512" width="143.065628" height="7.99892329"></rect>
            <rect id="Rectangle-path" sketch:type="MSShapeGroup" transform="translate(308.456926, 377.603600) rotate(45.000000) translate(-308.456926, -377.603600) " x="304.457464" y="306.175285" width="7.99892329" height="142.85663"></rect>
        </g>
    </g>
</svg>