<?xml version="1.0" encoding="UTF-8" standalone="no"?>
<svg width="113px" height="395px" viewBox="0 0 113 395" version="1.1" xmlns="http://www.w3.org/2000/svg" xmlns:xlink="http://www.w3.org/1999/xlink" xmlns:sketch="http://www.bohemiancoding.com/sketch/ns">
    <!-- Generator: Sketch 3.3.2 (12043) - http://www.bohemiancoding.com/sketch -->
    <title>personal002</title>
    <desc>Created with Sketch.</desc>
    <defs></defs>
    <g id="Page-1" stroke="none" stroke-width="1" fill="none" fill-rule="evenodd" sketch:type="MSPage">
        <g id="personal002" sketch:type="MSLayerGroup">
            <path d="M111.996,215.232 C111.996,201.028 100.482,189.515 86.279,189.515 C72.077,189.515 60.562,201.029 60.562,215.232 L60.562,385.551 L60.562,387.179 L60.562,393.219 C60.562,393.945 61.151,394.532 61.876,394.532 C62.602,394.532 63.189,393.944 63.189,393.219 L63.189,387.179 L64.57,387.179 L64.57,393.219 C64.57,393.945 65.158,394.532 65.884,394.532 C66.61,394.532 67.197,393.944 67.197,393.219 L67.197,387.179 L68.578,387.179 L68.578,393.219 C68.578,393.945 69.166,394.532 69.891,394.532 C70.616,394.532 71.205,393.944 71.205,393.219 L71.205,387.179 L72.586,387.179 L72.586,393.219 C72.586,393.945 73.173,394.532 73.899,394.532 C74.625,394.532 75.213,393.944 75.213,393.219 L75.213,387.179 L76.594,387.179 L76.594,393.219 C76.594,393.945 77.181,394.532 77.907,394.532 C78.633,394.532 79.221,393.944 79.221,393.219 L79.221,387.179 C79.221,373.5 84.515,363.794 84.515,363.794 C103.046,322.759 86.279,307.318 86.279,307.318 C116.723,291.435 111.996,215.232 111.996,215.232 L111.996,215.232 Z" id="Shape" fill="#F7941E" sketch:type="MSShapeGroup"></path>
            <path d="M14.968,151.873 C14.864,152.005 14.764,152.139 14.661,152.273 L14.659,152.276 C8.038,160.955 4.104,171.793 4.104,183.553 C4.104,212.063 27.216,235.175 55.727,235.175 C84.236,235.175 107.349,212.063 107.349,183.553 C107.349,171.793 103.414,160.955 96.793,152.276 L96.793,152.276 L96.791,152.273 C96.69,152.139 96.588,152.005 96.485,151.873 C94.712,149.487 85.9,136.563 86.544,116.426 C86.664,115.324 86.728,114.207 86.728,113.074 C86.99,109.9 86.653,107.558 85.877,105.876 C82.632,92.226 70.368,82.073 55.727,82.073 C41.084,82.073 28.822,92.226 25.575,105.876 C24.799,107.558 24.463,109.9 24.724,113.074 C24.724,114.206 24.789,115.324 24.908,116.426 C25.552,136.563 16.742,149.487 14.968,151.873 L14.968,151.873 Z" id="Shape" fill="#DD7575" sketch:type="MSShapeGroup"></path>
            <path d="M0.823,215.232 C0.823,201.028 12.336,189.515 26.539,189.515 C40.741,189.515 52.256,201.029 52.256,215.232 L52.256,385.551 L52.256,387.179 L52.256,393.219 C52.256,393.945 51.667,394.532 50.943,394.532 C50.216,394.532 49.629,393.944 49.629,393.219 L49.629,387.179 L48.248,387.179 L48.248,393.219 C48.248,393.945 47.661,394.532 46.936,394.532 C46.21,394.532 45.622,393.944 45.622,393.219 L45.622,387.179 L44.241,387.179 L44.241,393.219 C44.241,393.945 43.653,394.532 42.928,394.532 C42.202,394.532 41.614,393.944 41.614,393.219 L41.614,387.179 L40.234,387.179 L40.234,393.219 C40.234,393.945 39.647,394.532 38.921,394.532 C38.194,394.532 37.607,393.944 37.607,393.219 L37.607,387.179 L36.226,387.179 L36.226,393.219 C36.226,393.945 35.639,394.532 34.913,394.532 C34.188,394.532 33.6,393.944 33.6,393.219 L33.6,387.179 C33.6,373.5 28.305,363.794 28.305,363.794 C9.774,322.759 26.541,307.318 26.541,307.318 C-3.905,291.435 0.823,215.232 0.823,215.232 L0.823,215.232 Z" id="Shape" fill="#E5A1B9" sketch:type="MSShapeGroup"></path>
            <path d="M77.112,53.542 L77.112,24.974 C77.112,11.246 65.984,0.117 52.255,0.117 C38.528,0.117 27.399,11.246 27.399,24.974 C27.399,25.462 27.416,25.946 27.445,26.429 L27.445,53.543 C27.445,53.543 26.338,65.387 35.032,69.049 L38.573,69.049 C36.399,67.572 34.738,65.44 33.624,62.678 C33.487,62.34 33.651,61.954 33.99,61.817 C34.328,61.68 34.714,61.844 34.851,62.184 C36.186,65.49 38.368,67.799 41.334,69.049 L41.336,69.049 L45.201,69.049 C43.027,67.572 41.366,65.44 40.252,62.678 C40.115,62.34 40.279,61.954 40.617,61.817 C40.956,61.68 41.342,61.844 41.479,62.184 C42.815,65.49 44.996,67.799 47.963,69.049 L47.963,69.049 L51.829,69.049 C49.654,67.572 47.993,65.437 46.879,62.678 C46.743,62.34 46.907,61.954 47.246,61.817 C47.585,61.68 47.97,61.844 48.108,62.184 C49.442,65.49 51.625,67.799 54.591,69.049 L54.591,69.049 L58.458,69.049 C56.283,67.572 54.622,65.44 53.508,62.678 C53.37,62.34 53.534,61.954 53.873,61.817 C54.212,61.68 54.598,61.844 54.736,62.184 C56.071,65.49 58.253,67.799 61.219,69.049 L61.219,69.049 L65.085,69.049 C62.909,67.572 61.25,65.44 60.135,62.678 C59.997,62.34 60.162,61.954 60.501,61.817 C60.839,61.68 61.226,61.844 61.364,62.184 C62.699,65.49 64.88,67.799 67.847,69.049 L67.847,69.049 L71.712,69.049 C69.537,67.572 67.877,65.437 66.763,62.678 C66.626,62.34 66.79,61.954 67.128,61.817 C67.468,61.68 67.854,61.844 67.991,62.184 C69.325,65.49 71.506,67.799 74.473,69.049 L74.473,69.049 L78.339,69.049 C76.165,67.572 74.505,65.44 73.39,62.678 C73.252,62.34 73.416,61.954 73.756,61.817 C74.093,61.68 74.48,61.844 74.616,62.184 C75.952,65.49 78.133,67.799 81.1,69.049 L81.101,69.049 L84.702,69.049 C76.007,65.387 77.112,53.542 77.112,53.542 L77.112,53.542 Z" id="Shape" fill="#27AAE1" sketch:type="MSShapeGroup"></path>
            <path d="M35.683,26.01 L35.683,35.562 L52.257,45.129 L68.829,35.562 L68.829,25.994 C68.829,16.841 61.409,9.421 52.256,9.421 C43.103,9.421 35.683,16.841 35.683,25.994 L35.683,26.01 L35.683,26.01 Z" id="Shape" fill="#FFD100" sketch:type="MSShapeGroup"></path>
        </g>
    </g>
</svg>