<?xml version="1.0" encoding="UTF-8" standalone="no"?>
<svg width="179px" height="258px" viewBox="0 0 179 258" version="1.1" xmlns="http://www.w3.org/2000/svg" xmlns:xlink="http://www.w3.org/1999/xlink" xmlns:sketch="http://www.bohemiancoding.com/sketch/ns">
    <!-- Generator: Sketch 3.3.2 (12043) - http://www.bohemiancoding.com/sketch -->
    <title>personal004</title>
    <desc>Created with Sketch.</desc>
    <defs></defs>
    <g id="Page-1" stroke="none" stroke-width="1" fill="none" fill-rule="evenodd" sketch:type="MSPage">
        <g id="personal004" sketch:type="MSLayerGroup">
            <path d="M137.351,34.308 C137.351,34.308 116.768,36.736 106.134,26.363 C106.134,26.363 123.077,30.201 131.15,22.791 L141.582,26.363" id="Shape" fill="#F7941E" sketch:type="MSShapeGroup"></path>
            <path d="M153.679,8.206 L153.679,3.505 C153.679,3.505 139.165,2.2 122.206,11.985 C122.206,11.985 111.483,16.55 101.624,13.723 C101.624,13.723 103.981,20.246 119.072,20.246 C134.164,20.246 135.521,27.855 135.521,27.855" id="Shape" fill="#F7941E" sketch:type="MSShapeGroup"></path>
            <path d="M111.96,126.321 C102.023,116.137 85.712,115.934 75.527,125.872 C74.795,126.585 74.117,127.335 73.488,128.108 C64.451,142.575 58.611,158.092 62.541,171.163 C62.541,171.163 37.606,169.829 19.605,215.753 C19.605,215.753 16.044,227.331 5.318,237.794 L0.582,242.415 C0.013,242.97 0.002,243.88 0.557,244.45 C1.112,245.018 2.023,245.03 2.591,244.473 L7.327,239.854 L8.384,240.936 L3.648,245.557 C3.079,246.112 3.067,247.022 3.623,247.592 C4.178,248.16 5.088,248.172 5.657,247.617 L10.393,242.996 L11.45,244.078 L6.714,248.699 C6.145,249.256 6.134,250.166 6.689,250.734 C7.244,251.302 8.155,251.314 8.724,250.759 L13.46,246.138 L14.517,247.22 L9.781,251.841 C9.212,252.396 9.2,253.308 9.756,253.876 C10.311,254.444 11.221,254.456 11.79,253.901 L16.526,249.28 L17.583,250.364 L12.847,254.985 C12.279,255.54 12.267,256.45 12.822,257.018 C13.377,257.586 14.287,257.598 14.857,257.043 L19.593,252.422 L20.869,251.178 L111.509,162.75 C121.693,152.817 121.896,136.507 111.96,126.321 L111.96,126.321 Z" id="Shape" fill="#DD7575" sketch:type="MSShapeGroup"></path>
            <path d="M155.794,142.649 C156.019,142.081 156.149,141.444 156.146,140.711 L156.146,140.701 C156.341,139.387 156.455,138.068 156.498,136.754 C158.252,125.621 166.031,107.582 166.031,107.582 L175.824,87.002 C181.449,75.182 176.428,61.037 164.605,55.412 L157.167,51.873 C145.345,46.246 131.202,51.269 125.577,63.092 L115.784,83.672 L115.783,83.67 C115.783,83.67 106.69,101.09 99.157,109.473 C98.165,110.332 97.215,111.25 96.32,112.231 C96.317,112.233 96.313,112.237 96.31,112.239 C95.738,112.698 95.327,113.202 95.027,113.737 C93.315,115.841 91.817,118.176 90.599,120.735 C82.38,138.008 89.719,158.676 106.993,166.897 C124.266,175.118 144.934,167.776 153.154,150.502 C154.372,147.942 155.241,145.308 155.794,142.649 L155.794,142.649 Z" id="Shape" fill="#E5A1B9" sketch:type="MSShapeGroup"></path>
            <path d="M165.157,181.622 C165.157,181.622 161.551,206.331 112.982,214.929 C112.982,214.929 100.93,216.14 88.557,224.593 L83.093,228.325 C82.437,228.774 81.542,228.604 81.094,227.95 C80.645,227.294 80.814,226.397 81.47,225.95 L86.934,222.218 L86.08,220.968 L80.616,224.7 C79.959,225.149 79.064,224.979 78.616,224.323 C78.167,223.667 78.336,222.772 78.992,222.325 L84.455,218.591 L83.601,217.343 L78.138,221.075 C77.482,221.524 76.587,221.354 76.138,220.698 C75.689,220.042 75.858,219.147 76.514,218.7 L81.978,214.966 L81.124,213.718 L75.661,217.45 C75.004,217.899 74.109,217.731 73.661,217.073 C73.212,216.417 73.381,215.522 74.037,215.073 L79.5,211.341 L78.646,210.093 L73.183,213.825 C72.526,214.274 71.632,214.104 71.183,213.448 C70.735,212.792 70.903,211.897 71.559,211.448 L77.022,207.716 L78.495,206.71 L148.526,158.86 L152.307,160.214 C168.075,165.868 165.157,181.622 165.157,181.622 L165.157,181.622 Z" id="Shape" fill="#38B2C0" sketch:type="MSShapeGroup"></path>
            <path d="M167.538,175.339 C167.538,175.339 167.202,185.675 156.976,195.31 L152.702,198.97 L152.701,199.29 L117.9,177.438 C105.849,169.872 102.213,153.971 109.78,141.92 C117.347,129.869 133.248,126.234 145.299,133.801 C146.165,134.344 146.986,134.934 147.764,135.559 C159.646,147.794 168.626,161.731 167.538,175.339 L167.538,175.339 Z" id="Shape" fill="#38B2C0" sketch:type="MSShapeGroup"></path>
            <circle id="Oval" fill="#DD7575" sketch:type="MSShapeGroup" cx="153.678" cy="26.362" r="18.157"></circle>
            <path d="M167.476,14.567 C156.476,-5.384 133.041,1.409 133.041,1.409 C133.041,1.409 156.968,3.583 159.142,16.876 C159.142,16.876 162.894,13.384 165.185,13.976" id="Shape" fill="#F7941E" sketch:type="MSShapeGroup"></path>
        </g>
    </g>
</svg>