<?xml version="1.0" encoding="UTF-8" standalone="no"?>
<svg width="138px" height="295px" viewBox="0 0 138 295" version="1.1" xmlns="http://www.w3.org/2000/svg" xmlns:xlink="http://www.w3.org/1999/xlink" xmlns:sketch="http://www.bohemiancoding.com/sketch/ns">
    <!-- Generator: Sketch 3.3.2 (12043) - http://www.bohemiancoding.com/sketch -->
    <title>personal005</title>
    <desc>Created with Sketch.</desc>
    <defs></defs>
    <g id="Page-1" stroke="none" stroke-width="1" fill="none" fill-rule="evenodd" sketch:type="MSPage">
        <g id="personal005" sketch:type="MSLayerGroup">
            <circle id="Oval" fill="#D1D3D4" sketch:type="MSShapeGroup" cx="41.024" cy="23.528" r="23.042"></circle>
            <path d="M130.08,194.898 C130.08,194.898 148.519,211.879 128.14,257.004 C128.14,257.004 122.319,267.678 122.319,282.719 L122.319,289.361 C122.319,290.159 121.671,290.805 120.874,290.805 C120.077,290.805 119.43,290.159 119.43,289.361 L119.43,282.719 L117.91,282.719 L117.91,289.361 C117.91,290.159 117.265,290.805 116.467,290.805 C115.67,290.805 115.023,290.159 115.023,289.361 L115.023,282.719 L113.503,282.719 L113.503,289.361 C113.503,290.159 112.857,290.805 112.061,290.805 C111.263,290.805 110.616,290.159 110.616,289.361 L110.616,282.719 L109.098,282.719 L109.098,289.361 C109.098,290.159 108.452,290.805 107.654,290.805 C106.855,290.805 106.209,290.159 106.209,289.361 L106.209,282.719 L104.692,282.719 L104.692,289.361 C104.692,290.159 104.045,290.805 103.246,290.805 C102.448,290.805 101.802,290.159 101.802,289.361 L101.802,282.719 L101.802,280.929 L101.802,190.802 L107.167,189.134 C121.664,186.539 130.08,194.898 130.08,194.898 L130.08,194.898 Z" id="Shape" fill="#E5A1B9" sketch:type="MSShapeGroup"></path>
            <path d="M65.848,67.759 C63.813,67.547 61.747,67.435 59.658,67.435 C27.114,67.435 0.732,93.817 0.732,126.362 C0.732,157.714 25.217,183.344 56.108,185.178 L55.906,185.288 C55.906,185.288 75.77,184.608 84.876,200.098 C85.477,202.546 86.473,204.84 87.791,206.91 C87.793,206.917 87.795,206.923 87.797,206.931 L87.799,206.923 C91.88,213.33 99.045,217.584 107.204,217.584 C119.904,217.584 130.201,207.287 130.201,194.586 L130.201,161.775 C130.411,71.038 65.861,67.76 65.848,67.759 L65.848,67.759 Z" id="Shape" fill="#38B2C0" sketch:type="MSShapeGroup"></path>
            <path d="M16.229,294.573 C21.218,294.573 25.262,290.529 25.262,285.539 L25.262,165.682 C25.262,156.992 32.334,149.921 41.026,149.921 C49.715,149.921 56.787,156.991 56.787,165.682 C56.787,170.671 60.831,174.716 65.821,174.716 C70.81,174.716 74.855,170.671 74.855,165.682 C74.855,147.028 59.678,131.853 41.026,131.853 C22.371,131.853 7.195,147.028 7.195,165.682 L7.195,285.54 C7.194,290.529 11.238,294.573 16.229,294.573 L16.229,294.573 Z" id="Shape" fill="#D7DF23" sketch:type="MSShapeGroup"></path>
            <path d="M67.477,194.898 C67.477,194.898 49.04,211.879 69.417,257.004 C69.417,257.004 75.24,267.678 75.24,282.719 L75.24,289.361 C75.24,290.159 75.886,290.805 76.685,290.805 C77.483,290.805 78.127,290.159 78.127,289.361 L78.127,282.719 L79.647,282.719 L79.647,289.361 C79.647,290.159 80.294,290.805 81.092,290.805 C81.889,290.805 82.534,290.159 82.534,289.361 L82.534,282.719 L84.054,282.719 L84.054,289.361 C84.054,290.159 84.701,290.805 85.496,290.805 C86.295,290.805 86.942,290.159 86.942,289.361 L86.942,282.719 L88.461,282.719 L88.461,289.361 C88.461,290.159 89.108,290.805 89.906,290.805 C90.704,290.805 91.349,290.159 91.349,289.361 L91.349,282.719 L92.869,282.719 L92.869,289.361 C92.869,290.159 93.515,290.805 94.313,290.805 C95.109,290.805 95.755,290.159 95.755,289.361 L95.755,282.719 L95.755,280.929 L95.755,190.802 L90.392,189.134 C75.895,186.539 67.477,194.898 67.477,194.898 L67.477,194.898 Z" id="Shape" fill="#FFD100" sketch:type="MSShapeGroup"></path>
            <path d="M33.663,55.712 L23.253,45.302 L23.253,30.579 L33.663,20.167 L48.388,20.167 L58.798,30.579 L58.798,45.302 L48.388,55.712 L33.663,55.712 Z" id="Shape" fill="#FFD100" sketch:type="MSShapeGroup"></path>
        </g>
    </g>
</svg>