<?xml version="1.0" encoding="UTF-8" standalone="no"?>
<svg width="616px" height="616px" viewBox="0 0 616 616" version="1.1" xmlns="http://www.w3.org/2000/svg" xmlns:xlink="http://www.w3.org/1999/xlink" xmlns:sketch="http://www.bohemiancoding.com/sketch/ns">
    <!-- Generator: Sketch 3.3.2 (12043) - http://www.bohemiancoding.com/sketch -->
    <title>personal001</title>
    <desc>Created with Sketch.</desc>
    <defs>
        <circle id="path-1" cx="307.545" cy="307.965" r="307.491"></circle>
    </defs>
    <g id="Page-1" stroke="none" stroke-width="1" fill="none" fill-rule="evenodd" sketch:type="MSPage">
        <g id="personal001" sketch:type="MSLayerGroup">
            <g id="BODY">
                <mask id="mask-2" sketch:name="Mask" fill="white">
                    <use xlink:href="#path-1"></use>
                </mask>
                <use id="Mask" fill="#1C75BC" sketch:type="MSShapeGroup" xlink:href="#path-1"></use>
                <g mask="url(#mask-2)" id="Shape" sketch:type="MSShapeGroup">
                    <g transform="translate(-123.000000, -177.000000)">
                        <path d="M502.98,873.39 C503.145,873.18 503.305,872.964 503.468,872.754 L503.47,872.748 C514.005,858.938 520.266,841.693 520.266,822.982 C520.266,777.618 483.493,740.842 438.127,740.842 C392.765,740.842 355.989,777.618 355.989,822.982 C355.989,841.693 362.25,858.938 372.785,872.748 L372.785,872.748 L372.787,872.754 C372.95,872.964 373.111,873.18 373.276,873.39 C376.097,877.185 390.117,897.75 389.093,929.792 C388.903,931.542 388.8,933.322 388.8,935.123 C388.384,940.173 388.918,943.899 390.151,946.576 C395.318,968.293 414.829,984.45 438.127,984.45 C461.425,984.45 480.938,968.293 486.104,946.576 C487.338,943.899 487.872,940.173 487.456,935.123 C487.456,933.322 487.353,931.542 487.165,929.792 C486.14,897.75 500.159,877.185 502.98,873.39 L502.98,873.39 Z" fill="#27AAE1"></path>
                        <path d="M616.129,816.197 C616.092,816.46 616.061,816.725 616.025,816.992 L616.025,816.995 C613.807,834.223 617.007,852.288 626.364,868.493 C649.046,907.78 699.28,921.239 738.567,898.558 C777.853,875.875 791.312,825.642 768.631,786.356 C759.275,770.15 745.231,758.345 729.201,751.652 L729.201,751.652 L729.196,751.652 C728.949,751.548 728.705,751.443 728.455,751.343 C724.114,749.467 701.693,738.668 686.557,710.407 C685.847,708.795 685.045,707.204 684.147,705.643 C681.98,701.06 679.655,698.102 677.248,696.4 C661.916,680.177 636.94,675.94 616.763,687.589 C596.587,699.236 587.768,722.986 594.153,744.375 C594.422,747.31 595.823,750.804 598.709,754.97 C599.611,756.53 600.589,758.018 601.628,759.443 C618.534,786.68 616.675,811.498 616.129,816.197 L616.129,816.197 Z" fill="#DD7575"></path>
                        <path d="M222.983,664.106 C225.927,663.798 228.916,663.637 231.94,663.637 C279.029,663.637 317.2,701.811 317.2,748.899 C317.2,794.262 281.771,831.345 237.075,833.999 L237.367,834.158 C237.367,834.158 208.625,833.176 195.452,855.586 C194.581,859.13 193.141,862.449 191.235,865.444 C191.232,865.454 191.227,865.464 191.226,865.474 L191.223,865.463 C185.317,874.733 174.952,880.888 163.146,880.888 C144.769,880.888 129.871,865.991 129.871,847.614 L129.871,800.138 C129.565,668.852 222.965,664.107 222.983,664.106 L222.983,664.106 Z" fill="#38B2C0"></path>
                        <path d="M65.067,548.326 C65.947,548.219 66.852,547.948 67.784,547.435 C67.788,547.433 67.794,547.432 67.799,547.429 C69.613,546.769 71.374,546.006 73.084,545.151 C88.517,539.696 116.938,537.167 116.938,537.167 L149.995,535.451 C168.983,534.466 183.576,518.273 182.592,499.285 L181.972,487.337 C180.987,468.348 164.795,453.755 145.807,454.741 L112.75,456.456 C112.75,456.456 84.215,456.88 68.301,453.05 C66.516,452.376 64.687,451.801 62.815,451.333 C62.812,451.33 62.804,451.328 62.799,451.326 C61.817,450.912 60.888,450.735 60,450.721 C56.128,449.987 52.108,449.689 47.998,449.905 C20.252,451.343 -1.076,475.002 0.364,502.75 C1.803,530.496 25.465,551.823 53.211,550.383 C57.324,550.17 61.29,549.457 65.067,548.326 L65.067,548.326 Z" fill="#E5A1B9"></path>
                        <path d="M729.169,578.699 C730.055,578.744 730.992,578.631 731.998,578.284 C732.004,578.283 732.008,578.28 732.014,578.279 C733.911,577.937 735.778,577.481 737.608,576.928 C753.741,574.165 782.179,576.483 782.179,576.483 L815.049,580.389 C833.932,582.632 851.057,569.143 853.301,550.265 L854.712,538.385 C856.956,519.503 843.469,502.378 824.587,500.134 L791.715,496.228 L791.715,496.227 C791.715,496.227 763.525,491.815 748.486,485.347 C746.842,484.381 745.136,483.502 743.373,482.725 C743.368,482.722 743.361,482.718 743.356,482.716 C742.458,482.144 741.575,481.811 740.701,481.646 C737.009,480.268 733.097,479.293 729.008,478.81 C701.421,475.529 676.396,495.239 673.117,522.828 C669.838,550.417 689.547,575.444 717.137,578.721 C721.226,579.205 725.254,579.175 729.169,578.699 L729.169,578.699 Z" fill="#FFD100"></path>
                        <path d="M199.473,220.581 C199.407,220.322 199.334,220.064 199.266,219.807 L199.264,219.802 C194.735,203.032 184.877,187.561 170.04,176.158 C134.072,148.516 82.503,155.264 54.86,191.233 C27.217,227.198 33.967,278.768 69.935,306.412 C84.771,317.814 102.26,323.357 119.629,323.421 L119.629,323.421 L119.633,323.421 C119.902,323.421 120.17,323.423 120.436,323.421 C125.164,323.497 150.013,324.912 174.794,345.252 C176.069,346.468 177.415,347.632 178.844,348.731 C182.594,352.14 185.874,353.984 188.749,354.639 C209.115,363.774 233.817,358.15 248.013,339.679 C262.21,321.205 261.288,295.89 247.219,278.561 C245.848,275.95 243.22,273.255 238.96,270.506 C237.531,269.409 236.06,268.408 234.557,267.49 C208.525,248.778 200.762,225.13 199.473,220.581 L199.473,220.581 Z" fill="#6E5CA8"></path>
                        <path d="M654.292,252.979 L611.604,281.805 L615.228,333.185 L661.534,355.738 L704.217,326.912 L704.231,326.932 C704.231,326.932 763.388,283.987 811.172,308.474 L804.831,205.145 L711.365,160.68 C716.229,214.152 654.292,252.979 654.292,252.979 L654.292,252.979 Z" fill="#DD7575"></path>
                        <path d="M496.464,111.092 C496.626,111.302 496.788,111.516 496.95,111.729 L496.953,111.732 C507.488,125.543 513.75,142.787 513.75,161.499 C513.75,206.862 476.974,243.638 431.61,243.638 C386.246,243.638 349.473,206.862 349.473,161.499 C349.473,142.788 355.733,125.543 366.268,111.732 L366.268,111.732 L366.269,111.729 C366.432,111.516 366.594,111.302 366.758,111.092 C369.58,107.296 383.599,86.733 382.574,54.689 C382.385,52.937 382.282,51.16 382.282,49.358 C381.865,44.308 382.4,40.582 383.634,37.903 C388.8,16.186 408.311,0.031 431.608,0.031 C454.906,0.031 474.418,16.186 479.585,37.903 C480.819,40.581 481.355,44.307 480.937,49.358 C480.937,51.16 480.833,52.937 480.646,54.689 C479.623,86.733 493.642,107.296 496.464,111.092 L496.464,111.092 Z" fill="#C49A6C"></path>
                    </g>
                </g>
            </g>
            <circle id="Oval" fill="#E5A1B9" sketch:type="MSShapeGroup" cx="310.169" cy="499.681" r="26.37"></circle>
            <path d="M318.546,478.217 C318.546,482.844 314.796,486.594 310.17,486.594 L310.17,486.594 C305.544,486.594 301.793,482.843 301.793,478.217 L301.793,470.036 C301.793,465.41 305.543,461.66 310.17,461.66 L310.17,461.66 C314.796,461.66 318.546,465.41 318.546,470.036 L318.546,478.217 L318.546,478.217 Z" id="Shape" fill="#FFD100" sketch:type="MSShapeGroup"></path>
            <path d="M315.43,463.518 C311.172,459.813 315.43,453.867 315.43,453.867 C302.962,453.867 301.793,468.284 301.793,468.284 L301.793,470.722" id="Shape" fill="#FFD100" sketch:type="MSShapeGroup"></path>
            <path d="M323.952,475.735 C323.952,478.288 321.882,480.359 319.328,480.359 L319.328,480.359 C316.774,480.359 314.704,478.289 314.704,475.735 L314.704,471.219 C314.704,468.667 316.774,466.595 319.328,466.595 L319.328,466.595 C321.881,466.595 323.952,468.667 323.952,471.219 L323.952,475.735 L323.952,475.735 Z" id="Shape" fill="#FFD100" sketch:type="MSShapeGroup"></path>
            <path d="M322.231,467.621 C319.881,465.575 322.231,462.295 322.231,462.295 C315.351,462.295 314.704,470.252 314.704,470.252 L314.704,471.599" id="Shape" fill="#FFD100" sketch:type="MSShapeGroup"></path>
            <path d="M454.887,509.104 C439.991,510.972 432.094,493.774 432.094,493.774 L409.365,454.406 L477.805,414.891 L500.535,454.259 C500.535,454.259 508.431,471.457 523.328,469.59" id="Shape" fill="#27AAE1" sketch:type="MSShapeGroup"></path>
            <circle id="Oval" fill="#27AAE1" sketch:type="MSShapeGroup" cx="443.554" cy="434.667" r="39.549"></circle>
            <path d="M421.542,449.28 L429.142,462.443 L459.59,462.441 L474.815,436.072 L467.202,422.888 C459.921,410.276 443.794,405.953 431.179,413.235 C418.57,420.518 414.247,436.645 421.528,449.257 C421.532,449.264 421.537,449.271 421.542,449.28 L421.542,449.28 Z" id="Shape" fill="#FFD100" sketch:type="MSShapeGroup"></path>
            <circle id="Oval" fill="#D1D3D4" sketch:type="MSShapeGroup" cx="135.899" cy="423.109" r="33.339"></circle>
            <path d="M146.551,469.676 L161.615,454.613 L161.615,433.31 L146.551,418.247 L125.249,418.247 L110.185,433.31 L110.185,454.613 L125.249,469.676 L146.551,469.676 Z" id="Shape" fill="#FFD100" sketch:type="MSShapeGroup"></path>
            <path d="M72.18,289.314 C72.18,289.314 54.853,264.7 60.752,243.948 C60.752,243.948 67.562,268.243 82.607,273.432 L85.251,289.226" id="Shape" fill="#F7941E" sketch:type="MSShapeGroup"></path>
            <path d="M116.806,292.129 L122.812,288.88 C122.812,288.88 114.447,269.44 90.226,254.538 C90.226,254.538 76.984,243.997 73.78,229.45 C73.78,229.45 67.076,236.969 77.508,256.248 C87.938,275.524 79.157,282.519 79.157,282.519" id="Shape" fill="#F7941E" sketch:type="MSShapeGroup"></path>
            <circle id="Oval" fill="#DD7575" sketch:type="MSShapeGroup" cx="93.615" cy="304.678" r="26.37"></circle>
            <circle id="Oval" sketch:type="MSShapeGroup" cx="307.545" cy="307.965" r="307.491"></circle>
            <circle id="Oval" fill="#D7DF23" sketch:type="MSShapeGroup" cx="489.601" cy="330.736" r="33.34"></circle>
            <circle id="Oval" fill="#D7DF23" sketch:type="MSShapeGroup" cx="510.331" cy="359.688" r="16.669"></circle>
            <path d="M537.042,325.153 L523.687,308.557 L502.506,306.267 L485.912,319.622 L483.623,340.802 L496.979,357.397 L518.155,359.688 L534.752,346.332 L537.042,325.153 Z" id="Shape" fill="#C49A6C" sketch:type="MSShapeGroup"></path>
            <circle id="Oval" fill="#D7DF23" sketch:type="MSShapeGroup" cx="510.332" cy="306.266" r="16.67"></circle>
            <g id="Group" transform="translate(133.000000, 156.000000)" sketch:type="MSShapeGroup">
                <path d="M14.025,54.656 L27.26,62.124 L53.479,46.641 L53.179,16.193 L39.922,8.714 C27.238,1.554 11.153,6.032 3.995,18.717 C-3.162,31.4 1.317,47.485 14.001,54.641 C14.009,54.646 14.016,54.651 14.025,54.656 L14.025,54.656 Z" id="Shape" fill="#FFD100"></path>
                <g transform="translate(23.000000, 8.000000)" id="Oval" fill="#FFFFFF">
                    <circle cx="43.761" cy="22.132" r="22.131"></circle>
                    <circle cx="22.326" cy="58.893" r="22.131"></circle>
                </g>
                <circle id="Oval" fill="#FFFFFF" cx="71.417" cy="57.477" r="23.306"></circle>
                <g transform="translate(4.000000, 0.000000)" id="Shape" fill="#FFFFFF">
                    <path d="M2.145,56.71 C0.187,55.568 -0.474,53.058 0.667,51.102 L0.667,51.102 C1.808,49.145 4.318,48.482 6.275,49.624 L26.177,61.228 C28.133,62.369 28.796,64.881 27.654,66.837 L27.654,66.837 C26.512,68.794 24.003,69.455 22.045,68.314 L2.145,56.71 L2.145,56.71 Z"></path>
                    <path d="M30.468,8.134 C28.511,6.994 27.849,4.483 28.992,2.526 L28.992,2.526 C30.132,0.569 32.644,-0.092 34.6,1.048 L54.502,12.653 C56.459,13.793 57.119,16.303 55.978,18.261 L55.978,18.261 C54.837,20.217 52.326,20.879 50.369,19.738 L30.468,8.134 L30.468,8.134 Z"></path>
                </g>
            </g>
            <g id="Group" transform="translate(385.000000, 160.000000)" sketch:type="MSShapeGroup">
                <path d="M88.202,36.799 L37.596,83.858 L58.676,18.047 L88.202,36.799 Z" id="Shape" fill="#E5A1B9"></path>
                <path d="M76.755,44.778 L0.915,71.443 L53.983,11.055 L76.755,44.778 Z" id="Shape" fill="#E5A1B9"></path>
                <path d="M57.378,7.07 C44.44,19.897 50.125,38.212 50.125,38.212 C50.125,38.212 64.99,50.325 81.721,43.118 C83.185,42.537 84.609,41.794 85.968,40.877 C96.159,33.995 98.841,20.153 91.958,9.962 C85.076,-0.23 71.234,-2.914 61.042,3.968 C59.684,4.887 58.464,5.929 57.378,7.07 L57.378,7.07 Z" id="Shape" fill="#FFFFFF"></path>
            </g>
            <g id="Group" transform="translate(267.000000, 97.000000)" sketch:type="MSShapeGroup">
                <path d="M57.296,25.008 C57.446,21.716 60.238,19.17 63.529,19.32 L63.529,19.32 C66.822,19.47 69.369,22.261 69.219,25.553 L68.033,51.515 C67.882,54.809 65.092,57.355 61.8,57.204 L61.8,57.204 C58.509,57.054 55.96,54.264 56.112,50.973 L57.296,25.008 L57.296,25.008 Z" id="Shape" fill="#FFD100"></path>
                <path d="M7.664,19.296 C8.165,8.316 17.473,-0.178 28.451,0.323 L44.443,1.054 C55.422,1.554 63.916,10.863 63.415,21.84 L62.158,49.379 C61.658,60.358 52.349,68.85 41.37,68.349 L25.378,67.62 C14.4,67.118 5.906,57.811 6.408,46.831 L7.664,19.296 L7.664,19.296 Z" id="Shape" fill="#27AAE1"></path>
                <path d="M44.671,78.621 L94.94,80.918 C94.94,80.918 90.905,54.861 56.498,53.058 L6.227,50.763 C6.228,50.762 10.262,76.818 44.671,78.621 L44.671,78.621 Z" id="Shape" fill="#FFD100"></path>
                <path d="M1.546,22.462 C1.696,19.17 4.487,16.622 7.778,16.774 L7.778,16.774 C11.071,16.924 13.618,19.715 13.468,23.007 L12.282,48.97 C12.131,52.263 9.34,54.809 6.048,54.66 L6.048,54.66 C2.756,54.508 0.208,51.719 0.359,48.426 L1.546,22.462 L1.546,22.462 Z" id="Shape" fill="#FFD100"></path>
            </g>
        </g>
    </g>
</svg>