<?xml version="1.0" encoding="UTF-8" standalone="no"?>
<svg width="191px" height="113px" viewBox="0 0 191 113" version="1.1" xmlns="http://www.w3.org/2000/svg" xmlns:xlink="http://www.w3.org/1999/xlink" xmlns:sketch="http://www.bohemiancoding.com/sketch/ns">
    <!-- Generator: Sketch 3.3.2 (12043) - http://www.bohemiancoding.com/sketch -->
    <title>property7</title>
    <desc>Created with Sketch.</desc>
    <defs></defs>
    <g id="Page-1" stroke="none" stroke-width="1" fill="none" fill-rule="evenodd" sketch:type="MSPage">
        <g id="property7" sketch:type="MSLayerGroup">
            <path d="M62.307,63.422 C62.307,66.285 59.987,68.605 57.125,68.605 L51.4,68.605 C48.54,68.605 46.218,66.285 46.218,63.422 L46.218,5.37 C46.218,2.508 48.539,0.187 51.4,0.187 L57.125,0.187 C59.986,0.187 62.307,2.507 62.307,5.37 L62.307,63.422 L62.307,63.422 Z" id="Shape" fill="#27AAE1" sketch:type="MSShapeGroup"></path>
            <path d="M70.35,69.724 C70.35,72.586 68.03,74.907 65.167,74.907 L59.445,74.907 C56.582,74.907 54.262,72.587 54.262,69.724 L54.262,22.622 C54.262,19.76 56.581,17.44 59.445,17.44 L65.167,17.44 C68.029,17.44 70.35,19.76 70.35,22.622 L70.35,69.724 L70.35,69.724 Z" id="Shape" fill="#1C75BC" sketch:type="MSShapeGroup"></path>
            <path d="M190.478,95.093 C173.402,91.242 161.831,49.733 161.831,49.733 L32.689,54.517 C32.689,54.517 21.418,110.977 0.254,112.485 L190.478,95.093 L190.478,95.093 Z" id="Shape" fill="#38B2C0" sketch:type="MSShapeGroup"></path>
            <path d="M165.625,97.365 C155.782,92.828 139.911,50.545 139.911,50.545 L124.512,51.115 C124.512,51.115 127.377,76.149 136.577,100.021 L165.625,97.365 L165.625,97.365 Z" id="Shape" fill="#8DC63F" sketch:type="MSShapeGroup"></path>
        </g>
    </g>
</svg>