<?xml version="1.0" encoding="UTF-8" standalone="no"?>
<svg width="183px" height="68px" viewBox="0 0 183 68" version="1.1" xmlns="http://www.w3.org/2000/svg" xmlns:xlink="http://www.w3.org/1999/xlink" xmlns:sketch="http://www.bohemiancoding.com/sketch/ns">
    <!-- Generator: Sketch 3.3.2 (12043) - http://www.bohemiancoding.com/sketch -->
    <title>property6</title>
    <desc>Created with Sketch.</desc>
    <defs></defs>
    <g id="Page-1" stroke="none" stroke-width="1" fill="none" fill-rule="evenodd" sketch:type="MSPage">
        <g id="property6" sketch:type="MSLayerGroup">
            <path d="M9.573,14.022 L28.237,65.829 L167.993,65.829 L154.722,0.153 L9.573,14.022 Z" id="Shape" fill="#DD7575" sketch:type="MSShapeGroup"></path>
            <path d="M167.993,67.583 L28.237,67.583 C27.897,67.583 27.563,67.484 27.278,67.298 L1.303,50.348 C0.657,49.928 0.363,49.136 0.574,48.396 C0.786,47.656 1.455,47.141 2.225,47.125 L180.44,43.469 C181.06,43.446 181.675,43.792 181.996,44.347 C182.315,44.901 182.308,45.585 181.977,46.133 L169.493,66.739 C169.175,67.263 168.606,67.583 167.993,67.583 L167.993,67.583 Z M28.759,64.075 L167.005,64.075 L177.325,47.042 L7.98,50.516 L28.759,64.075 L28.759,64.075 Z" id="Shape" fill="#BE1E2D" sketch:type="MSShapeGroup"></path>
            <path d="M28.237,67.583 C27.518,67.583 26.843,67.138 26.587,66.423 L20.336,49.069 C20.007,48.157 20.48,47.152 21.391,46.824 C22.302,46.495 23.308,46.968 23.636,47.88 L29.888,65.234 C30.216,66.146 29.743,67.15 28.831,67.479 C28.636,67.55 28.435,67.583 28.237,67.583 L28.237,67.583 Z" id="Shape" fill="#BE1E2D" sketch:type="MSShapeGroup"></path>
            <path d="M167.991,67.583 C167.175,67.583 166.444,67.01 166.274,66.179 L162.138,45.914 C161.946,44.965 162.558,44.038 163.506,43.845 C164.456,43.65 165.382,44.264 165.575,45.213 L169.711,65.478 C169.904,66.427 169.292,67.354 168.343,67.547 C168.226,67.572 168.107,67.583 167.991,67.583 L167.991,67.583 Z" id="Shape" fill="#BE1E2D" sketch:type="MSShapeGroup"></path>
            <path d="M36.787,67.583 C35.94,67.583 35.194,66.968 35.057,66.104 L32.256,48.503 C32.104,47.546 32.755,46.647 33.712,46.495 C34.669,46.343 35.568,46.995 35.721,47.952 L38.523,65.554 C38.675,66.511 38.023,67.409 37.066,67.562 C36.972,67.576 36.879,67.583 36.787,67.583 L36.787,67.583 Z" id="Shape" fill="#BE1E2D" sketch:type="MSShapeGroup"></path>
            <path d="M48.512,67.583 C47.668,67.583 46.924,66.972 46.783,66.111 L43.867,48.273 C43.711,47.317 44.359,46.415 45.315,46.259 C46.271,46.106 47.173,46.752 47.33,47.707 L50.246,65.545 C50.401,66.501 49.754,67.403 48.797,67.559 C48.702,67.576 48.605,67.583 48.512,67.583 L48.512,67.583 Z" id="Shape" fill="#BE1E2D" sketch:type="MSShapeGroup"></path>
            <path d="M58.117,67.825 C57.269,67.825 56.523,67.21 56.387,66.346 L53.584,48.747 C53.432,47.79 54.084,46.891 55.041,46.738 C55.998,46.586 56.897,47.238 57.049,48.195 L59.852,65.795 C60.004,66.752 59.352,67.65 58.395,67.803 C58.301,67.817 58.208,67.825 58.117,67.825 L58.117,67.825 Z" id="Shape" fill="#BE1E2D" sketch:type="MSShapeGroup"></path>
            <path d="M69.84,67.56 C68.997,67.56 68.254,66.951 68.112,66.093 L65.197,48.52 C65.039,47.564 65.685,46.661 66.64,46.503 C67.598,46.341 68.499,46.991 68.658,47.946 L71.572,65.519 C71.731,66.475 71.085,67.378 70.129,67.536 C70.031,67.552 69.936,67.56 69.84,67.56 L69.84,67.56 Z" id="Shape" fill="#BE1E2D" sketch:type="MSShapeGroup"></path>
            <path d="M81.153,67.583 C80.183,67.583 79.398,66.797 79.398,65.829 L79.398,47.991 C79.398,47.022 80.183,46.237 81.153,46.237 C82.121,46.237 82.907,47.023 82.907,47.991 L82.907,65.829 C82.907,66.797 82.121,67.583 81.153,67.583 L81.153,67.583 Z" id="Shape" fill="#BE1E2D" sketch:type="MSShapeGroup"></path>
            <path d="M149.88,66.066 C149.788,66.066 149.695,66.059 149.603,66.044 C148.646,65.892 147.994,64.992 148.146,64.036 L150.948,46.436 C151.1,45.479 152.003,44.827 152.957,44.979 C153.914,45.131 154.565,46.03 154.413,46.987 L151.611,64.587 C151.473,65.451 150.728,66.066 149.88,66.066 L149.88,66.066 Z" id="Shape" fill="#BE1E2D" sketch:type="MSShapeGroup"></path>
            <path d="M138.156,66.066 C138.062,66.066 137.967,66.058 137.871,66.043 C136.914,65.886 136.267,64.984 136.422,64.028 L139.338,46.19 C139.494,45.234 140.394,44.586 141.352,44.741 C142.308,44.898 142.956,45.799 142.8,46.755 L139.885,64.593 C139.744,65.455 139,66.066 138.156,66.066 L138.156,66.066 Z" id="Shape" fill="#BE1E2D" sketch:type="MSShapeGroup"></path>
            <path d="M128.552,66.309 C128.459,66.309 128.366,66.302 128.273,66.288 C127.317,66.135 126.665,65.236 126.817,64.279 L129.619,46.678 C129.772,45.721 130.673,45.07 131.628,45.221 C132.584,45.374 133.236,46.273 133.084,47.229 L130.282,64.831 C130.144,65.694 129.398,66.309 128.552,66.309 L128.552,66.309 Z" id="Shape" fill="#BE1E2D" sketch:type="MSShapeGroup"></path>
            <path d="M116.828,66.042 C116.732,66.042 116.637,66.035 116.539,66.018 C115.583,65.86 114.937,64.957 115.096,64.001 L118.01,46.429 C118.169,45.473 119.072,44.825 120.028,44.986 C120.984,45.144 121.63,46.048 121.472,47.003 L118.557,64.575 C118.414,65.434 117.671,66.042 116.828,66.042 L116.828,66.042 Z" id="Shape" fill="#BE1E2D" sketch:type="MSShapeGroup"></path>
            <path d="M105.516,66.066 C104.547,66.066 103.761,65.281 103.761,64.312 L103.761,46.953 C103.761,45.985 104.547,45.199 105.516,45.199 C106.485,45.199 107.27,45.985 107.27,46.953 L107.27,64.312 C107.27,65.281 106.484,66.066 105.516,66.066 L105.516,66.066 Z" id="Shape" fill="#BE1E2D" sketch:type="MSShapeGroup"></path>
            <path d="M92.576,67.583 C91.607,67.583 90.821,66.797 90.821,65.829 L90.821,47.991 C90.821,47.022 91.607,46.237 92.576,46.237 C93.545,46.237 94.33,47.023 94.33,47.991 L94.33,65.829 C94.33,66.797 93.545,67.583 92.576,67.583 L92.576,67.583 Z" id="Shape" fill="#BE1E2D" sketch:type="MSShapeGroup"></path>
        </g>
    </g>
</svg>