<?xml version="1.0" encoding="UTF-8" standalone="no"?>
<svg width="326px" height="565px" viewBox="0 0 326 565" version="1.1" xmlns="http://www.w3.org/2000/svg" xmlns:xlink="http://www.w3.org/1999/xlink" xmlns:sketch="http://www.bohemiancoding.com/sketch/ns">
    <!-- Generator: Sketch 3.3.2 (12043) - http://www.bohemiancoding.com/sketch -->
    <title>property1</title>
    <desc>Created with Sketch.</desc>
    <defs></defs>
    <g id="Page-1" stroke="none" stroke-width="1" fill="none" fill-rule="evenodd" sketch:type="MSPage">
        <g id="property1" sketch:type="MSLayerGroup">
            <path d="M26.78,0.589 C42.741,10.148 53.429,27.608 53.429,47.566 C53.429,67.525 42.741,84.985 26.78,94.544 C10.818,104.104 0.132,121.564 0.132,141.522 C0.132,161.481 10.819,178.941 26.78,188.5 L26.78,188.998 C42.741,198.558 53.429,216.017 53.429,235.976 C53.429,255.935 42.741,273.396 26.78,282.954 C10.818,292.514 0.132,309.974 0.132,329.931 C0.132,349.892 10.819,367.351 26.78,376.91 C42.741,386.468 53.429,403.929 53.429,423.888 C53.429,443.846 42.741,461.306 26.78,470.865 C10.818,480.425 0.132,497.885 0.132,517.844 C0.132,537.802 10.819,555.263 26.78,564.821 L298.742,564.821 C282.78,555.263 272.094,537.803 272.094,517.844 C272.094,497.885 282.781,480.425 298.742,470.865 C314.703,461.305 325.39,443.846 325.39,423.888 C325.39,403.93 314.702,386.469 298.742,376.91 C282.78,367.35 272.094,349.891 272.094,329.932 C272.094,309.974 282.781,292.513 298.742,282.954 C314.703,273.396 325.39,255.935 325.39,235.976 C325.39,216.017 314.702,198.557 298.742,188.998 L298.742,188.5 C282.78,178.941 272.094,161.481 272.094,141.522 C272.094,121.564 282.781,104.104 298.742,94.544 C314.703,84.985 325.39,67.525 325.39,47.566 C325.39,27.608 314.702,10.148 298.742,0.589 L26.78,0.589 L26.78,0.589 Z" id="Shape" fill="#E5A1B9" sketch:type="MSShapeGroup"></path>
            <g id="Group" transform="translate(25.000000, 132.000000)" fill="#DD7575" sketch:type="MSShapeGroup">
                <path d="M41.384,43.342 C28.872,33.391 20.816,18.078 20.698,0.877 L0.014,0.877 C0.131,18.078 8.186,33.391 20.698,43.342 L41.384,43.342 L41.384,43.342 Z" id="Shape"></path>
                <path d="M89.628,43.342 C77.117,33.391 69.063,18.078 68.944,0.877 L48.258,0.877 C48.376,18.078 56.431,33.391 68.944,43.342 L89.628,43.342 L89.628,43.342 Z" id="Shape"></path>
                <path d="M137.874,43.342 C125.361,33.391 117.307,18.078 117.189,0.877 L96.504,0.877 C96.62,18.078 104.676,33.391 117.189,43.342 L137.874,43.342 L137.874,43.342 Z" id="Shape"></path>
            </g>
        </g>
    </g>
</svg>