<?xml version="1.0" encoding="UTF-8" standalone="no"?>
<svg width="595px" height="434px" viewBox="0 0 595 434" version="1.1" xmlns="http://www.w3.org/2000/svg" xmlns:xlink="http://www.w3.org/1999/xlink" xmlns:sketch="http://www.bohemiancoding.com/sketch/ns">
    <!-- Generator: Sketch 3.3.2 (12043) - http://www.bohemiancoding.com/sketch -->
    <title>property</title>
    <desc>Created with Sketch.</desc>
    <defs></defs>
    <g id="Page-1" stroke="none" stroke-width="1" fill="none" fill-rule="evenodd" sketch:type="MSPage">
        <g id="property" sketch:type="MSLayerGroup" fill="#000000">
            <g id="Group" transform="translate(132.000000, 100.000000)" sketch:type="MSShapeGroup">
                <g id="Shape">
                    <path d="M71.657,3.443 C71.427,3.443 71.202,3.459 70.973,3.463 C66.073,3.088 61.626,3.481 57.543,4.459 L57.564,4.414 C43.534,6.543 33.283,17.184 25.921,31.947 C22.135,14.009 18.656,3.443 18.656,3.443 C16.645,-3.35 0.126,4.904 0.126,4.904 C0.126,4.904 7.814,30.931 15.076,64.355 C10.006,87.408 8.633,112.543 9.168,130.935 C10.07,161.892 19.827,168.263 25.004,169.457 C25.605,169.623 25.975,169.641 25.975,169.641 C26.731,169.881 27.481,169.846 28.193,169.641 C50.368,167.674 32.649,73.848 32.649,73.848 L32.649,73.856 C32.305,70.803 31.941,67.823 31.556,64.922 C34.072,56.182 37.311,47.217 41.459,38.192 C44.201,32.694 51.693,20.669 65.186,19.585 C74.706,19.788 84.629,24.345 81.926,43.567 C79.344,61.936 68.713,69.247 59.1,73.626 C49.944,77.618 36.558,79.718 36.558,79.718 L38.477,90.947 L41.116,91.127 L44.907,91.055 C124.567,82.523 101.648,3.443 71.657,3.443 L71.657,3.443 Z M27.082,142.07 C27.082,142.785 26.503,143.365 25.788,143.365 C25.304,143.365 24.897,143.088 24.677,142.691 C23.862,134.527 23.34,124.134 23.878,112.25 C25.349,122.453 26.481,132.565 27.128,142.199 L27.082,142.07 L27.082,142.07 Z"></path>
                    <path d="M212.519,95 C212.347,95 212.183,95.012 212.013,95.014 C208.388,94.737 205.099,95.026 202.077,95.75 L202.093,95.717 C191.714,97.291 184.13,105.164 178.685,116.086 C175.886,102.816 173.312,95 173.312,95 C171.824,89.975 159.603,96.078 159.603,96.078 C159.603,96.078 165.291,115.334 170.664,140.06 C166.912,157.113 165.896,175.707 166.293,189.312 C166.961,212.212 174.178,216.925 178.008,217.808 C178.453,217.933 178.727,217.945 178.727,217.945 C179.286,218.123 179.84,218.095 180.368,217.945 C196.77,216.492 183.663,147.082 183.663,147.082 L183.663,147.088 C183.409,144.828 183.14,142.623 182.856,140.479 C184.715,134.014 187.114,127.381 190.18,120.706 C192.209,116.64 197.752,107.743 207.733,106.94 C214.776,107.09 222.118,110.461 220.118,124.68 C218.208,138.27 210.343,143.678 203.231,146.916 C196.458,149.869 186.555,151.424 186.555,151.424 L187.975,159.733 L189.926,159.864 L192.731,159.811 C251.659,153.5 234.706,95 212.519,95 L212.519,95 Z M179.544,197.551 C179.544,198.08 179.114,198.508 178.587,198.508 C178.228,198.508 177.927,198.303 177.763,198.01 C177.161,191.971 176.777,184.283 177.173,175.49 C178.261,183.037 179.099,190.517 179.577,197.644 L179.544,197.551 L179.544,197.551 Z"></path>
                    <path d="M348.985,108.598 C343.739,99.545 329.69,96.659 315.868,102.52 C316.151,90.6 300.563,93.272 300.563,93.272 L300.561,93.264 C300.145,95.846 299.614,98.637 298.926,101.659 C296.08,114.192 292.164,123.495 290.817,135.8 C271.868,159.593 260.389,151.273 260.389,151.273 C242.91,137.302 257.516,100.695 266.711,109.89 C275.908,119.085 256.076,134.312 256.076,134.312 C255.215,140.63 260.388,146.054 260.388,146.054 C296.886,130.204 292.001,82.587 262.687,94.083 C233.375,105.577 236.248,134.311 236.248,134.311 C236.248,134.311 236.332,136.821 237.051,140.483 C237.051,140.483 237.176,141.038 237.403,141.928 C237.403,141.928 237.635,144.282 239.419,148.649 C240.103,150.557 240.894,152.413 241.749,153.721 C241.866,153.93 242.003,154.135 242.126,154.344 C242.183,154.451 242.233,154.553 242.292,154.66 C242.587,155.201 242.847,155.609 243.085,155.91 C246.142,160.549 250.552,164.713 256.942,166.9 C272.001,172.054 285.557,161.341 291.212,155.886 C293.198,163.988 299.646,167.316 307.171,167.56 C306.271,163.507 305.89,158.941 305.792,154.595 C306.604,139.441 309.19,131.581 309.589,130.448 C313.997,120.022 319.993,111.874 326.527,113.891 C330.691,115.178 332.662,117.5 333.379,120.159 C333.379,120.159 334.182,126.628 332.205,130.286 C332.205,130.286 346.398,133.13 350.117,121.347 C351.832,114.509 350.14,110.367 349.053,108.572 C349.032,108.582 349.007,108.588 348.985,108.598 L348.985,108.598 Z"></path>
                    <path d="M456.993,119.947 C453.72,117.24 445.854,116.265 436.888,128.551 C430.202,137.709 430.882,146.485 431.661,150.361 L431.659,150.361 L431.661,150.383 C431.706,150.602 431.749,150.785 431.792,150.971 C431.872,151.338 431.981,151.869 432.104,152.524 C432.047,152.569 431.991,152.616 431.94,152.659 C424.807,158.528 420.378,159.032 417.633,157.679 L417.633,157.677 C413.16,154.507 413.875,147.632 414.041,146.392 C414.51,144.122 415.068,142.048 415.695,140.124 C425.947,108.126 399.289,109.411 399.289,109.411 C399.289,109.411 401.299,122.448 397.623,132.452 C397.561,132.616 397.496,132.784 397.434,132.95 C397.35,133.161 397.268,133.376 397.18,133.585 C396.684,134.759 396.383,135.769 396.225,136.649 C394.914,141.495 394.575,146.34 395.168,150.858 C389.918,151.88 382.705,153.194 382.705,153.194 C381.254,153.479 379.709,153.694 378.031,153.801 C365.756,154.594 370.332,135.486 376.377,115.906 C376.639,115.91 376.881,115.918 377.148,115.922 C408.171,116.158 396.945,94.707 396.945,94.707 C391.777,98.332 386.193,100.617 380.756,102.033 C382.238,97.306 383.584,92.84 384.535,88.963 C388.178,74.119 384.478,67.901 380.494,65.76 C376.306,62.91 372.031,65.153 370.601,65.766 C369.167,66.377 365.619,66.932 365.619,66.932 L367.096,66.817 C366.198,66.901 365.619,66.932 365.619,66.932 C365.619,66.932 366.807,78.455 362.373,97.956 C361.894,100.063 361.385,102.075 360.865,104.04 C355.002,103.808 351.144,102.979 351.144,102.979 L351.144,105.317 C351.144,105.317 348.64,110.512 358.185,113.631 C354.74,125.692 351.744,136.996 353.212,154.393 C354.778,172.973 373.808,173.739 388.597,167.625 C392.872,166.234 397.064,164.268 399.701,162.937 C401.123,164.98 402.844,166.81 404.892,168.339 C412.808,174.251 423.529,174.452 433.408,169.946 C433.312,171.335 433.154,172.708 432.914,174.032 C432.84,174.38 432.762,174.731 432.68,175.081 C401.838,187.235 395.606,195.044 395.606,195.044 L395.62,195.042 C391.224,199.21 387.13,204.89 386.063,211.206 C384.807,218.663 389.77,222.751 393.588,224.749 C393.611,224.868 393.647,224.983 393.668,225.101 C394.848,225.591 396.092,225.992 397.395,226.308 C397.536,226.349 397.637,226.376 397.637,226.376 L397.649,226.358 C406.616,228.444 418.139,226.383 428.551,219.094 C435.737,214.065 442.35,204.381 447.071,193.069 C447.114,192.956 447.192,192.737 447.296,192.434 C447.302,192.42 447.306,192.407 447.312,192.393 C447.636,191.45 448.201,189.659 448.779,187.163 C451.242,174.907 449.447,157.567 449.447,157.567 C453.578,153.68 457.343,149.049 459.379,143.858 C465.562,128.086 460.259,122.652 456.993,119.947 L456.993,119.947 Z M408.524,211.656 C408.524,211.656 391.413,204.324 429.788,185.601 C425.013,200.309 417.206,214.34 408.524,211.656 L408.524,211.656 Z M445.442,144.547 L445.266,144.692 C445.248,144.62 445.237,144.555 445.223,144.483 C445.045,143.534 444.432,139.522 445.895,135.928 L445.895,135.928 C446.778,134.399 448.104,133.53 450.1,134.262 C456.409,136.572 445.442,144.547 445.442,144.547 L445.442,144.547 Z"></path>
                    <path d="M152.003,108.1 C148.036,107.018 140.704,109.301 137.7,123.721 C134.7,138.143 143.11,146.674 143.11,146.674 C143.063,146.772 143.012,146.871 142.964,146.965 C137.761,157.537 132.982,158.039 129.771,156.426 C126.322,154.643 124.853,149.41 124.4,147.367 C119.416,123.049 133.115,114.56 136.886,112.719 C136.886,112.719 139.351,106.588 147.095,103.561 L146.476,103.053 C133.187,92.639 120.519,106.418 120.519,106.418 C104.587,120.203 105.72,140.395 107.996,151.688 C107.996,151.688 109.56,160.483 115.725,165.53 C132.901,179.331 149.239,162.897 149.239,162.897 C149.239,162.897 164.501,144.631 163.659,128.245 C162.815,111.859 155.97,109.18 152.003,108.1 L152.003,108.1 Z M151.642,134.416 L150.919,135.859 C150.919,135.859 145.155,123.961 151.642,123.482 C158.132,123 151.642,134.416 151.642,134.416 L151.642,134.416 Z"></path>
                    <path d="M105.05,105.193 C105.03,105.205 105.007,105.214 104.988,105.226 C98.642,96.906 84.343,95.81 71.369,103.365 C70.148,91.504 55.023,96.115 55.023,96.115 L55.018,96.107 C54.93,98.722 54.757,101.558 54.456,104.64 C53.466,114.794 51.555,123.017 50.913,132.165 L50.913,132.163 C50.913,132.163 46.668,151.661 55.225,162.571 C55.251,162.606 55.275,162.63 55.3,162.661 C58.765,167.88 64.597,169.575 70.925,168.981 C69.519,165.073 68.566,160.59 67.925,156.292 C66.823,141.157 68.4,133.034 68.654,131.86 C71.715,120.964 76.638,112.124 83.371,113.305 C87.664,114.057 89.914,116.114 90.959,118.66 C90.959,118.66 92.568,124.974 91.07,128.855 C91.07,128.855 105.506,129.888 107.713,117.732 C108.554,110.734 106.352,106.838 105.05,105.193 L105.05,105.193 Z"></path>
                </g>
                <g transform="translate(117.000000, 19.000000)" id="Shape">
                    <path d="M88.71,56.33 C90.927,54.156 92.907,51.615 94.015,48.791 C97.638,39.549 94.533,36.365 92.617,34.779 C90.703,33.193 86.09,32.623 80.838,39.822 C75.586,47.019 78.092,53.82 78.092,53.82 C78.041,53.863 77.992,53.904 77.942,53.947 C74.872,56.47 72.657,57.302 71.057,57.254 C66.465,56.09 67.455,50.311 67.709,49.123 C71.256,34.301 81.393,33.549 83.404,33.549 C83.404,33.549 84.931,31.311 91.029,31.022 L90.83,30.618 C86.107,21.567 75.685,25.999 75.685,25.999 C67.921,28.3 63.31,33.747 60.576,39.153 C60.363,39.591 54.701,51.268 59.765,59.776 C66.216,68.546 77.421,64.292 77.421,64.292 C77.421,64.292 80.353,62.874 83.817,60.397 C86.694,62.211 90.87,63.536 96.817,62.922 C96.817,62.922 92.722,61.803 88.71,56.33 L88.71,56.33 Z M88.579,43.166 C92.276,44.521 85.852,49.193 85.852,49.193 L85.094,49.808 C85.095,49.809 84.884,41.812 88.579,43.166 L88.579,43.166 Z"></path>
                    <path d="M157.839,63.697 C157.839,63.697 153.749,62.576 149.739,57.103 C151.952,54.929 153.93,52.386 155.04,49.566 C158.663,40.322 155.56,37.138 153.644,35.554 C151.726,33.968 147.117,33.396 141.865,40.595 C136.611,47.794 139.117,54.595 139.117,54.595 C139.066,54.636 139.017,54.677 138.969,54.72 C135.899,57.243 133.682,58.075 132.086,58.025 C127.49,56.863 128.482,51.086 128.734,49.896 C132.279,35.074 142.42,34.324 144.427,34.324 C144.427,34.324 145.96,32.084 152.056,31.795 L151.859,31.393 C147.132,22.34 136.711,26.772 136.711,26.772 C128.947,29.075 124.336,34.52 121.604,39.928 C121.471,40.194 119.325,44.635 118.805,49.989 C117.065,50.837 114.889,51.483 112.157,51.659 C105.192,52.108 107.788,41.268 111.214,30.163 C111.364,30.163 111.501,30.169 111.652,30.171 C129.256,30.306 122.882,18.136 122.882,18.136 C119.956,20.191 116.784,21.488 113.702,22.29 C114.54,19.61 115.306,17.079 115.845,14.88 C117.911,6.458 115.814,2.929 113.552,1.716 C111.175,0.099 108.751,1.372 107.939,1.718 C107.128,2.068 105.115,2.38 105.115,2.38 L105.953,2.314 C105.443,2.365 105.115,2.38 105.115,2.38 C105.115,2.38 105.789,8.917 103.271,19.98 C103,21.175 102.712,22.318 102.419,23.431 C99.093,23.3 96.901,22.829 96.901,22.829 L96.901,24.155 C96.901,24.155 95.483,27.102 100.899,28.872 C98.942,35.712 97.245,42.128 98.077,51.993 C99.03,63.274 111.333,62.983 119.882,58.716 C120.14,59.339 120.437,59.954 120.792,60.55 C127.241,69.321 138.45,65.068 138.45,65.068 C138.45,65.068 141.382,63.65 144.845,61.173 C147.724,62.984 151.897,64.309 157.839,63.697 L157.839,63.697 Z M149.606,43.939 C153.301,45.294 146.876,49.968 146.876,49.968 L146.122,50.581 C146.122,50.582 145.909,42.586 149.606,43.939 L149.606,43.939 Z"></path>
                    <path d="M6.546,5.881 C6.546,5.881 7.763,12.145 15.925,13.014 C18.232,13.26 21.493,13.203 25.099,13.27 C25.058,13.329 25.011,13.379 24.97,13.438 C23.784,15.172 22.622,17.114 21.495,19.184 L21.495,19.18 C21.39,19.377 21.282,19.578 21.177,19.778 C20.995,20.112 20.818,20.452 20.64,20.794 C20.505,21.056 20.369,21.319 20.234,21.585 C20.109,21.831 19.984,22.077 19.863,22.325 C19.736,22.573 19.613,22.823 19.488,23.075 C19.306,23.45 19.123,23.825 18.945,24.204 C18.812,24.474 18.683,24.745 18.554,25.016 C18.433,25.276 18.31,25.536 18.191,25.797 C18.078,26.043 17.962,26.291 17.849,26.539 C17.677,26.916 17.509,27.295 17.339,27.676 C17.206,27.969 17.077,28.262 16.948,28.555 C16.833,28.819 16.718,29.08 16.606,29.342 C16.495,29.594 16.387,29.846 16.282,30.096 C16.137,30.424 16.001,30.752 15.862,31.08 C15.716,31.43 15.569,31.777 15.426,32.125 C15.319,32.379 15.217,32.633 15.112,32.887 C15.005,33.149 14.897,33.41 14.794,33.672 C14.698,33.91 14.601,34.149 14.507,34.385 C14.335,34.817 14.165,35.242 13.997,35.668 C13.905,35.902 13.815,36.137 13.722,36.371 C13.62,36.641 13.511,36.91 13.411,37.178 C13.323,37.399 13.241,37.617 13.159,37.836 C12.995,38.266 12.833,38.69 12.673,39.111 C12.603,39.308 12.527,39.502 12.454,39.695 C12.349,39.992 12.237,40.285 12.132,40.576 C12.064,40.762 11.995,40.945 11.929,41.129 C11.777,41.553 11.62,41.969 11.474,42.381 C11.419,42.531 11.369,42.68 11.316,42.83 C11.203,43.144 11.093,43.455 10.982,43.764 C10.931,43.909 10.877,44.057 10.828,44.202 C10.685,44.612 10.543,45.016 10.406,45.409 C10.371,45.507 10.34,45.6 10.306,45.696 C10.193,46.026 10.081,46.35 9.976,46.665 C9.935,46.776 9.898,46.89 9.861,46.999 C9.73,47.382 9.605,47.757 9.484,48.116 C9.468,48.163 9.455,48.208 9.437,48.255 C9.326,48.593 9.22,48.917 9.113,49.232 C9.092,49.304 9.064,49.375 9.043,49.443 C8.813,50.144 8.605,50.785 8.418,51.363 C8.406,51.408 8.389,51.453 8.375,51.5 C5.437,60.168 0.816,57.518 0.816,57.518 C0.816,57.518 3.648,62.063 9.453,61.991 C9.896,62.003 10.353,62.005 10.846,61.975 C11.045,61.926 11.244,61.858 11.438,61.803 C11.475,61.795 11.508,61.795 11.542,61.787 L11.538,61.773 C13.114,61.312 14.684,60.599 16.11,59.476 L16.11,59.478 C19.901,57.191 21.86,52.033 22.844,48.068 C22.846,48.068 22.85,48.064 22.85,48.064 C22.852,48.05 22.854,48.037 22.856,48.023 C23.573,45.125 23.764,42.873 23.764,42.873 L23.764,42.873 C26.088,31.99 31.416,18.062 37.848,15.127 C37.848,15.121 37.852,15.117 37.856,15.111 C40.76,16.113 43.567,17.621 45.776,19.855 C46.733,20.937 50.141,25.304 49.557,32.255 C48.881,36.982 46.905,44.472 41.174,49.8 C39.551,51.013 37.906,51.788 36.379,51.96 C31.295,51.651 32.266,47.231 32.266,47.231 C24.118,47.926 25.133,55.131 25.133,55.131 C26.074,58.354 28.733,62.723 36.233,61.895 C36.251,61.893 36.256,61.893 36.27,61.891 C46.217,60.461 57.209,54.037 57.958,32.844 C59.349,-6.381 6.546,5.881 6.546,5.881 L6.546,5.881 Z"></path>
                </g>
            </g>
            <path d="M258.302,433.806 L0.7,176.197 L176.542,0.36 L248.375,72.191 L242.718,77.848 L176.542,11.675 L12.013,176.197 L258.302,422.491 L329.536,351.254 L335.193,356.91 L258.302,433.806 Z" id="Shape" sketch:type="MSShapeGroup"></path>
            <rect id="Rectangle-path" sketch:type="MSShapeGroup" transform="translate(220.432828, 49.913763) rotate(45.000000) translate(-220.432828, -49.913763) " x="158.348423" y="45.9138015" width="124.168809" height="7.99992328"></rect>
            <rect id="Rectangle-path" sketch:type="MSShapeGroup" transform="translate(326.131486, 360.333010) rotate(44.991897) translate(-326.131486, -360.333010) " x="322.131524" y="264.480928" width="7.99992336" height="191.704163"></rect>
        </g>
    </g>
</svg>