<?xml version="1.0" encoding="UTF-8" standalone="no"?>
<svg width="324px" height="109px" viewBox="0 0 324 109" version="1.1" xmlns="http://www.w3.org/2000/svg" xmlns:xlink="http://www.w3.org/1999/xlink" xmlns:sketch="http://www.bohemiancoding.com/sketch/ns">
    <!-- Generator: Sketch 3.3.2 (12043) - http://www.bohemiancoding.com/sketch -->
    <title>property4</title>
    <desc>Created with Sketch.</desc>
    <defs></defs>
    <g id="Page-1" stroke="none" stroke-width="1" fill="none" fill-rule="evenodd" sketch:type="MSPage">
        <g id="property4" sketch:type="MSLayerGroup">
            <path d="M23.5145967,108.122 C23.0355967,108.122 22.5775967,107.927 22.2465967,107.581 L0.486596704,84.839 C0.00759670373,84.338 -0.131403296,83.602 0.130596704,82.961 C0.393596704,82.32 1.0095967,81.894 1.7005967,81.873 L141.489597,77.669 C142.468597,77.637 143.266597,78.401 143.296597,79.369 C143.324597,80.338 142.563597,81.146 141.595597,81.175 L5.7455967,85.26 L24.2575967,104.607 L112.421597,103.897 L112.436597,103.897 C113.398597,103.897 114.182597,104.673 114.190597,105.637 C114.198597,106.606 113.419597,107.397 112.450597,107.405 L23.5285967,108.121 C23.5235967,108.122 23.5195967,108.122 23.5145967,108.122 L23.5145967,108.122 Z" id="Shape" fill="#BE1E2D" sketch:type="MSShapeGroup"></path>
            <path d="M110.525597,107.191 L177.308597,6.409 L323.304597,-5.68434189e-14 L295.519597,103.13 L110.525597,107.191 Z" id="Shape" fill="#1C75BC" sketch:type="MSShapeGroup"></path>
            <path d="M34.1575967,108.036 C33.5605967,108.036 32.9785967,107.731 32.6505967,107.182 L18.7645967,83.97 C18.2675967,83.139 18.5375967,82.061 19.3685967,81.564 C20.2005967,81.066 21.2775967,81.337 21.7745967,82.169 L35.6605967,105.381 C36.1575967,106.212 35.8875967,107.29 35.0565967,107.787 C34.7735967,107.956 34.4645967,108.036 34.1575967,108.036 L34.1575967,108.036 Z" id="Shape" fill="#BE1E2D" sketch:type="MSShapeGroup"></path>
            <path d="M43.8855967,107.959 C43.1175967,107.959 42.4125967,107.451 42.1965967,106.675 L35.5925967,82.972 C35.3325967,82.039 35.8785967,81.071 36.8125967,80.811 C37.7485967,80.552 38.7125967,81.097 38.9735967,82.03 L45.5765967,105.733 C45.8375967,106.666 45.2905967,107.633 44.3575967,107.894 C44.1995967,107.937 44.0405967,107.959 43.8855967,107.959 L43.8855967,107.959 Z" id="Shape" fill="#BE1E2D" sketch:type="MSShapeGroup"></path>
            <path d="M53.2615967,107.883 C52.3435967,107.883 51.5725967,107.17 51.5135967,106.241 L49.9735967,82.237 C49.9115967,81.27 50.6455967,80.436 51.6125967,80.374 C52.5725967,80.311 53.4125967,81.045 53.4745967,82.012 L55.0135967,106.017 C55.0755967,106.984 54.3425967,107.818 53.3755967,107.88 C53.3385967,107.882 53.3005967,107.883 53.2615967,107.883 L53.2615967,107.883 Z" id="Shape" fill="#BE1E2D" sketch:type="MSShapeGroup"></path>
            <path d="M65.0765967,107.267 C65.0255967,107.267 64.9735967,107.265 64.9225967,107.261 C63.9575967,107.176 63.2425967,106.326 63.3265967,105.361 L65.4125967,81.507 C65.4965967,80.542 66.3455967,79.827 67.3125967,79.912 C68.2775967,79.997 68.9915967,80.848 68.9065967,81.812 L66.8225967,105.666 C66.7425967,106.579 65.9755967,107.267 65.0765967,107.267 L65.0765967,107.267 Z" id="Shape" fill="#BE1E2D" sketch:type="MSShapeGroup"></path>
            <path d="M76.8865967,107.497 C76.7095967,107.497 76.5325967,107.47 76.3555967,107.414 C75.4325967,107.121 74.9205967,106.135 75.2135967,105.211 L83.0145967,80.601 C83.3075967,79.677 84.2935967,79.166 85.2175967,79.459 C86.1405967,79.752 86.6525967,80.738 86.3595967,81.662 L78.5575967,106.272 C78.3205967,107.02 77.6295967,107.497 76.8865967,107.497 L76.8865967,107.497 Z" id="Shape" fill="#BE1E2D" sketch:type="MSShapeGroup"></path>
            <path d="M88.0015967,107.594 C87.7455967,107.594 87.4855967,107.538 87.2405967,107.419 C86.3675967,106.998 86.0025967,105.949 86.4225967,105.077 L98.5735967,79.904 C98.9945967,79.031 100.043597,78.665 100.916597,79.087 C101.788597,79.508 102.154597,80.557 101.732597,81.429 L89.5825967,106.603 C89.2795967,107.229 88.6535967,107.594 88.0015967,107.594 L88.0015967,107.594 Z" id="Shape" fill="#BE1E2D" sketch:type="MSShapeGroup"></path>
            <path d="M101.897597,107.491 C101.529597,107.491 101.159597,107.376 100.842597,107.138 C100.069597,106.555 99.9135967,105.455 100.497597,104.681 L119.877597,78.976 C120.460597,78.202 121.560597,78.048 122.334597,78.631 C123.107597,79.214 123.262597,80.314 122.679597,81.088 L103.298597,106.793 C102.955597,107.25 102.429597,107.491 101.897597,107.491 L101.897597,107.491 Z" id="Shape" fill="#BE1E2D" sketch:type="MSShapeGroup"></path>
        </g>
    </g>
</svg>