<?xml version="1.0" encoding="UTF-8" standalone="no"?>
<svg width="344px" height="133px" viewBox="0 0 344 133" version="1.1" xmlns="http://www.w3.org/2000/svg" xmlns:xlink="http://www.w3.org/1999/xlink" xmlns:sketch="http://www.bohemiancoding.com/sketch/ns">
    <!-- Generator: Sketch 3.3.2 (12043) - http://www.bohemiancoding.com/sketch -->
    <title>property2</title>
    <desc>Created with Sketch.</desc>
    <defs></defs>
    <g id="Page-1" stroke="none" stroke-width="1" fill="none" fill-rule="evenodd" sketch:type="MSPage">
        <g id="property2" sketch:type="MSLayerGroup">
            <path d="M0.229,132.821 L343.161,132.821 L279.581,0.046 L41.909,46.946 L0.229,132.821 Z" id="Shape" fill="#27AAE1" sketch:type="MSShapeGroup"></path>
            <path d="M244.9,84.8 C244.9,84.8 247.634,81.941 250.122,83.936 C252.609,85.929 250.951,88.307 247.511,88.397 C244.072,88.488 242.376,88.188 244.724,85.064 L244.9,84.8 L244.9,84.8 Z" id="Shape" fill="#FFFFFF" sketch:type="MSShapeGroup"></path>
            <path d="M241.233,91.71 L241.23,91.711 C240.964,91.202 240.533,90.688 239.913,90.19 C236.471,87.43 232.684,91.387 232.684,91.387 L232.441,91.754 C229.193,96.077 231.538,96.492 236.299,96.366 L242.352,96.385 C242.352,96.385 245.885,96.489 241.233,91.71 L241.233,91.71 Z" id="Shape" fill="#FFFFFF" sketch:type="MSShapeGroup"></path>
            <path d="M252.252,91.578 C252.252,92.498 251.507,93.244 250.587,93.244 L246.803,93.244 C245.883,93.244 245.139,92.498 245.139,91.578 L245.139,91.578 C245.139,90.659 245.883,89.913 246.803,89.913 L250.587,89.913 C251.507,89.913 252.252,90.659 252.252,91.578 L252.252,91.578 L252.252,91.578 Z" id="Shape" fill="#FFFFFF" sketch:type="MSShapeGroup"></path>
            <path d="M31.224,122.093 C31.224,123.308 30.24,124.293 29.025,124.293 L23.65,124.293 C22.435,124.293 21.451,123.309 21.451,122.093 L21.451,122.093 C21.451,120.878 22.435,119.894 23.65,119.894 L29.025,119.894 C30.239,119.894 31.224,120.878 31.224,122.093 L31.224,122.093 L31.224,122.093 Z" id="Shape" fill="#FFFFFF" sketch:type="MSShapeGroup"></path>
            <path d="M47.107,124.292 C47.107,125.238 46.342,126.002 45.396,126.002 L34.889,126.002 C33.944,126.002 33.179,125.238 33.179,124.292 L33.179,124.292 C33.179,123.348 33.944,122.581 34.889,122.581 L45.396,122.581 C46.343,122.581 47.107,123.348 47.107,124.292 L47.107,124.292 L47.107,124.292 Z" id="Shape" fill="#FFFFFF" sketch:type="MSShapeGroup"></path>
            <path d="M34.89,119.824 C34.89,119.824 34.646,116.646 39.535,115.425 C44.422,114.203 45.398,119.824 45.398,119.824 L34.89,119.824 L34.89,119.824 Z" id="Shape" fill="#FFFFFF" sketch:type="MSShapeGroup"></path>
            <path d="M255.028,96.385 C255.028,97.056 254.485,97.6 253.814,97.6 L246.351,97.6 C245.681,97.6 245.138,97.056 245.138,96.385 L245.138,96.385 C245.138,95.714 245.681,95.17 246.351,95.17 L253.814,95.17 C254.485,95.17 255.028,95.714 255.028,96.385 L255.028,96.385 L255.028,96.385 Z" id="Shape" fill="#FFFFFF" sketch:type="MSShapeGroup"></path>
            <path d="M289.347,109.442 C289.347,109.442 291.173,107.533 292.834,108.864 C294.495,110.195 293.388,111.782 291.092,111.843 C288.794,111.903 287.662,111.703 289.229,109.619 L289.347,109.442 L289.347,109.442 Z" id="Shape" fill="#FFFFFF" sketch:type="MSShapeGroup"></path>
            <path d="M303.28,112.13 L303.28,112.13 C303.102,111.79 302.814,111.446 302.4,111.115 C300.101,109.273 297.574,111.914 297.574,111.914 L297.41,112.158 C295.242,115.044 296.807,115.321 299.986,115.238 L304.028,115.248 C304.028,115.25 306.387,115.321 303.28,112.13 L303.28,112.13 Z" id="Shape" fill="#FFFFFF" sketch:type="MSShapeGroup"></path>
            <path d="M294.256,113.968 C294.256,114.583 293.758,115.08 293.145,115.08 L290.618,115.08 C290.005,115.08 289.507,114.583 289.507,113.968 L289.507,113.968 C289.507,113.355 290.005,112.856 290.618,112.856 L293.145,112.856 C293.758,112.856 294.256,113.355 294.256,113.968 L294.256,113.968 L294.256,113.968 Z" id="Shape" fill="#FFFFFF" sketch:type="MSShapeGroup"></path>
            <path d="M287.439,113.968 C287.439,114.416 287.076,114.78 286.627,114.78 L281.646,114.78 C281.199,114.78 280.834,114.416 280.834,113.968 L280.834,113.968 C280.834,113.52 281.198,113.157 281.646,113.157 L286.627,113.157 C287.076,113.158 287.439,113.521 287.439,113.968 L287.439,113.968 L287.439,113.968 Z" id="Shape" fill="#FFFFFF" sketch:type="MSShapeGroup"></path>
            <path d="M81.073,132.821 L103.555,68.823 L148.272,62.2 L158.291,132.821" id="Shape" fill="#FFFFFF" sketch:type="MSShapeGroup"></path>
            <path d="M160.692,44.266 C160.692,45.637 159.581,46.748 158.211,46.748 L151.587,46.748 C150.217,46.748 149.106,45.637 149.106,44.266 L149.106,44.266 C149.106,42.897 150.217,41.786 151.587,41.786 L158.211,41.786 C159.581,41.785 160.692,42.896 160.692,44.266 L160.692,44.266 L160.692,44.266 Z" id="Shape" fill="#FFFFFF" sketch:type="MSShapeGroup"></path>
            <path d="M156.997,37.855 C156.997,38.904 156.147,39.755 155.098,39.755 L154.756,39.755 C153.707,39.755 152.855,38.904 152.855,37.855 L152.855,37.855 C152.855,36.806 153.708,35.956 154.756,35.956 L155.098,35.956 C156.147,35.956 156.997,36.806 156.997,37.855 L156.997,37.855 L156.997,37.855 Z" id="Shape" fill="#FFFFFF" sketch:type="MSShapeGroup"></path>
            <path d="M159.554,37.017 C159.554,37.017 162.289,34.159 164.777,36.152 C167.265,38.147 165.606,40.522 162.166,40.613 C158.726,40.705 157.032,40.405 159.378,37.282 L159.554,37.017 L159.554,37.017 Z" id="Shape" fill="#FFFFFF" sketch:type="MSShapeGroup"></path>
        </g>
    </g>
</svg>