<?xml version="1.0" encoding="UTF-8" standalone="no"?>
<svg width="466px" height="400px" viewBox="0 0 466 400" version="1.1" xmlns="http://www.w3.org/2000/svg" xmlns:xlink="http://www.w3.org/1999/xlink" xmlns:sketch="http://www.bohemiancoding.com/sketch/ns">
    <!-- Generator: Sketch 3.3.2 (12043) - http://www.bohemiancoding.com/sketch -->
    <title>text</title>
    <desc>Created with Sketch.</desc>
    <defs></defs>
    <g id="Page-1" stroke="none" stroke-width="1" fill="none" fill-rule="evenodd" sketch:type="MSPage">
        <g id="text" sketch:type="MSLayerGroup" fill="#000000">
            <g id="Group" transform="translate(198.000000, 117.000000)" sketch:type="MSShapeGroup">
                <path d="M263.714,281.621 L263.693,281.621 L177.82,281.621 C176.397,281.621 175.148,280.68 174.755,279.314 L159.919,227.587 L91.24,227.587 L75.468,279.362 C75.06,280.704 73.822,281.62 72.42,281.62 L4.103,281.62 C3.092,281.62 2.14,281.14 1.539,280.325 C0.939,279.511 0.761,278.462 1.059,277.493 L85.69,3.339 C86.102,2.004 87.338,1.093 88.735,1.093 L177.713,1.093 C179.105,1.093 180.336,1.997 180.753,3.324 L266.631,277.149 C266.804,277.544 266.9,277.975 266.9,278.434 C266.9,280.193 265.474,281.621 263.714,281.621 L263.714,281.621 Z M180.221,275.248 L259.356,275.248 L175.373,7.465 L91.086,7.465 L8.422,275.248 L70.062,275.248 L85.834,223.471 C86.242,222.133 87.479,221.215 88.881,221.215 L162.32,221.215 C163.742,221.215 164.991,222.158 165.382,223.524 L180.221,275.248 L180.221,275.248 Z M154.287,191.916 L96.446,191.916 C95.449,191.916 94.511,191.447 93.908,190.656 C93.304,189.863 93.11,188.832 93.377,187.875 L122.293,84.168 C122.677,82.791 123.932,81.838 125.361,81.838 C126.791,81.838 128.047,82.791 128.431,84.168 L157.354,187.875 C157.623,188.832 157.426,189.861 156.824,190.656 C156.221,191.447 155.283,191.916 154.287,191.916 L154.287,191.916 Z M100.643,185.543 L150.09,185.543 L125.363,96.887 L100.643,185.543 L100.643,185.543 Z" id="Shape"></path>
                <path d="M263.714,282.121 L177.82,282.121 C176.185,282.121 174.727,281.023 174.275,279.452 L159.543,228.088 L91.612,228.088 L75.948,279.509 C75.473,281.071 74.056,282.121 72.421,282.121 L4.104,282.121 C2.939,282.121 1.83,281.561 1.137,280.623 C0.446,279.685 0.239,278.461 0.581,277.347 L85.213,3.193 C85.692,1.638 87.108,0.594 88.735,0.594 L177.713,0.594 C179.332,0.594 180.745,1.631 181.23,3.176 L267.108,277.001 C267.295,277.42 267.4,277.92 267.4,278.436 C267.4,280.468 265.747,282.121 263.714,282.121 L263.714,282.121 Z M90.872,227.088 L160.298,227.088 L160.401,227.45 L175.237,279.177 C175.566,280.322 176.629,281.121 177.821,281.121 L263.715,281.121 C265.196,281.121 266.4,279.916 266.4,278.435 C266.4,278.058 266.324,277.694 266.173,277.35 L180.276,3.474 C179.922,2.349 178.893,1.593 177.713,1.593 L88.735,1.593 C87.549,1.593 86.518,2.354 86.168,3.486 L1.537,277.64 C1.287,278.452 1.438,279.345 1.942,280.028 C2.447,280.712 3.255,281.12 4.104,281.12 L72.421,281.12 C73.612,281.12 74.645,280.355 74.991,279.217 L90.872,227.088 L90.872,227.088 Z M260.037,275.748 L179.845,275.748 L179.742,275.386 L164.904,223.661 C164.575,222.516 163.513,221.715 162.322,221.715 L88.883,221.715 C87.693,221.715 86.66,222.48 86.314,223.616 L70.433,275.748 L7.745,275.748 L7.945,275.101 L90.717,6.965 L175.74,6.965 L175.85,7.316 L260.037,275.748 L260.037,275.748 Z M180.598,274.748 L258.675,274.748 L175.006,7.965 L91.455,7.965 L9.1,274.748 L69.692,274.748 L85.357,223.325 C85.833,221.763 87.25,220.715 88.883,220.715 L162.322,220.715 C163.957,220.715 165.414,221.814 165.865,223.386 L180.598,274.748 L180.598,274.748 Z M154.287,192.416 L96.446,192.416 C95.303,192.416 94.206,191.871 93.511,190.959 C92.817,190.048 92.588,188.845 92.896,187.74 L121.812,84.033 C122.255,82.446 123.714,81.338 125.362,81.338 C127.01,81.338 128.47,82.446 128.913,84.033 L157.836,187.74 C158.145,188.841 157.916,190.044 157.223,190.958 C156.527,191.871 155.43,192.416 154.287,192.416 L154.287,192.416 Z M125.361,82.338 C124.161,82.338 123.097,83.146 122.774,84.303 L93.858,188.01 C93.633,188.814 93.801,189.691 94.306,190.354 C94.813,191.019 95.613,191.416 96.446,191.416 L154.287,191.416 C155.119,191.416 155.919,191.019 156.426,190.354 C156.93,189.688 157.098,188.812 156.873,188.01 L127.95,84.303 C127.627,83.146 126.562,82.338 125.361,82.338 L125.361,82.338 Z M150.748,186.043 L99.984,186.043 L125.362,95.025 L150.748,186.043 L150.748,186.043 Z M101.301,185.043 L149.43,185.043 L125.362,98.748 L101.301,185.043 L101.301,185.043 Z" id="Shape"></path>
            </g>
            <g id="Group" sketch:type="MSShapeGroup">
                <path d="M101.989,398.621 L4.487,398.621 C3.477,398.621 2.525,398.141 1.923,397.326 C1.323,396.512 1.144,395.463 1.443,394.494 L122.23,3.219 C122.642,1.883 123.877,0.972 125.275,0.972 L252.258,0.972 C253.651,0.972 254.882,1.875 255.298,3.203 L292.035,120.342 C292.232,120.967 292.231,121.639 292.032,122.264 L229.22,319.293 C228.799,320.615 227.572,321.514 226.184,321.514 L127.84,321.514 L105.037,396.364 C104.628,397.705 103.392,398.621 101.989,398.621 L101.989,398.621 Z M8.806,392.248 L99.629,392.248 L122.432,317.398 C122.841,316.056 124.078,315.14 125.479,315.14 L223.856,315.14 L285.654,121.287 L249.919,7.343 L127.625,7.343 L8.806,392.248 L8.806,392.248 Z M220.151,275.34 L134.95,275.34 C133.954,275.34 133.016,274.873 132.413,274.082 C131.81,273.287 131.614,272.258 131.881,271.299 L174.476,118.539 C174.861,117.163 176.116,116.209 177.546,116.209 C178.975,116.209 180.231,117.163 180.615,118.539 L223.222,271.299 C223.49,272.258 223.292,273.287 222.691,274.082 C222.087,274.873 221.148,275.34 220.151,275.34 L220.151,275.34 Z M139.147,268.969 L215.956,268.969 L177.545,131.258 L139.147,268.969 L139.147,268.969 Z" id="Shape"></path>
                <path d="M101.989,399.121 L4.487,399.121 C3.322,399.121 2.214,398.561 1.521,397.623 C0.829,396.685 0.622,395.46 0.966,394.347 L121.753,3.072 C122.232,1.517 123.648,0.472 125.276,0.472 L252.259,0.472 C253.878,0.472 255.292,1.509 255.776,3.054 L292.513,120.193 C292.742,120.92 292.742,121.689 292.51,122.416 L229.698,319.446 C229.209,320.982 227.797,322.014 226.186,322.014 L128.21,322.014 L105.515,396.509 C105.039,398.071 103.622,399.121 101.989,399.121 L101.989,399.121 Z M125.275,1.472 C124.089,1.472 123.057,2.234 122.708,3.367 L1.92,394.642 C1.67,395.454 1.821,396.346 2.325,397.03 C2.83,397.714 3.638,398.122 4.487,398.122 L101.989,398.122 C103.179,398.122 104.211,397.357 104.558,396.219 L127.469,321.015 L226.184,321.015 C227.358,321.015 228.387,320.262 228.743,319.143 L291.555,122.114 C291.724,121.584 291.725,121.024 291.557,120.494 L254.82,3.354 C254.467,2.229 253.437,1.473 252.257,1.473 L125.275,1.473 L125.275,1.472 Z M100,392.748 L8.128,392.748 L8.328,392.101 L127.255,6.844 L250.286,6.844 L286.178,121.289 L286.13,121.439 L224.221,315.64 L125.479,315.64 C124.29,315.64 123.257,316.405 122.91,317.543 L100,392.748 L100,392.748 Z M9.483,391.748 L99.258,391.748 L121.952,317.253 C122.429,315.691 123.846,314.641 125.478,314.641 L223.49,314.641 L285.129,121.287 L249.551,7.844 L127.994,7.844 L9.483,391.748 L9.483,391.748 Z M220.151,275.84 L134.95,275.84 C133.807,275.84 132.71,275.296 132.015,274.386 C131.322,273.472 131.092,272.268 131.399,271.165 L173.994,118.404 C174.438,116.817 175.898,115.709 177.545,115.709 C179.192,115.709 180.652,116.817 181.095,118.404 L223.701,271.164 C224.009,272.264 223.78,273.469 223.087,274.384 C222.394,275.296 221.296,275.84 220.151,275.84 L220.151,275.84 Z M177.546,116.709 C176.345,116.709 175.281,117.517 174.958,118.674 L132.363,271.434 C132.139,272.238 132.307,273.115 132.812,273.781 C133.318,274.444 134.118,274.841 134.951,274.841 L220.152,274.841 C220.986,274.841 221.787,274.445 222.293,273.781 C222.797,273.114 222.965,272.237 222.741,271.435 L180.135,118.675 C179.81,117.517 178.746,116.709 177.546,116.709 L177.546,116.709 Z M216.615,269.469 L138.489,269.469 L138.666,268.835 L177.546,129.396 L216.615,269.469 L216.615,269.469 Z M139.806,268.469 L215.298,268.469 L177.546,133.119 L139.806,268.469 L139.806,268.469 Z" id="Shape"></path>
            </g>
        </g>
    </g>
</svg>