<?xml version="1.0" encoding="UTF-8" standalone="no"?>
<svg width="424px" height="404px" viewBox="0 0 424 404" version="1.1" xmlns="http://www.w3.org/2000/svg" xmlns:xlink="http://www.w3.org/1999/xlink" xmlns:sketch="http://www.bohemiancoding.com/sketch/ns">
    <!-- Generator: Sketch 3.3.3 (12072) - http://www.bohemiancoding.com/sketch -->
    <title>text</title>
    <desc>Created with Sketch.</desc>
    <defs></defs>
    <g id="Page-1" stroke="none" stroke-width="1" fill="none" fill-rule="evenodd" sketch:type="MSPage">
        <g id="text" sketch:type="MSLayerGroup" fill="#000000">
            <g id="Group" sketch:type="MSShapeGroup">
                <path d="M101.774,403.729 L4.112,403.729 C2.841,403.729 1.645,403.125 0.891,402.101 C0.137,401.077 -0.086,399.755 0.292,398.541 L123.242,2.982 C123.762,1.309 125.31,0.17 127.062,0.17 L239.467,0.17 C241.219,0.17 242.767,1.31 243.287,2.982 L290.134,153.699 C290.79,155.808 289.611,158.051 287.502,158.706 C285.389,159.36 283.15,158.183 282.495,156.074 L236.522,8.17 L130.008,8.17 L9.545,395.729 L98.825,395.729 L123.445,316.158 C123.964,314.483 125.512,313.341 127.266,313.341 L223.327,313.341 C225.536,313.341 227.327,315.132 227.327,317.341 C227.327,319.55 225.536,321.341 223.327,321.341 L130.215,321.341 L105.595,400.912 C105.077,402.586 103.528,403.729 101.774,403.729 L101.774,403.729 Z" id="Shape"></path>
                <path d="M225.411,280.479 L141.119,280.479 C139.873,280.479 138.698,279.898 137.941,278.909 C137.184,277.919 136.932,276.633 137.259,275.43 L179.405,120.325 C179.878,118.583 181.46,117.374 183.265,117.374 C185.07,117.374 186.652,118.583 187.125,120.325 L229.271,275.43 C229.598,276.632 229.346,277.918 228.589,278.909 C227.832,279.898 226.657,280.479 225.411,280.479 L225.411,280.479 Z M146.351,272.479 L220.179,272.479 L183.265,136.628 L146.351,272.479 L146.351,272.479 Z" id="Shape"></path>
                <g transform="translate(193.000000, 150.000000)" id="Shape">
                    <path d="M226.5,253.729 L166.05,253.729 C164.296,253.729 162.747,252.586 162.229,250.912 L147.322,202.733 L83.898,202.733 L68.991,250.912 C68.473,252.587 66.924,253.729 65.17,253.729 L4.72,253.729 C3.448,253.729 2.253,253.125 1.499,252.101 C0.746,251.077 0.523,249.755 0.9,248.541 L77.003,3.699 C77.523,2.026 79.071,0.887 80.823,0.887 L150.399,0.887 C152.151,0.887 153.699,2.027 154.219,3.699 L230.322,248.541 C230.7,249.755 230.477,251.076 229.723,252.101 C228.967,253.124 227.771,253.729 226.5,253.729 L226.5,253.729 Z M168.999,245.729 L221.068,245.729 L147.452,8.887 L83.767,8.887 L10.151,245.729 L62.22,245.729 L77.127,197.55 C77.645,195.875 79.194,194.733 80.948,194.733 L150.271,194.733 C152.024,194.733 153.574,195.876 154.092,197.55 L168.999,245.729 L168.999,245.729 Z"></path>
                    <path d="M141.696,177.44 L89.521,177.44 C88.275,177.44 87.1,176.859 86.343,175.87 C85.586,174.88 85.334,173.594 85.661,172.392 L111.748,76.386 C112.221,74.644 113.803,73.435 115.608,73.435 C117.413,73.435 118.995,74.644 119.468,76.386 L145.555,172.392 C145.882,173.594 145.63,174.88 144.873,175.87 C144.117,176.858 142.942,177.44 141.696,177.44 L141.696,177.44 Z M94.753,169.44 L136.464,169.44 L115.609,92.689 L94.753,169.44 L94.753,169.44 Z"></path>
                </g>
            </g>
        </g>
    </g>
</svg>