<?xml version="1.0" encoding="UTF-8" standalone="no"?>
<svg width="537px" height="431px" viewBox="0 0 537 431" version="1.1" xmlns="http://www.w3.org/2000/svg" xmlns:xlink="http://www.w3.org/1999/xlink" xmlns:sketch="http://www.bohemiancoding.com/sketch/ns">
    <!-- Generator: Sketch 3.3.2 (12043) - http://www.bohemiancoding.com/sketch -->
    <title>vehicleData</title>
    <desc>Created with Sketch.</desc>
    <defs></defs>
    <g id="Page-1" stroke="none" stroke-width="1" fill="none" fill-rule="evenodd" sketch:type="MSPage">
        <g id="vehicleData" sketch:type="MSLayerGroup" fill="#000000">
            <g id="Group" transform="translate(102.000000, 111.000000)" sketch:type="MSShapeGroup">
                <g id="Shape">
                    <g transform="translate(0.000000, 13.000000)">
                        <path d="M112.324,42.75 C123.715,36.59 130.564,35.709 130.564,35.709 C127.579,23.506 118.635,23.447 118.584,23.447 C117.967,23.422 117.593,23.502 117.593,23.502 C79.679,30.486 67.707,69.145 67.707,69.145 C27.069,-32.789 0.887,9.491 0.887,9.491 C0.887,9.491 23.509,8.475 58.157,108.958 C58.157,108.958 61.471,119.835 83.172,108.958 C83.171,108.957 73.506,66.082 112.324,42.75 L112.324,42.75 Z"></path>
                        <path d="M67.042,114.291 L67.041,114.291 C59.349,114.291 57.743,109.315 57.679,109.103 C23.891,11.117 1.835,9.991 0.913,9.991 L0.016,9.991 L0.462,9.227 C0.518,9.138 6.105,0.298 15.942,0.298 C27.198,0.298 45.281,12.039 67.676,67.722 C70.186,60.943 83.64,29.248 117.502,23.01 C117.525,23.005 117.939,22.927 118.605,22.948 L118.605,22.948 C118.703,22.948 127.997,23.109 131.05,35.591 L131.183,36.134 L130.628,36.206 C130.56,36.215 123.718,37.157 112.562,43.19 C74.515,66.06 83.564,108.422 83.66,108.847 L83.746,109.229 L83.396,109.405 C76.925,112.647 71.423,114.291 67.042,114.291 L67.042,114.291 Z M1.76,9.11 C6.384,10.129 27.908,19.7 58.63,108.794 C58.692,108.992 60.122,113.291 67.042,113.291 L67.043,113.291 C71.191,113.291 76.425,111.74 82.607,108.68 C81.777,104.318 75.35,64.392 112.067,42.322 C121.732,37.094 128.088,35.643 129.945,35.304 C126.969,24.134 118.928,23.95 118.582,23.948 L118.345,23.943 C117.94,23.943 117.698,23.992 117.696,23.992 C80.514,30.842 68.304,68.91 68.185,69.294 L67.766,70.644 L67.243,69.332 C44.826,13.102 26.972,1.3 15.942,1.3 C8.199,1.298 3.222,7.136 1.76,9.11 L1.76,9.11 Z"></path>
                    </g>
                    <g transform="translate(225.000000, 45.000000)">
                        <path d="M4.146,23.305 L6.51,24.778 C19.119,26.09 22.818,19.944 23.614,14.214 L23.614,14.214 C24.299,4.222 16.27,1.771 16.27,1.771 C6.531,-0.999 1.489,8.255 1.489,8.255 C1.489,8.255 11.228,7.369 4.146,23.305 L4.146,23.305 Z"></path>
                        <path d="M9.785,25.456 C8.736,25.456 7.617,25.395 6.458,25.274 L6.343,25.262 L3.512,23.498 L3.689,23.101 C7.006,15.637 6.463,12.163 5.423,10.564 C4.356,8.921 2.502,8.745 1.755,8.745 C1.624,8.745 1.544,8.751 1.534,8.752 L0.608,8.831 L1.051,8.015 C1.213,7.718 5.095,0.752 12.708,0.752 C13.912,0.752 15.157,0.933 16.408,1.289 C16.501,1.317 24.818,3.977 24.114,14.247 C23.402,19.38 20.342,25.456 9.785,25.456 L9.785,25.456 Z M6.676,24.292 C16.482,25.28 22.051,21.836 23.119,14.144 C23.764,4.719 16.436,2.343 16.123,2.247 C14.971,1.92 13.818,1.752 12.706,1.752 C7.073,1.752 3.568,6.042 2.38,7.777 C3.467,7.888 5.172,8.344 6.26,10.019 C7.932,12.592 7.433,16.995 4.776,23.109 L6.676,24.292 L6.676,24.292 Z"></path>
                    </g>
                    <g transform="translate(108.000000, 0.000000)">
                        <path d="M322.127,90.83 C303.228,114.56 291.778,106.262 291.778,106.262 C274.343,92.327 288.913,55.813 298.085,64.987 C307.258,74.159 287.478,89.345 287.478,89.345 C286.618,95.648 291.779,101.06 291.779,101.06 C328.183,85.249 323.312,37.753 294.071,49.22 C264.836,60.687 267.7,89.345 267.7,89.345 C267.7,89.345 267.785,91.851 268.502,95.501 C268.502,95.501 268.625,96.056 268.851,96.942 C268.851,96.942 268.91,97.479 269.148,98.479 L269.145,98.469 C250.619,109.188 243.364,96.61 243.364,96.61 C251.185,91.407 263.366,80.032 271.423,56.708 C284.112,19.979 255.619,19.534 255.619,19.534 C215.33,25.544 218.446,93.88 218.446,93.88 C218.446,93.88 232.363,84.31 237.536,77.632 C237.536,77.632 236.698,44.689 252.056,38.009 C263.907,32.857 256.538,64.667 232.417,87.65 L232.424,87.646 C211.876,109.379 196.41,109.302 190.873,108.336 C190.778,108.32 190.682,108.303 190.588,108.285 C190.185,108.209 189.843,108.129 189.564,108.055 C189.556,108.053 189.549,108.053 189.543,108.051 C188.956,107.895 188.646,107.77 188.646,107.77 L188.65,107.768 C187.142,107.248 185.837,106.504 184.731,105.616 C179.568,101.104 179.845,94.356 179.999,92.708 C181.365,80.481 189.203,56.897 198.416,59.747 C209.625,63.212 200.251,76.44 200.251,76.44 C200.251,76.44 212.889,82.575 216.762,66.065 C220.634,49.555 200.455,43.032 184.149,54.446 C173.944,61.591 165.335,81.911 165.871,98.362 C148.832,114.008 142.596,106.225 142.596,106.225 C137.509,100.123 137.499,91.413 136.682,83.86 C135.457,72.54 123.566,76.694 123.566,76.694 C122.976,78.503 122.089,80.735 120.864,83.456 C120.843,83.501 120.821,83.542 120.8,83.587 C120.631,83.964 120.456,84.331 120.283,84.698 C118.374,88.805 116.451,92.37 114.544,95.512 C114.321,95.836 114.056,96.272 113.734,96.834 C112.747,98.4 111.767,99.836 110.797,101.172 C105.928,107.307 99.381,111.686 97.882,112.645 C97.768,112.717 97.659,112.788 97.543,112.86 C90.111,116.016 88.282,111.569 88.638,105.395 C91.375,92.481 98.221,85.219 100.264,83.288 C100.454,83.124 100.639,82.958 100.803,82.796 C100.828,82.775 100.865,82.743 100.865,82.743 L100.851,82.743 C107.771,75.804 93.552,70.298 93.552,70.298 C88.154,75.753 80.639,74.913 76.088,73.683 C82.962,52.494 83.737,32.027 82.979,19.302 C81.764,-1.012 66,1.414 66,1.414 L66,16.697 C65.648,35.527 64.654,49.662 63.419,60.252 C60.112,86.416 49.303,98.094 48.19,99.234 C33.949,112.312 25.572,106.261 25.572,106.261 C8.138,92.326 22.707,55.812 31.879,64.986 C41.052,74.158 21.273,89.344 21.273,89.344 C20.412,95.647 25.573,101.059 25.573,101.059 C61.977,85.248 57.106,37.752 27.866,49.219 C-1.37,60.686 1.495,89.344 1.495,89.344 C1.495,89.344 1.579,91.85 2.296,95.5 C2.296,95.5 2.419,96.055 2.645,96.941 C2.645,96.941 2.879,99.291 4.658,103.646 C5.338,105.55 6.129,107.4 6.982,108.705 C7.097,108.914 7.235,109.119 7.356,109.328 C7.413,109.433 7.463,109.535 7.521,109.643 C7.815,110.184 8.077,110.588 8.313,110.889 C11.361,115.516 15.761,119.67 22.134,121.852 C37.155,126.993 50.676,116.307 56.318,110.866 C62.433,103.286 67.213,95.182 70.942,86.97 C72.912,88.136 76.952,89.956 82.694,89.759 C82.691,89.767 82.688,89.775 82.685,89.782 L82.685,89.776 C82.685,89.776 74.249,111.094 83.524,121.626 C84.483,122.917 85.618,123.814 86.826,124.413 L86.827,124.413 C91.806,126.89 98,124.413 98,124.413 C100.639,123.075 103.338,121.616 106.055,119.964 C116.704,111.825 124.092,102.833 125.536,100.607 C125.536,100.607 126.443,109.99 134.489,117.07 C141.798,122.582 147.23,121.906 148.706,121.58 C148.837,121.547 148.978,121.506 149.111,121.469 C155.311,120.299 163.035,114.108 164.792,112.651 L164.771,112.651 C165.858,111.786 166.988,110.835 168.153,109.811 C169.006,111.838 170.133,113.657 171.518,115.25 L171.5,115.252 C171.5,115.252 187.406,138.301 224.093,110.48 C224.095,110.482 233.652,131.375 273.73,109.644 C274.024,110.185 274.286,110.589 274.521,110.89 C277.57,115.517 281.97,119.671 288.343,121.853 C303.364,126.994 316.885,116.308 322.526,110.867 C330.355,100.875 322.127,90.83 322.127,90.83 L322.127,90.83 Z"></path>
                        <path d="M91.935,126.013 C89.935,126.013 88.141,125.625 86.603,124.86 C85.237,124.183 84.066,123.195 83.121,121.924 C74.604,112.255 80.576,94.079 81.962,90.274 L81.834,90.274 C76.803,90.274 73.137,88.754 71.168,87.675 C67.214,96.278 62.35,104.184 56.706,111.18 C51.828,115.89 41.972,123.714 30.286,123.714 C27.461,123.714 24.663,123.247 21.971,122.325 C16.21,120.353 11.473,116.598 7.894,111.165 C7.65,110.857 7.376,110.427 7.08,109.882 L6.766,109.322 C6.689,109.197 6.612,109.073 6.543,108.947 C5.784,107.789 4.984,106.052 4.186,103.815 C2.409,99.463 2.156,97.09 2.146,96.992 C1.931,96.17 1.807,95.609 1.807,95.609 C1.088,91.949 0.998,89.465 0.995,89.361 C0.968,89.104 -1.567,60.226 27.683,48.753 C30.731,47.558 33.634,46.952 36.312,46.952 C43.97,46.952 49.578,51.936 51.312,60.285 C54.097,73.686 46.092,92.692 25.772,101.517 L25.452,101.656 L25.211,101.403 C24.993,101.176 19.894,95.743 20.778,89.276 L20.805,89.072 L20.968,88.947 C21.091,88.852 33.253,79.421 33.788,71.215 C33.935,68.965 33.174,66.988 31.525,65.34 C30.653,64.469 29.712,64.027 28.726,64.027 C25.72,64.027 22.229,68.223 20.04,74.469 C16.397,84.862 16.791,98.602 25.885,105.871 L25.885,105.871 C25.887,105.871 27.738,107.159 31.099,107.159 C34.622,107.159 40.39,105.719 47.853,98.866 C49.033,97.656 59.646,86.131 62.925,60.189 C64.319,48.238 65.186,33.6 65.502,16.687 L65.502,0.985 L65.926,0.92 C65.951,0.916 66.561,0.824 67.543,0.824 C72.003,0.824 82.483,2.621 83.478,19.269 C84.099,29.682 84.038,50.491 76.727,73.329 C78.743,73.835 80.702,74.091 82.558,74.091 C86.894,74.091 90.473,72.695 93.197,69.944 L93.427,69.711 L93.733,69.83 C94.076,69.963 102.141,73.136 103.147,77.888 C103.461,79.37 103.062,80.831 101.962,82.242 L102.22,82.242 L101.187,83.124 C100.982,83.32 100.789,83.493 100.59,83.665 C98.597,85.551 91.83,92.741 89.126,105.498 C88.942,108.789 89.433,111.119 90.595,112.351 C91.912,113.747 94.169,113.748 97.347,112.4 L97.614,112.222 C98.892,111.405 105.527,107.006 110.404,100.862 C111.419,99.463 112.373,98.052 113.309,96.568 C113.627,96.009 113.901,95.562 114.129,95.229 C116.124,91.941 118.046,88.319 119.827,84.487 L119.91,84.31 C120.055,84.003 120.199,83.696 120.34,83.382 L120.386,83.285 C121.591,80.614 122.494,78.356 123.086,76.538 L123.163,76.303 L123.396,76.222 C123.613,76.145 135.896,71.984 137.174,83.806 C137.294,84.915 137.397,86.05 137.501,87.199 C138.107,93.894 138.734,100.818 142.976,105.905 C143.039,105.982 144.455,107.661 147.811,107.661 C151.07,107.661 156.753,106.006 165.36,98.148 C164.917,81.832 173.525,61.271 183.859,54.037 C189.226,50.28 195.396,48.211 201.233,48.211 C207.098,48.211 212.125,50.31 215.024,53.967 C217.591,57.206 218.36,61.429 217.245,66.18 C214.942,75.995 209.576,78.056 205.48,78.056 C202.464,78.056 200.127,76.938 200.029,76.891 L199.499,76.633 L199.839,76.152 C199.888,76.083 204.726,69.164 203.075,64.304 C202.422,62.382 200.804,61.01 198.264,60.225 C197.804,60.082 197.336,60.011 196.873,60.011 C188.641,60.011 181.733,81.648 180.491,92.764 C180.32,94.598 180.143,100.948 185.055,105.24 C186.153,106.123 187.421,106.818 188.808,107.297 L189.283,107.461 C189.392,107.493 189.521,107.53 189.667,107.569 C189.958,107.645 190.288,107.722 190.677,107.796 L190.951,107.845 C192.119,108.049 193.381,108.152 194.705,108.152 C200.971,108.152 213.589,105.703 229.558,89.866 L229.082,90.138 L232.068,87.29 C251.662,68.621 259.111,45.84 256.637,39.656 C255.926,37.88 254.451,37.511 252.25,38.47 C237.373,44.94 238.022,77.295 238.03,77.621 L238.034,77.799 L237.925,77.941 C232.763,84.603 219.294,93.902 218.723,94.294 L217.981,94.804 L217.94,93.905 C217.932,93.734 217.207,76.547 221.431,58.847 C227.052,35.296 238.847,21.532 255.538,19.042 C256.042,19.043 266.012,19.289 271.595,27.255 C276.273,33.931 276.372,43.896 271.888,56.873 C264.099,79.425 252.534,90.984 244.049,96.749 C244.994,98.068 248.562,102.297 255.444,102.297 C259.393,102.297 263.807,100.926 268.569,98.222 C268.397,97.443 268.35,97.019 268.348,96.998 C268.133,96.172 268.008,95.611 268.008,95.611 C267.289,91.951 267.198,89.467 267.195,89.363 C267.168,89.106 264.633,60.228 293.883,48.755 C296.931,47.56 299.834,46.954 302.512,46.954 C310.171,46.954 315.778,51.938 317.513,60.287 C320.298,73.688 312.293,92.694 291.973,101.519 L291.653,101.658 L291.412,101.405 C291.194,101.178 286.095,95.745 286.977,89.278 L287.005,89.074 L287.168,88.949 C287.291,88.854 299.454,79.423 299.989,71.216 C300.136,68.967 299.375,66.99 297.726,65.342 C296.855,64.471 295.913,64.029 294.927,64.029 C291.921,64.029 288.43,68.226 286.24,74.472 C282.597,84.865 282.991,98.605 292.085,105.873 L292.085,105.873 C292.086,105.873 293.942,107.17 297.312,107.169 C302.403,107.169 310.772,104.28 321.73,90.521 L322.116,90.037 L322.508,90.516 C322.593,90.619 330.897,100.989 322.91,111.176 C318.028,115.891 308.171,123.715 296.486,123.715 L296.486,123.715 C293.661,123.715 290.863,123.248 288.171,122.326 C282.41,120.354 277.674,116.599 274.093,111.166 C273.918,110.943 273.728,110.66 273.526,110.317 C261.542,116.758 251.093,120.024 242.463,120.024 C230.008,120.024 225.096,113.23 223.92,111.229 C211.991,120.178 200.996,124.715 191.231,124.715 C177.574,124.715 171.142,115.627 171.079,115.535 L171.012,115.438 C169.79,114.004 168.766,112.392 167.96,110.633 C167.098,111.381 166.266,112.079 165.476,112.717 L165.102,113.033 C162.933,114.832 155.376,120.792 149.195,121.958 L148.82,122.062 C147.081,122.451 141.473,122.968 134.179,117.467 C127.701,111.768 125.761,104.724 125.222,101.899 C122.707,105.245 115.724,113.195 106.351,120.36 C103.867,121.875 101.221,123.335 98.219,124.858 C98.067,124.923 95.303,126.013 91.935,126.013 L91.935,126.013 Z M82.974,90.426 C81.828,93.587 75.681,111.965 83.897,121.295 C84.772,122.47 85.822,123.357 87.045,123.964 C88.445,124.66 90.089,125.013 91.934,125.013 C95.112,125.013 97.785,123.958 97.811,123.949 C100.749,122.457 103.373,121.008 105.791,119.537 C116.178,111.595 123.591,102.68 125.112,100.335 L125.889,99.135 L126.029,100.558 C126.038,100.651 127.021,109.836 134.815,116.695 C139.851,120.491 143.976,121.293 146.544,121.293 C147.487,121.293 148.18,121.184 148.594,121.092 L149.014,120.978 C154.178,120.003 160.43,115.477 163.374,113.151 L163.356,113.151 L164.455,112.259 C165.503,111.426 166.634,110.475 167.818,109.435 L168.34,108.977 L168.609,109.618 C169.436,111.583 170.54,113.368 171.891,114.923 L172.52,115.648 L172.455,115.655 C174.227,117.718 180.323,123.717 191.236,123.717 C200.904,123.717 211.856,119.13 223.786,110.083 L224.279,109.71 L224.542,110.271 C224.709,110.628 228.801,119.026 242.468,119.026 C251.033,119.026 261.469,115.722 273.487,109.207 L273.926,108.969 L274.165,109.408 C274.429,109.894 274.68,110.29 274.91,110.585 C278.389,115.862 282.954,119.483 288.501,121.383 C291.088,122.268 293.777,122.717 296.492,122.717 C307.826,122.717 317.449,115.069 322.176,110.509 C328.662,102.23 323.588,93.772 322.112,91.654 C303.294,114.959 291.69,106.819 291.486,106.671 C281.991,99.083 281.543,84.87 285.302,74.145 C287.668,67.394 291.448,63.032 294.933,63.032 C296.194,63.032 297.374,63.573 298.439,64.638 C300.3,66.499 301.159,68.736 300.992,71.286 C300.455,79.505 289.502,88.395 287.948,89.617 C287.351,94.775 290.951,99.346 291.91,100.461 C311.502,91.785 319.228,73.437 316.539,60.494 C314.908,52.644 309.666,47.958 302.517,47.958 C299.965,47.958 297.184,48.541 294.253,49.69 C265.7,60.888 268.168,89.016 268.197,89.299 C268.2,89.357 268.292,91.846 268.992,95.408 L268.992,95.408 C268.992,95.408 269.114,95.955 269.334,96.823 C269.347,96.896 269.407,97.418 269.633,98.367 L269.157,98.496 L269.394,98.906 C264.356,101.821 259.665,103.299 255.449,103.299 C246.741,103.299 243.08,97.127 242.929,96.864 L242.695,96.458 L243.086,96.198 C251.477,90.615 263.123,79.205 270.949,56.549 C275.322,43.891 275.265,34.229 270.781,27.831 C265.489,20.279 255.708,20.04 255.61,20.038 C218.833,25.53 218.752,84.804 218.919,92.941 C221.862,90.862 232.586,83.107 237.031,77.467 C236.978,74.55 236.792,44.105 251.856,37.553 C254.611,36.357 256.659,37.01 257.57,39.285 C260.495,46.595 251.382,70.25 232.802,87.975 L232.786,87.992 C216.251,105.479 202.953,109.151 194.707,109.151 C193.326,109.151 192.006,109.044 190.786,108.83 L190.495,108.778 C190.076,108.699 189.723,108.616 189.434,108.54 C188.787,108.369 188.457,108.235 188.457,108.235 L188.41,108.216 C186.942,107.7 185.599,106.957 184.415,106.006 C179.129,101.388 179.315,94.625 179.498,92.662 C180.811,80.912 187.935,59.011 196.875,59.011 C197.438,59.011 198.005,59.098 198.561,59.27 C201.424,60.155 203.262,61.742 204.024,63.985 C205.579,68.567 202.145,74.445 201.002,76.214 C203.385,77.119 212.985,79.968 216.272,65.952 C217.314,61.51 216.612,57.58 214.241,54.59 C211.533,51.172 206.792,49.212 201.234,49.212 C195.6,49.212 189.633,51.217 184.433,54.857 C174.287,61.961 165.845,82.283 166.368,98.347 L166.376,98.576 L166.207,98.731 C159.031,105.321 152.842,108.662 147.813,108.662 C143.949,108.662 142.273,106.626 142.203,106.539 C137.768,101.22 137.127,94.139 136.507,87.29 C136.404,86.148 136.302,85.019 136.182,83.915 C135.646,78.962 132.975,76.451 128.244,76.451 C126.286,76.451 124.562,76.912 123.958,77.095 C123.354,78.903 122.466,81.111 121.317,83.662 L120.797,83.588 L121.253,83.792 C121.11,84.112 120.962,84.426 120.815,84.738 L120.732,84.912 C118.937,88.774 116.997,92.43 114.968,95.773 C114.736,96.112 114.478,96.536 114.165,97.084 C113.207,98.605 112.24,100.034 111.199,101.468 C106.21,107.754 99.452,112.234 98.149,113.068 L97.805,113.287 C94.052,114.894 91.477,114.746 89.867,113.04 C88.509,111.601 87.926,109.02 88.137,105.369 C90.911,92.254 97.856,84.877 99.919,82.927 C100.088,82.78 100.243,82.642 100.383,82.507 L100.496,82.392 C101.908,80.976 102.471,79.532 102.167,78.1 C101.373,74.349 95.113,71.5 93.667,70.888 C90.78,73.681 87.044,75.096 82.556,75.096 C80.456,75.096 78.236,74.784 75.956,74.167 L75.449,74.03 L75.611,73.53 C83.033,50.65 83.099,29.753 82.478,19.333 C81.535,3.534 71.718,1.829 67.542,1.829 C67.108,1.829 66.753,1.849 66.501,1.868 L66.501,16.702 C66.185,33.656 65.315,48.326 63.916,60.314 C60.596,86.584 49.771,98.335 48.548,99.588 C40.828,106.679 34.799,108.163 31.098,108.163 C27.388,108.163 25.364,106.731 25.279,106.671 C15.783,99.081 15.336,84.868 19.095,74.143 C21.461,67.392 25.241,63.031 28.725,63.031 C29.986,63.031 31.166,63.572 32.231,64.637 C34.092,66.498 34.951,68.735 34.785,71.285 C34.247,79.504 23.295,88.394 21.742,89.616 C21.144,94.774 24.744,99.345 25.703,100.46 C45.295,91.784 53.021,73.436 50.331,60.493 C48.7,52.643 43.459,47.957 36.31,47.957 C33.758,47.957 30.977,48.54 28.046,49.689 C-0.486,60.879 1.962,89.016 1.99,89.298 C1.993,89.356 2.084,91.845 2.784,95.407 L2.784,95.407 C2.784,95.407 2.906,95.954 3.126,96.822 C3.142,96.918 3.395,99.243 5.117,103.461 C5.897,105.645 6.661,107.311 7.397,108.436 C7.478,108.58 7.546,108.689 7.614,108.799 L7.958,109.41 C8.222,109.895 8.473,110.291 8.703,110.584 C12.182,115.861 16.746,119.483 22.293,121.383 C24.88,122.268 27.569,122.717 30.284,122.717 C41.618,122.717 51.241,115.069 55.968,110.509 C61.626,103.489 66.524,95.486 70.484,86.766 L70.714,86.259 L71.193,86.542 C72.974,87.597 76.831,89.352 82.345,89.272 L83.181,87.158 L83.181,89.245 L83.423,89.237 L82.974,90.426 L82.974,90.426 Z"></path>
                    </g>
                </g>
                <g transform="translate(111.000000, 135.000000)" id="Shape">
                    <path d="M88.649,55.801 C90.866,53.627 92.846,51.086 93.954,48.262 C97.577,39.02 94.471,35.836 92.556,34.25 C90.641,32.666 86.028,32.094 80.777,39.293 C75.524,46.492 78.031,53.291 78.031,53.291 C77.98,53.334 77.931,53.375 77.88,53.418 C74.811,55.941 72.596,56.773 70.996,56.725 C66.404,55.561 67.393,49.782 67.648,48.594 C71.195,33.774 81.332,33.022 83.343,33.022 C83.343,33.022 84.87,30.782 90.968,30.493 L90.769,30.089 C86.045,21.038 75.624,25.47 75.624,25.47 C67.86,27.773 63.248,33.218 60.515,38.624 C60.302,39.062 54.639,50.739 59.703,59.249 C66.154,68.017 77.36,63.765 77.36,63.765 C77.36,63.765 80.292,62.347 83.756,59.87 C86.633,61.682 90.809,63.009 96.756,62.393 C96.756,62.393 92.661,61.275 88.649,55.801 L88.649,55.801 Z M88.517,42.637 C92.215,43.992 85.791,48.664 85.791,48.664 L85.032,49.279 C85.033,49.279 84.823,41.283 88.517,42.637 L88.517,42.637 Z"></path>
                    <path d="M157.778,63.168 C157.778,63.168 153.687,62.049 149.677,56.576 C151.891,54.402 153.869,51.859 154.979,49.035 C158.601,39.793 155.499,36.609 153.582,35.025 C151.664,33.439 147.055,32.867 141.803,40.066 C136.549,47.265 139.055,54.066 139.055,54.066 C139.003,54.107 138.955,54.15 138.906,54.191 C135.836,56.716 133.62,57.548 132.024,57.496 C127.428,56.334 128.42,50.557 128.672,49.367 C132.216,34.547 142.357,33.795 144.365,33.795 C144.365,33.795 145.898,31.557 151.994,31.266 L151.796,30.864 C147.07,21.811 136.649,26.243 136.649,26.243 C128.885,28.546 124.274,33.991 121.542,39.399 C121.409,39.665 119.262,44.106 118.743,49.461 C117.003,50.307 114.826,50.953 112.094,51.129 C105.129,51.578 107.726,40.738 111.152,29.633 C111.301,29.635 111.438,29.641 111.59,29.641 C129.192,29.776 122.82,17.606 122.82,17.606 C119.893,19.661 116.722,20.96 113.639,21.762 C114.478,19.08 115.243,16.549 115.782,14.35 C117.847,5.928 115.75,2.399 113.488,1.188 C111.112,-0.431 108.687,0.842 107.876,1.188 C107.065,1.538 105.052,1.852 105.052,1.852 L105.89,1.786 C105.379,1.835 105.052,1.852 105.052,1.852 C105.052,1.852 105.725,8.387 103.208,19.45 C102.937,20.645 102.649,21.786 102.356,22.901 C99.029,22.77 96.838,22.299 96.838,22.299 L96.838,23.625 C96.838,23.625 95.419,26.572 100.835,28.342 C98.879,35.184 97.182,41.598 98.013,51.465 C98.966,62.746 111.269,62.453 119.819,58.186 C120.077,58.809 120.373,59.424 120.729,60.022 C127.178,68.791 138.387,64.538 138.387,64.538 C138.387,64.538 141.318,63.12 144.782,60.643 C147.662,62.455 151.836,63.781 157.778,63.168 L157.778,63.168 Z M149.545,43.412 C153.24,44.765 146.815,49.439 146.815,49.439 L146.06,50.052 C146.06,50.053 145.848,42.057 149.545,43.412 L149.545,43.412 Z"></path>
                    <path d="M6.484,5.352 C6.484,5.352 7.702,11.616 15.863,12.485 C18.17,12.731 21.432,12.674 25.038,12.743 C24.997,12.8 24.95,12.85 24.909,12.909 C23.723,14.643 22.561,16.587 21.434,18.655 L21.434,18.651 C21.327,18.848 21.221,19.049 21.116,19.249 C20.934,19.585 20.757,19.925 20.579,20.265 C20.444,20.529 20.307,20.792 20.173,21.056 C20.048,21.302 19.923,21.55 19.802,21.796 C19.674,22.046 19.552,22.294 19.427,22.546 C19.245,22.921 19.061,23.296 18.883,23.675 C18.75,23.947 18.622,24.216 18.492,24.487 C18.372,24.749 18.249,25.009 18.129,25.268 C18.017,25.516 17.902,25.764 17.788,26.01 C17.616,26.387 17.448,26.766 17.277,27.147 C17.145,27.44 17.016,27.733 16.887,28.026 C16.771,28.29 16.656,28.551 16.545,28.813 C16.433,29.065 16.326,29.317 16.22,29.567 C16.075,29.895 15.94,30.223 15.8,30.551 C15.654,30.901 15.507,31.248 15.364,31.596 C15.257,31.85 15.155,32.104 15.051,32.358 C14.943,32.62 14.836,32.883 14.733,33.143 C14.636,33.383 14.539,33.62 14.446,33.858 C14.273,34.288 14.104,34.713 13.936,35.139 C13.843,35.373 13.753,35.608 13.661,35.842 C13.558,36.112 13.45,36.383 13.35,36.649 C13.262,36.87 13.18,37.088 13.098,37.307 C12.933,37.737 12.771,38.162 12.612,38.582 C12.542,38.779 12.466,38.973 12.393,39.166 C12.286,39.463 12.176,39.758 12.07,40.049 C12.003,40.233 11.934,40.418 11.868,40.6 C11.715,41.024 11.559,41.44 11.412,41.852 C11.358,42.004 11.307,42.151 11.254,42.301 C11.142,42.615 11.031,42.926 10.921,43.235 C10.87,43.38 10.816,43.528 10.766,43.674 C10.623,44.082 10.481,44.486 10.344,44.881 C10.31,44.979 10.279,45.07 10.245,45.168 C10.131,45.498 10.02,45.82 9.914,46.135 C9.874,46.248 9.837,46.36 9.8,46.469 C9.669,46.852 9.544,47.227 9.422,47.586 C9.407,47.633 9.394,47.678 9.376,47.727 C9.265,48.063 9.158,48.387 9.052,48.702 C9.03,48.774 9.003,48.845 8.982,48.915 C8.751,49.614 8.544,50.257 8.357,50.833 C8.344,50.878 8.328,50.925 8.314,50.97 C5.376,59.638 0.755,56.987 0.755,56.987 C0.755,56.987 3.587,61.532 9.391,61.46 C9.834,61.474 10.292,61.474 10.785,61.444 C10.983,61.397 11.183,61.327 11.377,61.272 C11.413,61.264 11.447,61.264 11.481,61.256 L11.476,61.242 C13.053,60.781 14.624,60.07 16.049,58.945 L16.049,58.947 C19.839,56.66 21.799,51.502 22.783,47.535 C22.785,47.535 22.788,47.533 22.789,47.531 C22.791,47.519 22.793,47.506 22.795,47.492 C23.511,44.594 23.702,42.342 23.702,42.342 L23.702,42.342 C26.026,31.459 31.355,17.533 37.786,14.596 C37.786,14.596 37.79,14.586 37.794,14.58 C40.699,15.582 43.505,17.092 45.714,19.324 C46.672,20.406 50.079,24.775 49.496,31.724 C48.819,36.451 46.844,43.941 41.112,49.269 C39.49,50.482 37.844,51.257 36.317,51.431 C31.234,51.12 32.205,46.701 32.205,46.701 C24.056,47.396 25.072,54.603 25.072,54.603 C26.013,57.824 28.671,62.195 36.172,61.365 C36.189,61.363 36.195,61.365 36.209,61.363 C46.156,59.931 57.149,53.508 57.897,32.314 C59.287,-6.908 6.484,5.352 6.484,5.352 L6.484,5.352 Z"></path>
                </g>
            </g>
            <path d="M256.667,430.148 C255.606,430.148 254.589,429.726 253.838,428.976 L1.893,177.025 C1.143,176.275 0.722,175.257 0.722,174.197 C0.722,173.136 1.143,172.119 1.893,171.369 L172.078,1.189 C173.64,-0.373 176.173,-0.373 177.735,1.189 L246.739,70.191 C248.301,71.752 248.301,74.286 246.739,75.847 C245.177,77.41 242.644,77.409 241.082,75.847 L174.906,9.674 L10.378,174.197 L256.667,420.491 L327.901,349.254 C329.464,347.693 331.997,347.693 333.558,349.254 C335.12,350.815 335.12,353.349 333.558,354.91 L259.496,428.976 C258.745,429.727 257.728,430.148 256.667,430.148 L256.667,430.148 Z" id="Shape" sketch:type="MSShapeGroup"></path>
            <rect id="Rectangle-path" sketch:type="MSShapeGroup" transform="translate(214.723419, 43.836819) rotate(45.000000) translate(-214.723419, -43.836819) " x="158.408959" y="39.836857" width="112.62892" height="7.99992328"></rect>
        </g>
    </g>
</svg>