<?xml version="1.0" encoding="UTF-8" standalone="no"?>
<svg width="381px" height="378px" viewBox="0 0 381 378" version="1.1" xmlns="http://www.w3.org/2000/svg" xmlns:xlink="http://www.w3.org/1999/xlink" xmlns:sketch="http://www.bohemiancoding.com/sketch/ns">
    <!-- Generator: Sketch 3.3.2 (12043) - http://www.bohemiancoding.com/sketch -->
    <title>vehicleroad2</title>
    <desc>Created with Sketch.</desc>
    <defs></defs>
    <g id="Page-1" stroke="none" stroke-width="1" fill="none" fill-rule="evenodd" sketch:type="MSPage">
        <g id="vehicleroad2" sketch:type="MSLayerGroup">
            <path d="M216.333,372.312 L216.333,372.312 C216.333,369.378 218.71,367 221.647,367 L275.254,367 C278.19,367 280.568,369.378 280.568,372.312" id="Shape" fill="#BCBEC0" sketch:type="MSShapeGroup"></path>
            <path d="M374.573,72.898 L374.573,72.898 C371.248,72.898 368.553,70.203 368.553,66.881 L368.553,6.16 C368.553,2.836 371.247,0.143 374.573,0.143 L374.573,0.143" id="Shape" fill="#BCBEC0" sketch:type="MSShapeGroup"></path>
            <path d="M277.343,372.312 L219.521,372.312 C219.521,334.004 188.353,302.838 150.046,302.838 L147.817,302.838 C137.807,302.838 127.796,301.828 118.061,299.837 C108.557,297.892 99.211,294.991 90.282,291.213 C81.516,287.506 73.067,282.919 65.165,277.582 C57.343,272.299 49.992,266.233 43.311,259.552 C36.629,252.871 30.563,245.519 25.282,237.699 C19.942,229.797 15.354,221.347 11.649,212.583 C7.872,203.65 4.969,194.304 3.026,184.801 C1.034,175.067 0.022,165.055 0.022,155.046 L57.845,155.046 C57.845,204.656 98.207,245.016 147.817,245.016 L150.046,245.016 C167.218,245.016 183.893,248.386 199.605,255.031 C207.154,258.224 214.433,262.175 221.24,266.773 C227.974,271.323 234.304,276.547 240.058,282.3 C245.811,288.054 251.035,294.385 255.585,301.119 C260.185,307.926 264.134,315.205 267.326,322.754 C273.974,338.466 277.343,355.14 277.343,372.312 L277.343,372.312 Z" id="Shape" fill="#E5A1B9" sketch:type="MSShapeGroup"></path>
            <path d="M57.846,155.046 L0.023,155.046 C0.023,145.038 1.035,135.026 3.027,125.292 C4.97,115.789 7.873,106.441 11.65,97.509 C15.355,88.746 19.943,80.296 25.283,72.393 C30.564,64.573 36.631,57.221 43.312,50.541 C49.993,43.86 57.343,37.793 65.166,32.511 C73.068,27.172 81.518,22.586 90.283,18.879 C99.213,15.101 108.558,12.2 118.062,10.255 C127.796,8.263 137.808,7.253 147.818,7.253 L374.492,7.253 L374.492,65.076 L147.818,65.076 C98.208,65.077 57.846,105.436 57.846,155.046 L57.846,155.046 Z" id="Shape" fill="#1C75BC" sketch:type="MSShapeGroup"></path>
            <path d="M374.573,0.143 C377.894,0.143 380.589,2.836 380.589,6.16 L380.589,66.881 C380.589,70.203 377.895,72.898 374.573,72.898" id="Shape" fill="#BCBEC0" sketch:type="MSShapeGroup"></path>
            <path d="M251.097,373.772 C251.097,373.772 248.452,271.885 154.328,271.885 L150.807,272.289 C30.189,272.289 26.8,155.046 26.8,155.046" id="Shape" stroke="#FFFFFF" stroke-width="4" stroke-dasharray="8" sketch:type="MSShapeGroup"></path>
            <path d="M280.569,372.312 L280.569,372.312 C280.569,375.247 278.19,377.625 275.255,377.625 L221.648,377.625 C218.71,377.625 216.334,375.247 216.334,372.312" id="Shape" fill="#BCBEC0" sketch:type="MSShapeGroup"></path>
        </g>
    </g>
</svg>