<?xml version="1.0" encoding="UTF-8" standalone="no"?>
<svg width="53px" height="106px" viewBox="0 0 53 106" version="1.1" xmlns="http://www.w3.org/2000/svg" xmlns:xlink="http://www.w3.org/1999/xlink" xmlns:sketch="http://www.bohemiancoding.com/sketch/ns">
    <!-- Generator: Sketch 3.3.2 (12043) - http://www.bohemiancoding.com/sketch -->
    <title>vehicle</title>
    <desc>Created with Sketch.</desc>
    <defs></defs>
    <g id="Page-1" stroke="none" stroke-width="1" fill="none" fill-rule="evenodd" sketch:type="MSPage">
        <g id="vehicle" sketch:type="MSLayerGroup">
            <path d="M4.823,35.917 C4.76,35.923 4.694,35.927 4.627,35.927 L4.627,35.927 C3.512,35.927 2.605,35.021 2.605,33.904 L2.605,20.677 C2.605,20.538 2.621,20.402 2.648,20.27 L6.191,22.019 L6.191,35.553" id="Shape" fill="#808285" sketch:type="MSShapeGroup"></path>
            <path d="M50.063,20.27 C50.09,20.402 50.104,20.538 50.104,20.677 L50.104,33.904 C50.104,35.021 49.2,35.927 48.083,35.927 L48.083,35.927 C48.017,35.927 47.95,35.923 47.888,35.917 L46.152,33.855 L46.152,21.285" id="Shape" fill="#808285" sketch:type="MSShapeGroup"></path>
            <path d="M2.647,64.571 C2.835,63.649 3.649,62.956 4.626,62.956 L4.626,62.956 C4.791,62.956 4.951,62.977 5.104,63.014 L6.005,64.924 L4.997,79.413 L3.84,80.069 C3.114,79.763 2.604,79.044 2.604,78.207 L2.604,66.997" id="Shape" fill="#808285" sketch:type="MSShapeGroup"></path>
            <path d="M47.604,63.014 C47.758,62.977 47.917,62.956 48.083,62.956 L48.083,62.956 C49.061,62.956 49.876,63.649 50.063,64.571 L50.104,66.995 L50.104,78.205 C50.104,79.042 49.595,79.761 48.87,80.067 L46.288,76.382 L46.106,64.496 L47.604,63.014 L47.604,63.014 Z" id="Shape" fill="#808285" sketch:type="MSShapeGroup"></path>
            <path d="M47.678,67.563 C47.818,73.033 48.271,76.683 49.276,82.28 C50.527,89.261 50.197,91.171 50.197,91.171 C49.342,99.207 43.545,99.931 43.545,99.931 C38.869,106.122 26.357,105.436 26.357,105.436 C26.357,105.436 13.843,106.122 9.166,99.931 C9.166,99.931 3.371,99.207 2.516,91.171 C2.516,91.171 2.186,89.261 3.438,82.28 C4.441,76.683 4.894,73.032 5.034,67.563 L5.08,64.499 C5.082,64.051 5.085,63.59 5.085,63.115 C5.085,54.883 4.755,30.45 4.755,30.45 C4.755,30.45 4.413,24.918 2.476,19.78 C2.476,19.78 1.132,13.655 3.834,10.823 C3.834,10.823 2.187,1.735 12.394,0.812 L26.359,0.812 L40.321,0.812 C50.529,1.734 48.881,10.823 48.881,10.823 C51.584,13.655 50.238,19.78 50.238,19.78 C48.302,24.918 47.961,30.45 47.961,30.45 C47.961,30.45 47.632,54.883 47.632,63.115 C47.632,63.591 47.632,64.051 47.635,64.499" id="Shape" fill="#DD7575" sketch:type="MSShapeGroup"></path>
            <path d="M7.124,64.498 L0.538,64.498 C0.538,64.498 -0.778,66.87 5.741,67.66 C5.741,67.66 7.915,68.845 7.651,64.498 L7.124,64.498 L7.124,64.498 Z" id="Shape" fill="#DD7575" sketch:type="MSShapeGroup"></path>
            <path d="M7.338,95.574 C9.263,98.067 13.085,99.515 13.085,99.515 L15.231,97.757 C15.231,97.757 14.025,94.16 10.936,92.435 L7.338,95.574 L7.338,95.574 Z" id="Shape" fill="#D1D3D4" sketch:type="MSShapeGroup"></path>
            <path d="M8.902,70.426 L8.902,50.536 L12.073,47.046 L12.524,56.331 C12.524,56.331 13.071,58.637 12.073,61.798 C11.075,64.96 8.902,70.426 8.902,70.426 L8.902,70.426 Z" id="Shape" fill="#FFFFFF" sketch:type="MSShapeGroup"></path>
            <path d="M8.902,45.069 C8.902,45.069 8.819,47.572 10.211,46.19 L11.603,44.807 L12.074,44.346 L12.074,34.532 L8.903,25.246 L8.903,45.069 L8.902,45.069 Z" id="Shape" fill="#FFFFFF" sketch:type="MSShapeGroup"></path>
            <path d="M45.585,64.498 L52.173,64.498 C52.173,64.498 53.491,66.87 46.97,67.66 C46.97,67.66 44.796,68.845 45.06,64.498 L45.585,64.498 L45.585,64.498 Z" id="Shape" fill="#DD7575" sketch:type="MSShapeGroup"></path>
            <path d="M45.374,95.574 C43.448,98.067 39.627,99.515 39.627,99.515 L37.48,97.757 C37.48,97.757 38.687,94.16 41.775,92.435 L45.374,95.574 L45.374,95.574 Z" id="Shape" fill="#D1D3D4" sketch:type="MSShapeGroup"></path>
            <path d="M26.356,61.667 C29.383,61.667 33.27,61.996 35.444,61.206 C37.617,60.415 38.462,62.194 38.462,62.194 C38.462,62.194 41.04,70.229 41.437,71.611 C41.833,72.995 41.437,73.324 41.437,73.324 C37.814,76.946 26.357,77.342 26.357,77.342 C26.357,77.342 14.896,76.947 11.275,73.324 C11.275,73.324 10.879,72.994 11.275,71.611 C11.669,70.229 14.248,62.194 14.248,62.194 C14.248,62.194 15.096,60.416 17.268,61.206 C19.438,61.996 23.325,61.667 26.356,61.667 L26.356,61.667 Z" id="Shape" fill="#FFFFFF" sketch:type="MSShapeGroup"></path>
            <path d="M43.81,70.426 L43.81,50.536 L40.636,47.046 L40.186,56.331 C40.186,56.331 39.638,58.637 40.636,61.798 C41.634,64.96 43.81,70.426 43.81,70.426 L43.81,70.426 Z" id="Shape" fill="#FFFFFF" sketch:type="MSShapeGroup"></path>
            <path d="M43.81,45.069 C43.81,45.069 43.892,47.572 42.5,46.19 L41.108,44.807 L40.635,44.346 L40.635,34.532 L43.809,25.246 L43.809,45.069 L43.81,45.069 Z" id="Shape" fill="#FFFFFF" sketch:type="MSShapeGroup"></path>
            <path d="M26.356,18.396 C44.664,18.923 42.223,22.084 42.223,22.084 L37.479,32.292 C32.797,30.645 26.356,30.975 26.356,30.975 C26.356,30.975 19.911,30.645 15.23,32.292 L10.487,22.084 C10.487,22.085 8.048,18.923 26.356,18.396 L26.356,18.396 Z" id="Shape" fill="#FFFFFF" sketch:type="MSShapeGroup"></path>
            <circle id="Oval" fill="#FFFFFF" sketch:type="MSShapeGroup" cx="9.587" cy="94.522" r="2.487"></circle>
            <circle id="Oval" fill="#FFD100" sketch:type="MSShapeGroup" cx="13.666" cy="98.036" r="1.591"></circle>
            <circle id="Oval" fill="#FFFFFF" sketch:type="MSShapeGroup" cx="43.122" cy="94.522" r="2.487"></circle>
            <circle id="Oval" fill="#FFD100" sketch:type="MSShapeGroup" cx="39.045" cy="98.036" r="1.591"></circle>
        </g>
    </g>
</svg>