<?xml version="1.0" encoding="UTF-8" standalone="no"?>
<svg width="73px" height="521px" viewBox="0 0 73 521" version="1.1" xmlns="http://www.w3.org/2000/svg" xmlns:xlink="http://www.w3.org/1999/xlink" xmlns:sketch="http://www.bohemiancoding.com/sketch/ns">
    <!-- Generator: Sketch 3.3.2 (12043) - http://www.bohemiancoding.com/sketch -->
    <title>vehicleroad3</title>
    <desc>Created with Sketch.</desc>
    <defs></defs>
    <g id="Page-1" stroke="none" stroke-width="1" fill="none" fill-rule="evenodd" sketch:type="MSPage">
        <g id="vehicleroad3" sketch:type="MSLayerGroup">
            <path d="M0.251,514.188 C0.251,510.864 2.945,508.17 6.271,508.17 L66.992,508.17 C70.315,508.17 73.008,510.863 73.008,514.188" id="Shape" fill="#BCBEC0" sketch:type="MSShapeGroup"></path>
            <path d="M68.746,5.719 L68.746,5.719 C68.746,8.652 66.369,11.031 63.435,11.031 L9.825,11.031 C6.89,11.031 4.511,8.652 4.511,5.719" id="Shape" fill="#BCBEC0" sketch:type="MSShapeGroup"></path>
            <rect id="Rectangle-path" fill="#8DC63F" sketch:type="MSShapeGroup" x="7.738" y="5.719" width="57.822" height="144.422"></rect>
            <rect id="Rectangle-path" fill="#FFDE17" sketch:type="MSShapeGroup" x="7.718" y="150.141" width="57.825" height="364.047"></rect>
            <path d="M73.007,514.188 L73.007,514.188 C73.007,517.51 70.315,520.205 66.991,520.205 L6.27,520.205 C2.945,520.205 0.25,517.511 0.25,514.188 L0.25,514.188" id="Shape" fill="#BCBEC0" sketch:type="MSShapeGroup"></path>
            <path d="M36.631,3.062 L36.648,150.141" id="Shape" stroke="#FFFFFF" stroke-width="4" stroke-dasharray="8" sketch:type="MSShapeGroup"></path>
            <path d="M4.511,5.719 L4.511,5.719 C4.511,2.784 6.891,0.405 9.825,0.405 L63.435,0.405 C66.369,0.405 68.746,2.783 68.746,5.719" id="Shape" fill="#BCBEC0" sketch:type="MSShapeGroup"></path>
        </g>
    </g>
</svg>